<svg preserveAspectRatio="none" width="100%" height="100%" overflow="visible" style="display: block;" viewBox="0 0 62.5 73.0218" fill="none" xmlns="http://www.w3.org/2000/svg">
<path id="Vector" d="M29.6852 0.0502101C30.7306 -0.0155061 31.7852 -0.0179561 32.8304 0.0502101C33.0604 0.0794311 33.2883 0.113179 33.5167 0.152964C33.7207 0.198668 33.9247 0.244371 34.1349 0.291459C34.4274 0.371072 34.4274 0.371072 34.7258 0.452292C35.0538 0.55639 35.3806 0.66292 35.7064 0.773958C35.8424 0.827032 35.9784 0.880107 36.1185 0.93479C37.2434 1.44044 38.334 2.01592 39.4067 2.62353C40.6995 3.37561 41.9783 4.15133 43.2667 4.91093C44.5976 5.67939 45.9384 6.4304 47.2696 7.19833C48.6777 8.02594 50.0686 8.88471 51.4898 9.68978C53.6235 10.8734 55.9427 11.953 57.841 13.4965C58.0572 13.6917 58.0572 13.6917 58.2777 13.8908C58.52 14.1345 58.7582 14.381 58.9925 14.6324C59.2212 14.8596 59.4474 15.0887 59.6716 15.3204C59.8242 15.4951 59.8242 15.4951 59.9799 15.6733C60.0786 15.8016 60.1774 15.9299 60.2792 16.062C60.3809 16.2168 60.4826 16.3716 60.5875 16.5311C60.787 16.8676 60.9797 17.2063 61.1671 17.5497C61.2515 17.7193 61.3359 17.8888 61.4229 18.0635C61.4955 18.2271 61.5681 18.3908 61.6429 18.5594C61.7625 18.8587 61.8797 19.1586 61.9936 19.4602C62.0412 19.6126 62.0887 19.765 62.1377 19.922C62.2462 20.3497 62.348 20.774 62.4236 21.2087C62.4358 21.4188 62.4479 21.629 62.4604 21.8455C62.4669 22.6197 62.4656 23.3942 62.4652 24.1685C62.477 28.3345 62.4737 32.5005 62.4772 36.6665C62.4849 40.8312 62.4973 44.996 62.4931 49.1607C62.4991 50.184 62.5231 51.2118 62.4236 52.2315C62.387 52.448 62.346 52.6625 62.2997 52.8771C62.2496 53.0691 62.1994 53.2611 62.1477 53.459C62.0545 53.7669 61.9572 54.072 61.8518 54.3759C61.776 54.5696 61.7003 54.7633 61.6223 54.9629C61.4656 55.268 61.3041 55.5771 61.1336 55.8988C61.0404 56.0568 60.9471 56.2147 60.851 56.3774C60.7519 56.528 60.6528 56.6785 60.5506 56.8337C60.4463 56.978 60.342 57.1223 60.2345 57.2709C59.8216 57.791 59.402 58.3061 58.9568 58.7988C58.8363 58.9148 58.7157 59.0307 58.5916 59.1501C58.3654 59.3345 58.3654 59.3345 58.1348 59.5226C55.9231 61.0797 53.4799 62.3374 51.1296 63.6685C47.6414 65.6536 44.1724 67.672 40.6933 69.6729C39.308 70.4766 37.9313 71.33 36.4625 71.9748C36.2724 72.0497 36.0822 72.1245 35.8862 72.2016C35.7076 72.2615 35.5291 72.3214 35.3451 72.3831C35.0157 72.4788 34.6818 72.5756 34.3321 72.6768C34.1638 72.7175 33.9956 72.7583 33.8222 72.8002C33.6479 72.831 33.4735 72.8618 33.2939 72.8935C33.0938 72.9158 32.8936 72.9381 32.6874 72.9611C31.5918 73.0358 30.4945 73.0479 29.3993 72.9611C29.1785 72.9311 28.9596 72.897 28.7403 72.8572C28.5479 72.8119 28.3555 72.7665 28.1573 72.7198C27.9763 72.6666 27.7954 72.6133 27.6089 72.5584C27.1636 72.4068 26.7196 72.2552 26.2809 72.0854C25.0489 71.5369 23.8554 70.9051 22.6801 70.2448C21.3858 69.4952 20.1078 68.718 18.8201 67.9574C17.49 67.1875 16.1508 66.4336 14.8171 65.67C13.6712 65.0067 12.5305 64.3343 11.386 63.6685C9.28013 62.4548 7.11838 61.3025 5.09568 59.9515C4.9418 59.8402 4.78792 59.7289 4.62938 59.6142C4.36575 59.4056 4.10783 59.1931 3.8537 58.9731C3.64615 58.7796 3.43705 58.5826 3.2193 58.3744C3.12495 58.2756 3.03059 58.1769 2.93338 58.0751C2.84363 57.9691 2.75388 57.8632 2.66141 57.754C2.52181 57.5679 2.52181 57.568 2.3794 57.3782C2.27011 57.2173 2.16083 57.0564 2.04824 56.8906C1.82082 56.5283 1.59683 56.1656 1.38536 55.7938C1.28879 55.609 1.19223 55.4242 1.09273 55.2337C1.01681 55.0563 0.940881 54.8788 0.862653 54.6959C0.743541 54.3719 0.62794 54.0473 0.516975 53.7203C0.349827 53.1336 0.19845 52.5464 0.0919965 51.9456C0.0725956 51.6381 0.0725956 51.6381 0.0528027 51.3244C0.0273868 49.4499 0.0347469 47.5746 0.0294505 45.6999C0.0211692 44.5556 0.0146734 43.4115 0.0121386 42.2671C0.00408626 41.5366 -0.00569343 40.805 0.00411311 40.0745C0.0476154 39.794 0.0476154 39.794 0.0919965 39.5078C0.258719 39.2605 0.258719 39.2605 0.42881 39.0081C0.55355 38.89 0.678289 38.7718 0.806809 38.6501C0.943815 38.6218 1.08082 38.5936 1.22198 38.5645C1.36804 38.5927 1.5141 38.621 1.66458 38.6501C1.88906 38.756 1.88906 38.756 2.11808 38.8641C3.15639 39.5066 4.19641 40.1464 5.23254 40.7924C5.49726 40.9677 5.76509 41.1445 6.0468 41.3295C6.15753 41.436 6.26826 41.5425 6.38234 41.6523C6.41123 41.7858 6.44012 41.9193 6.46988 42.0569C6.459 44.2553 6.45594 46.4544 6.46332 48.653C6.45733 49.2023 6.45781 49.7501 6.47455 50.2992C6.4913 50.4651 6.50805 50.631 6.52531 50.8019C6.56571 50.9663 6.60612 51.1307 6.64776 51.3001C6.74318 51.5927 6.84275 51.8824 6.94927 52.1712C6.99807 52.2854 7.04687 52.3997 7.09716 52.5174C7.18156 52.6746 7.26596 52.8318 7.35293 52.9938C7.52808 53.2304 7.70071 53.4685 7.87116 53.7086C7.99316 53.8345 8.11516 53.9603 8.24086 54.09C8.38813 54.2057 8.38813 54.2057 8.53837 54.3237C8.90932 54.5898 9.28645 54.8439 9.67048 55.0908C10.8918 55.8347 12.1459 56.5259 13.3875 57.2352C15.8672 58.6617 18.3489 60.0854 20.8216 61.5241C23.0436 62.8303 25.2351 64.2088 27.5296 65.3857C27.8171 65.5225 28.1078 65.6594 28.4148 65.8007C28.5509 65.8519 28.6871 65.9031 28.8274 65.9559C29.0058 66.009 29.1842 66.0621 29.368 66.1167C29.5671 66.158 29.7661 66.1993 29.9711 66.2418C30.1825 66.2577 30.3939 66.2735 30.6117 66.2899C31.3044 66.3034 31.9965 66.296 32.6874 66.2418C32.8505 66.216 33.0136 66.1902 33.1817 66.1636C33.3252 66.1246 33.4688 66.0855 33.6167 66.0453C33.7619 65.9929 33.9071 65.9406 34.0567 65.8867C34.2182 65.8151 34.3796 65.7436 34.5459 65.67C35.5748 65.1806 36.5725 64.6346 37.5614 64.0694C38.2754 63.656 38.9822 63.2304 39.6926 62.8107C41.8448 61.559 44.0074 60.3251 46.1633 59.0797C48.8587 57.5202 52.1789 56.0957 54.4646 53.9415C54.5435 53.849 54.6224 53.7564 54.7037 53.6611C54.7943 53.5332 54.885 53.4053 54.9784 53.2736C55.1503 52.9973 55.3189 52.7197 55.4838 52.4393C55.6009 52.1772 55.7155 51.9163 55.8177 51.6482C55.8993 51.3907 55.9726 51.1325 56.0417 50.8714C56.087 50.6247 56.087 50.6247 56.1333 50.373C56.1466 50.1812 56.1599 49.9893 56.1736 49.7917C56.1954 49.0865 56.193 48.3812 56.191 47.6757C56.2023 43.9554 56.1954 40.235 56.1958 36.5146C56.201 32.7944 56.2124 29.0742 56.205 25.354C56.2091 24.6469 56.2136 23.94 56.1862 23.2332C56.16 22.9387 56.16 22.9387 56.1333 22.6383C56.0928 22.4628 56.0524 22.2872 56.0107 22.1064C55.9171 21.8177 55.8187 21.5331 55.7105 21.2495C55.6613 21.1417 55.6121 21.0338 55.5614 20.9227C55.4721 20.7639 55.3827 20.605 55.2906 20.4413C55.1071 20.2014 54.9255 19.9602 54.7455 19.7176C54.6374 19.5963 54.5292 19.4751 54.4177 19.3501C54.2633 19.2081 54.1089 19.066 53.9498 18.9196C53.7746 18.7738 53.5974 18.6317 53.417 18.4924C53.2421 18.3761 53.0672 18.2598 52.887 18.14C50.9883 16.9822 49.0552 15.8823 47.1266 14.7753C44.6478 13.3473 42.1672 11.922 39.6926 10.4865C37.673 9.30532 35.6324 7.86908 33.4291 7.05537C33.3185 7.02717 33.2079 6.99898 33.094 6.96993C32.9598 6.95095 32.8257 6.93196 32.6874 6.91241C32.4914 6.89785 32.2953 6.88329 32.0932 6.86829C31.6446 6.8506 31.1984 6.84942 30.7496 6.86494C30.5399 6.8806 30.3302 6.89627 30.1141 6.91241C29.9545 6.93839 29.7949 6.96438 29.6305 6.99115C29.4143 7.04948 29.4143 7.04948 29.1938 7.10898C29.046 7.16206 28.8982 7.21513 28.7459 7.26981C28.5841 7.34058 28.4223 7.41135 28.2556 7.48426C26.1309 8.48122 24.1323 9.73317 22.1082 10.9154C20.7765 11.6823 19.4392 12.4397 18.1053 13.2028C16.8654 13.916 15.6287 14.6348 14.3882 15.3472C12.3809 16.4891 10.2368 17.5343 8.38382 18.9213C8.27988 19.0123 8.17594 19.1033 8.06885 19.1971C7.98113 19.2889 7.89341 19.3807 7.80303 19.4752C7.73024 19.5668 7.65745 19.6584 7.58245 19.7528C7.51666 19.8558 7.45087 19.9588 7.38308 20.065C7.31287 20.1989 7.24265 20.3329 7.17031 20.4709C6.99089 20.8556 6.8228 21.2423 6.66827 21.6375C6.62109 21.7791 6.57391 21.9206 6.52531 22.0664C6.45169 23.0584 6.44564 24.0744 6.47972 25.0682C6.49477 25.2098 6.50981 25.3515 6.52531 25.4975C6.55675 25.6295 6.5882 25.7614 6.62059 25.8973C6.66378 26.0202 6.70698 26.1432 6.75148 26.2699C6.8044 26.3848 6.85733 26.4998 6.91186 26.6183C6.97301 26.7202 7.03416 26.8221 7.09716 26.9272C7.23758 27.0777 7.37801 27.2283 7.52269 27.3834C7.60954 27.4492 7.69638 27.515 7.78586 27.5828C9.12339 28.4491 10.5683 29.1511 11.9579 29.9294C13.1581 30.6293 14.3394 31.361 15.5319 32.0738C16.7664 32.7965 18.0099 33.5035 19.249 34.2182C20.3927 34.8853 21.5322 35.5596 22.6801 36.2197C23.8689 36.8914 25.0646 37.5508 26.2541 38.2212C27.5416 38.954 28.8381 39.6773 30.0841 40.4794C30.3204 40.6389 30.5592 40.8004 30.8097 40.9703C30.9104 41.0538 31.0111 41.1373 31.1148 41.2234C31.2054 41.3402 31.296 41.4571 31.3893 41.5774C31.53 41.794 31.6644 42.0121 31.7934 42.2359C31.933 42.5609 32.0656 42.8881 32.1957 43.2171C32.2332 43.3449 32.2708 43.4727 32.3095 43.6044C32.3399 43.7623 32.3702 43.9201 32.4015 44.0826C32.4139 44.2818 32.4264 44.4809 32.4391 44.6861C32.4566 45.4279 32.4498 46.1698 32.4434 46.9117C32.4342 50.067 32.5894 49.829 32.5695 52.9842C33.9698 52.2028 35.3829 51.4402 36.7604 50.6192C37.2691 50.3106 37.7763 49.9997 38.288 49.6961C40.1998 48.5909 42.2311 47.5847 44.0065 46.265C44.1108 46.1721 44.2151 46.0792 44.3226 45.9835C44.4099 45.8906 44.4973 45.7977 44.5873 45.702C44.6603 45.6097 44.7333 45.5174 44.8084 45.4223C44.9514 45.2058 45.0851 44.9867 45.215 44.7622C45.338 44.5257 45.4575 44.2882 45.573 44.0479C45.6733 43.8082 45.7729 43.5682 45.8719 43.3278C45.9168 43.1648 45.9617 43.0018 46.008 42.8339C46.0264 42.5167 46.0264 42.5167 46.0453 42.1931C46.0636 40.0153 45.8845 41.2301 45.8847 39.0522C45.8884 37.7247 45.8916 36.3973 45.8919 35.0699C45.8964 34.1006 45.917 33.1281 45.8796 32.1595C45.8665 32.0369 45.8535 31.9142 45.84 31.7879C45.8096 31.647 45.7791 31.5061 45.7478 31.3609C45.6451 30.9755 45.5369 30.5938 45.4111 30.2153C45.347 30.073 45.2828 29.9308 45.2168 29.7842C45.0839 29.5707 44.9529 29.3564 44.8236 29.1408C44.7344 29.0236 44.6452 28.9064 44.5533 28.7857C44.3441 28.5482 44.3441 28.5482 44.1306 28.306C44.0428 28.2203 43.955 28.1347 43.8645 28.0465C43.7616 27.9602 43.6587 27.8739 43.5526 27.7849C43.4292 27.7029 43.3058 27.6208 43.1786 27.5362C42.0782 26.8812 40.9504 26.2708 39.8356 25.6405C38.6894 24.9776 37.5486 24.3054 36.4045 23.639C35.0835 22.8842 33.7625 22.1293 32.4015 21.3516C32.4015 25.975 32.4015 30.5984 32.4015 35.3619C32.1184 35.3148 31.8354 35.2676 31.5437 35.219C31.4087 35.1546 31.2737 35.0903 31.1346 35.024C30.0308 34.3762 28.9231 33.7349 27.8267 33.0745C27.6727 33.0175 27.5186 32.9605 27.3599 32.9018C27.1916 32.8274 27.0234 32.753 26.8501 32.6764C26.689 32.5759 26.528 32.4754 26.362 32.3718C26.232 32.2263 26.1021 32.0808 25.9682 31.9308C25.9336 31.8272 25.899 31.7236 25.8634 31.6168C25.8428 31.4977 25.8222 31.3787 25.8009 31.256C25.7885 31.1262 25.7761 30.9964 25.7634 30.8626C25.7514 30.5754 25.7431 30.2885 25.7378 30.001C25.7394 29.5257 25.7502 29.0509 25.7616 28.5757C25.7649 27.9005 25.765 27.2254 25.77 26.5502C25.7815 25.8419 25.7962 25.1336 25.8074 24.4253C25.8228 22.0167 25.4847 19.2864 25.9682 16.9198C26.0183 16.8093 26.0684 16.6988 26.12 16.585C26.1815 16.4828 26.2431 16.3806 26.3065 16.2752C26.4308 16.1105 26.555 15.9458 26.683 15.7761C26.8203 15.6683 26.9576 15.5605 27.0991 15.4494C27.5804 15.178 28.0593 14.9023 28.5415 14.6324C29.1109 14.2945 29.6763 13.9497 30.2571 13.6316C30.3986 13.5845 30.5401 13.5373 30.686 13.4887C30.875 13.4679 31.0641 13.447 31.2589 13.4256C31.3732 13.4272 31.4875 13.4288 31.6053 13.4305C31.7265 13.4497 31.8477 13.4689 31.9726 13.4887C32.0927 13.5394 32.2128 13.5901 32.3366 13.6423C32.742 13.8671 33.1355 14.1078 33.5273 14.3554C34.152 14.735 34.7765 15.1148 35.4037 15.4902C39.7258 17.9553 44.8853 20.0363 48.6037 23.3966C48.7888 23.5848 48.9689 23.7766 49.1477 23.9707C49.372 24.232 49.5901 24.4965 49.8044 24.766C49.9115 24.913 50.0185 25.0601 50.1289 25.2116C50.2828 25.4499 50.2828 25.4499 50.4399 25.693C50.6377 26.0274 50.8296 26.3639 51.0168 26.7043C51.1012 26.8722 51.1856 27.0401 51.2726 27.2131C51.3452 27.3765 51.4178 27.54 51.4926 27.7084C51.6121 28.008 51.7293 28.3081 51.8433 28.6098C51.8908 28.7622 51.9384 28.9146 51.9874 29.0716C52.0672 29.3767 52.1451 29.6809 52.2121 29.9891C52.6618 32.7021 52.3178 35.7092 52.318 38.4535C52.3217 39.9446 52.3249 41.4356 52.3252 42.9267C52.3303 44.1693 52.3252 43.3907 52.3252 43.6053C52.2987 43.8348 52.2951 44.0973 52.2599 44.3256C52.1906 44.6807 52.2063 44.6561 52.1239 45.0083C52.0278 45.3519 51.9287 45.6929 51.813 46.0304C51.6743 46.3623 51.5322 46.6992 51.383 47.0507C51.2438 47.356 51.1014 47.6638 50.9486 47.9855C50.8139 48.2464 50.6749 48.5033 50.5297 48.7584C50.4529 48.8791 50.376 48.9998 50.2969 49.1242C50.1138 49.3784 49.9267 49.6278 49.7339 49.8748C49.3964 50.2777 49.0552 50.6779 48.6975 51.0631C48.6138 51.1429 48.5301 51.2227 48.4439 51.3049C48.2352 51.4837 48.0232 51.6564 47.8073 51.8265C47.5099 52.0418 47.2091 52.2505 46.9049 52.4559C45.4994 53.3587 44.0277 54.1591 42.5769 54.9857C40.7508 56.0342 38.9281 57.0887 37.1086 58.1487C36.5473 58.4741 35.9864 58.7999 35.4288 59.1316C34.4982 59.7056 33.5851 60.3257 32.6229 60.8447C32.5109 60.8927 32.399 60.9407 32.2836 60.9901C32.0757 61.0246 31.8678 61.059 31.6537 61.0945C31.4965 61.0834 31.4965 61.0834 31.3362 61.072C31.2243 61.045 31.1123 61.018 30.9969 60.9901C30.8681 60.9369 30.7393 60.8837 30.6065 60.8288C29.4906 60.2629 28.3773 59.6209 27.3671 58.8815C27.1816 58.7299 26.9947 58.5758 26.7997 58.4126C26.7223 58.3196 26.6449 58.2266 26.5651 58.1308C26.4906 57.9873 26.4161 57.8437 26.3393 57.6958C26.2388 57.4158 26.2388 57.4158 26.1362 57.1301C26.1187 56.9249 26.1011 56.7197 26.0831 56.5082C26.0602 53.8502 26.0764 51.1911 26.0734 48.5328C26.0676 47.0333 25.9633 48.9108 25.8777 47.4138C25.8604 47.3053 25.8431 47.1967 25.8252 47.0849C25.7855 46.9672 25.7459 46.8496 25.705 46.7284C25.6099 46.5073 25.5118 46.2885 25.4087 46.0709C25.3574 45.9809 25.3062 45.8909 25.2534 45.7982C25.1428 45.6657 25.0322 45.5332 24.9183 45.3967C24.793 45.2933 24.6677 45.1899 24.5386 45.0834C24.3956 44.9874 24.2526 44.8914 24.1052 44.7924C22.5403 43.8778 20.9659 42.9802 19.3919 42.0812C16.9115 40.6558 14.4327 39.2273 11.9579 37.7923C10.8145 37.1245 9.67482 36.4505 8.52678 35.7908C6.40306 34.5937 4.04321 33.5447 2.09347 32.0738C1.99885 31.9824 1.90423 31.8911 1.80674 31.797C1.6317 31.6034 1.46208 31.4073 1.29643 31.2056C1.1956 31.0692 1.1956 31.0692 1.09273 30.9301C1.0122 30.793 0.931666 30.6559 0.848692 30.5146C0.74564 30.2728 0.639663 30.0283 0.527027 29.773C0.477822 29.6359 0.428617 29.4988 0.377921 29.3575C0.298197 29.0857 0.22027 28.8147 0.152948 28.5395C0.132834 28.432 0.11272 28.3246 0.0919965 28.2138C0.00915235 27.2128 0.0525621 26.1974 0.0562559 25.1937C0.0523759 24.151 0.0434288 23.1083 0.0919965 22.0664C0.110206 21.8664 0.128416 21.6665 0.147178 21.4604C0.209835 20.9918 0.283153 20.5282 0.377921 20.065C0.427126 19.8775 0.476331 19.6901 0.527027 19.497C0.640435 19.1909 0.757687 18.8802 0.881641 18.5566C1.02293 18.2265 1.16935 17.9 1.3217 17.5748C1.4837 17.2593 1.65069 16.9481 1.8243 16.6389C1.91313 16.4957 2.00195 16.3525 2.09347 16.205C2.27572 15.947 2.46233 15.6947 2.65639 15.4455C3.01235 15.0252 3.37311 14.6084 3.74647 14.2035C3.84286 14.1108 3.93924 14.0181 4.03854 13.9226C4.15151 13.8266 4.26448 13.7306 4.38087 13.6316C4.68041 13.4073 4.98384 13.1914 5.29226 12.9794C6.8932 11.927 8.57789 11.0041 10.2423 10.0576C12.8192 8.58642 15.3936 7.11115 17.9623 5.62575C20.8512 3.95243 23.7268 2.01494 26.8338 0.770607C27.1192 0.669915 27.4054 0.574186 27.6938 0.482448C27.9519 0.408813 28.2102 0.337795 28.47 0.270797C28.7099 0.218698 28.9537 0.166914 29.2089 0.113873C29.3661 0.0928643 29.5233 0.0718556 29.6852 0.0502101Z" fill="var(--fill-0, #FDFBF4)"/>
</svg>
