<svg width="99" height="58" viewBox="0 0 99 58" fill="none" xmlns="http://www.w3.org/2000/svg">
<g clip-path="url(#clip0_2808_3796)">
<path d="M37.5373 20.5981C37.0735 20.5979 36.619 20.729 36.2261 20.9764C35.8331 21.2238 35.5176 21.5774 35.3159 21.9967C34.2099 21.0544 32.7958 20.5562 31.3459 20.5981C30.2197 20.5547 29.0964 20.7399 28.0432 21.1426C26.99 21.5453 26.0286 22.1572 25.2166 22.9417C24.4045 23.7262 23.7585 24.6671 23.3173 25.7081C22.876 26.7492 22.6486 27.8689 22.6486 29.0003C22.6486 30.1316 22.876 31.2513 23.3173 32.2924C23.7585 33.3334 24.4045 34.2743 25.2166 35.0588C26.0286 35.8433 26.99 36.4552 28.0432 36.8579C29.0964 37.2606 30.2197 37.4458 31.3459 37.4024C32.6872 37.4351 34.0002 37.0117 35.0715 36.2008V43.0642C35.0715 43.7208 35.3313 44.3504 35.7937 44.8146C36.2562 45.2788 36.8834 45.5396 37.5373 45.5396C38.1913 45.5396 38.8185 45.2788 39.281 44.8146C39.7434 44.3504 40.0032 43.7208 40.0032 43.0642V23.0701C40.0032 22.745 39.9394 22.4231 39.8155 22.1228C39.6916 21.8225 39.5099 21.5496 39.281 21.3197C39.052 21.0899 38.7801 20.9075 38.481 20.7831C38.1818 20.6587 37.8612 20.5947 37.5373 20.5947V20.5981ZM31.3447 32.6047C30.6415 32.5791 29.9612 32.3464 29.3888 31.9355C28.8163 31.5246 28.3769 30.9538 28.1252 30.294C27.8736 29.6343 27.8209 28.9148 27.9736 28.2252C28.1263 27.5355 28.4778 26.9063 28.9842 26.4157C29.4906 25.9251 30.1295 25.5949 30.8215 25.4663C31.5135 25.3376 32.2278 25.4161 32.8757 25.692C33.5235 25.968 34.0762 26.4291 34.4648 27.0181C34.8535 27.607 35.061 28.2977 35.0614 29.0042C35.0435 29.9762 34.642 30.9013 33.9451 31.5763C33.2483 32.2514 32.313 32.6213 31.3447 32.6047ZM18.9293 25.3755L16.2102 22.6459C16.2169 22.5739 16.2214 22.5007 16.2214 22.4276C16.2213 21.9212 16.0665 21.427 15.7778 21.0116C15.4892 20.5963 15.0806 20.2798 14.6071 20.1049C14.1337 19.93 13.6182 19.9051 13.1302 20.0335C12.6422 20.1619 12.2052 20.4375 11.8782 20.8231L1.23698 31.5054C0.980688 31.7281 0.772892 32.0014 0.626552 32.3084C0.480211 32.6153 0.398469 32.9492 0.386441 33.2892C0.374413 33.6293 0.43235 33.9682 0.556637 34.2847C0.680924 34.6013 0.868892 34.8888 1.1088 35.1291C1.34871 35.3695 1.6354 35.5576 1.95099 35.6818C2.26657 35.8059 2.60427 35.8635 2.94299 35.8507C3.2817 35.838 3.61417 35.7553 3.91962 35.6078C4.22507 35.4603 4.49695 35.2512 4.71828 34.9935L13.1324 26.548L15.4446 28.868C15.7377 29.1619 15.9374 29.5365 16.0182 29.9443C16.0991 30.3522 16.0575 30.7749 15.8989 31.1591C15.7402 31.5432 15.4715 31.8714 15.1269 32.1021C14.7822 32.3328 14.3771 32.4557 13.9629 32.4551C13.6296 32.4391 13.2965 32.4912 12.9838 32.6083C12.6711 32.7253 12.3854 32.9049 12.1438 33.136C11.9023 33.3672 11.71 33.6452 11.5787 33.9532C11.4473 34.2611 11.3795 34.5926 11.3795 34.9276C11.3795 35.2626 11.4473 35.5941 11.5787 35.9021C11.71 36.21 11.9023 36.488 12.1438 36.7192C12.3854 36.9504 12.6711 37.1299 12.9838 37.247C13.2965 37.364 13.6296 37.4161 13.9629 37.4002C15.3402 37.4008 16.6873 36.9944 17.8361 36.2316C18.9849 35.4688 19.8846 34.3834 20.4231 33.1108C20.9615 31.8381 21.1148 30.4346 20.8639 29.075C20.6131 27.7155 19.9691 26.4601 19.0123 25.4655C18.9898 25.4374 18.9584 25.4059 18.9293 25.3755ZM59.5617 23.0757C59.5617 22.4192 59.3019 21.7896 58.8395 21.3254C58.377 20.8611 57.7498 20.6003 57.0959 20.6003C56.4419 20.6003 55.8147 20.8611 55.3523 21.3254C54.8898 21.7896 54.63 22.4192 54.63 23.0757V29.0008C54.5965 29.97 54.1894 30.8882 53.4946 31.562C52.7998 32.2357 51.8715 32.6122 50.9055 32.6122C49.9395 32.6122 49.0112 32.2357 48.3164 31.562C47.6215 30.8882 47.2145 29.97 47.181 29.0008H47.1698V23.0746C47.1698 22.4181 46.91 21.7884 46.4475 21.3242C45.9851 20.86 45.3579 20.5992 44.7039 20.5992C44.05 20.5992 43.4228 20.86 42.9603 21.3242C42.4979 21.7884 42.2381 22.4181 42.2381 23.0746V29.0008C42.2575 30.1239 42.4972 31.2322 42.9433 32.2623C43.3895 33.2924 44.0335 34.2242 44.8385 35.0044C45.6435 35.7846 46.5937 36.398 47.6349 36.8095C48.6761 37.2209 49.7878 37.4224 50.9066 37.4024C52.359 37.445 53.7749 36.9423 54.8777 35.9926C55.1209 36.4967 55.5273 36.9031 56.0303 37.1454C56.5334 37.3877 57.1034 37.4515 57.6473 37.3265C58.1912 37.2015 58.6767 36.8951 59.0247 36.4572C59.3726 36.0193 59.5623 35.4759 59.5628 34.9158L59.574 29.0019H59.5628L59.5617 23.0757ZM98.6854 14.9363C98.6854 14.2789 98.4253 13.6484 97.9622 13.1835C97.4992 12.7187 96.8711 12.4575 96.2162 12.4575C95.5614 12.4575 94.9333 12.7187 94.4703 13.1835C94.0072 13.6484 93.747 14.2789 93.747 14.9363V21.415C92.581 20.8771 91.3125 20.5995 90.0292 20.6015C88.9031 20.5581 87.7798 20.7433 86.7266 21.146C85.6734 21.5487 84.712 22.1606 83.9 22.9451C83.0879 23.7296 82.4419 24.6705 82.0007 25.7115C81.5594 26.7526 81.332 27.8723 81.332 29.0036C81.332 30.135 81.5594 31.2547 82.0007 32.2957C82.4419 33.3368 83.0879 34.2777 83.9 35.0622C84.712 35.8467 85.6734 36.4586 86.7266 36.8613C87.7798 37.264 88.9031 37.4492 90.0292 37.4058C91.4759 37.4334 92.8841 36.9369 93.9959 36.0072C94.2202 36.4089 94.5415 36.7475 94.9303 36.9919C95.3191 37.2363 95.7628 37.3786 96.2207 37.4058C96.8747 37.4058 97.5019 37.145 97.9643 36.6808C98.4268 36.2166 98.6865 35.587 98.6865 34.9304L98.6854 14.9363ZM90.0292 32.6013C89.326 32.5757 88.6457 32.343 88.0733 31.9321C87.5008 31.5213 87.0614 30.9504 86.8097 30.2906C86.5581 29.6309 86.5053 28.9114 86.6581 28.2218C86.8108 27.5322 87.1623 26.9029 87.6686 26.4123C88.175 25.9217 88.814 25.5916 89.506 25.4629C90.198 25.3342 90.9123 25.4127 91.5602 25.6887C92.208 25.9646 92.7607 26.4258 93.1493 27.0147C93.538 27.6036 93.7454 28.2944 93.7459 29.0008C93.7288 29.9736 93.3276 30.8997 92.6304 31.5756C91.9332 32.2514 90.9972 32.6216 90.0281 32.6047L90.0292 32.6013ZM70.4629 20.597C69.3367 20.5536 68.2134 20.7388 67.1602 21.1415C66.107 21.5442 65.1456 22.1561 64.3336 22.9406C63.5215 23.7251 62.8756 24.666 62.4343 25.707C61.9931 26.7481 61.7656 27.8678 61.7656 28.9991C61.7656 30.1305 61.9931 31.2502 62.4343 32.2912C62.8756 33.3323 63.5215 34.2732 64.3336 35.0577C65.1456 35.8422 66.107 36.4541 67.1602 36.8568C68.2134 37.2595 69.3367 37.4447 70.4629 37.4013C71.9094 37.4295 73.3178 36.9343 74.4306 36.0061C74.6693 36.3948 74.9941 36.7229 75.3798 36.9649C75.7656 37.2069 76.2017 37.3563 76.6544 37.4013C77.3083 37.4013 77.9355 37.1405 78.398 36.6763C78.8604 36.2121 79.1202 35.5824 79.1202 34.9259V28.9963C79.0813 26.7303 78.1478 24.5724 76.5249 22.9968C74.9021 21.4212 72.7225 20.5569 70.4651 20.5936L70.4629 20.597ZM70.4629 32.6013C69.7596 32.5757 69.0794 32.343 68.5069 31.9321C67.9344 31.5213 67.495 30.9504 67.2434 30.2906C66.9917 29.6309 66.939 28.9114 67.0917 28.2218C67.2444 27.5322 67.5959 26.9029 68.1023 26.4123C68.6087 25.9217 69.2477 25.5916 69.9396 25.4629C70.6316 25.3342 71.346 25.4127 71.9938 25.6887C72.6417 25.9646 73.1943 26.4258 73.583 27.0147C73.9716 27.6036 74.1791 28.2944 74.1796 29.0008C74.1619 29.9727 73.7606 30.8978 73.064 31.5729C72.3673 32.248 71.4322 32.6179 70.464 32.6013H70.4629Z" fill="black"/>
<path d="M13.9685 37.4058C15.3304 37.4058 16.4343 36.2975 16.4343 34.9304C16.4343 33.5633 15.3304 32.4551 13.9685 32.4551C12.6067 32.4551 11.5027 33.5633 11.5027 34.9304C11.5027 36.2975 12.6067 37.4058 13.9685 37.4058Z" fill="#109E7C"/>
<path d="M57.0947 37.4058C58.4566 37.4058 59.5606 36.2975 59.5606 34.9304C59.5606 33.5633 58.4566 32.4551 57.0947 32.4551C55.7329 32.4551 54.6289 33.5633 54.6289 34.9304C54.6289 36.2975 55.7329 37.4058 57.0947 37.4058Z" fill="#F05039"/>
<path d="M40.001 23.0718C40.001 22.4153 39.7412 21.7857 39.2787 21.3215C38.8163 20.8572 38.1891 20.5964 37.5351 20.5964C36.8812 20.5964 36.254 20.8572 35.7915 21.3215C35.3291 21.7857 35.0693 22.4153 35.0693 23.0718V43.0648C35.0693 43.7214 35.3291 44.351 35.7915 44.8152C36.254 45.2794 36.8812 45.5402 37.5351 45.5402C38.1891 45.5402 38.8163 45.2794 39.2787 44.8152C39.7412 44.351 40.001 43.7214 40.001 43.0648V23.0718Z" fill="#FDB825"/>
<path d="M76.6532 27.5055C75.9992 27.5055 75.3721 27.7663 74.9097 28.2305C74.4472 28.6947 74.1874 29.3243 74.1874 29.9809V34.9316C74.1874 35.5881 74.4472 36.2177 74.9097 36.6819C75.3721 37.1462 75.9992 37.4069 76.6532 37.4069C77.3072 37.4069 77.9344 37.1462 78.3969 36.6819C78.8593 36.2177 79.1191 35.5881 79.1191 34.9316V29.9809C79.1191 29.3243 78.8593 28.6947 78.3969 28.2305C77.9344 27.7663 77.3072 27.5055 76.6532 27.5055Z" fill="#E51937"/>
<path d="M96.2151 12.4575C95.5611 12.4575 94.934 12.7183 94.4715 13.1825C94.0091 13.6468 93.7493 14.2764 93.7493 14.9329V34.9158C93.7493 35.5732 94.0094 36.2037 94.4725 36.6685C94.9356 37.1334 95.5636 37.3945 96.2185 37.3945C96.8733 37.3945 97.5014 37.1334 97.9645 36.6685C98.4276 36.2037 98.6877 35.5732 98.6877 34.9158V14.9329C98.6877 14.2764 98.4279 13.6468 97.9655 13.1825C97.503 12.7183 96.8758 12.4575 96.2218 12.4575H96.2151Z" fill="#4AAFE4"/>
</g>
<defs>
<clipPath id="clip0_2808_3796">
<rect width="99" height="58" fill="white"/>
</clipPath>
</defs>
</svg>
