<svg width="220" height="77" viewBox="0 0 220 77" fill="none" xmlns="http://www.w3.org/2000/svg">
<g clip-path="url(#clip0_16_121)">
<path d="M30.4352 1.66447C31.4806 1.59875 32.5352 1.5963 33.5804 1.66447C33.8104 1.69369 34.0383 1.72744 34.2667 1.76722C34.4707 1.81293 34.6747 1.85863 34.8849 1.90572C35.1774 1.98533 35.1774 1.98533 35.4758 2.06655C35.8038 2.17065 36.1306 2.27718 36.4564 2.38822C36.5924 2.44129 36.7284 2.49437 36.8685 2.54905C37.9934 3.05469 39.084 3.63017 40.1567 4.23779C41.4495 4.98986 42.7283 5.76558 44.0167 6.52519C45.3476 7.29365 46.6884 8.04466 48.0196 8.81259C49.4277 9.6402 50.8186 10.499 52.2398 11.304C54.3735 12.4877 56.6927 13.5673 58.591 15.1108C58.8072 15.3059 58.8072 15.3059 59.0277 15.505C59.27 15.7488 59.5082 15.9952 59.7425 16.2466C59.9712 16.4739 60.1974 16.703 60.4216 16.9346C60.5742 17.1094 60.5742 17.1093 60.7299 17.2876C60.8286 17.4158 60.9274 17.5441 61.0292 17.6763C61.1309 17.8311 61.2326 17.9859 61.3375 18.1454C61.537 18.4819 61.7297 18.8205 61.9171 19.164C62.0015 19.3335 62.0859 19.5031 62.1729 19.6777C62.2455 19.8414 62.3181 20.005 62.3929 20.1736C62.5125 20.473 62.6297 20.7729 62.7436 21.0744C62.7912 21.2268 62.8387 21.3792 62.8877 21.5362C62.9962 21.964 63.098 22.3883 63.1736 22.8229C63.1858 23.0331 63.1979 23.2432 63.2104 23.4597C63.2169 24.234 63.2156 25.0085 63.2152 25.7828C63.227 29.9487 63.2237 34.1147 63.2272 38.2807C63.2349 42.4455 63.2473 46.6102 63.2431 50.7749C63.2491 51.7983 63.2731 52.826 63.1736 53.8458C63.137 54.0622 63.096 54.2768 63.0497 54.4914C62.9996 54.6834 62.9494 54.8754 62.8977 55.0732C62.8045 55.3812 62.7072 55.6862 62.6018 55.9902C62.526 56.1839 62.4503 56.3776 62.3723 56.5771C62.2156 56.8823 62.0541 57.1914 61.8836 57.5131C61.7904 57.671 61.6971 57.829 61.601 57.9917C61.5019 58.1422 61.4028 58.2928 61.3006 58.4479C61.1963 58.5922 61.092 58.7365 60.9845 58.8852C60.5716 59.4053 60.152 59.9203 59.7068 60.4131C59.5863 60.529 59.4657 60.6449 59.3416 60.7644C59.1154 60.9487 59.1154 60.9487 58.8848 61.1368C56.6731 62.6939 54.2299 63.9517 51.8796 65.2828C48.3914 67.2679 44.9224 69.2863 41.4433 71.2872C40.058 72.0908 38.6813 72.9442 37.2125 73.5891C37.0224 73.6639 36.8322 73.7387 36.6362 73.8158C36.4576 73.8757 36.2791 73.9356 36.0951 73.9973C35.7657 74.093 35.4318 74.1898 35.0821 74.2911C34.9138 74.3318 34.7456 74.3725 34.5722 74.4145C34.3979 74.4453 34.2235 74.476 34.0439 74.5077C33.8438 74.53 33.6436 74.5523 33.4374 74.5753C32.3418 74.6501 31.2445 74.6622 30.1493 74.5753C29.9285 74.5454 29.7096 74.5113 29.4903 74.4715C29.2979 74.4261 29.1055 74.3808 28.9073 74.3341C28.7263 74.2808 28.5454 74.2276 28.3589 74.1727C27.9136 74.0211 27.4696 73.8695 27.0309 73.6997C25.7989 73.1512 24.6054 72.5193 23.4301 71.859C22.1358 71.1094 20.8578 70.3323 19.5701 69.5716C18.24 68.8018 16.9008 68.0478 15.5671 67.2842C14.4212 66.6209 13.2805 65.9486 12.136 65.2828C10.0301 64.0691 7.86838 62.9167 5.84568 61.5657C5.6918 61.4544 5.53792 61.3431 5.37938 61.2284C5.11575 61.0198 4.85783 60.8074 4.6037 60.5873C4.39615 60.3938 4.18705 60.1968 3.9693 59.9887C3.87495 59.8899 3.78059 59.7911 3.68338 59.6894C3.59363 59.5834 3.50388 59.4774 3.41141 59.3682C3.27181 59.1822 3.27181 59.1822 3.1294 58.9924C3.02011 58.8315 2.91083 58.6706 2.79824 58.5049C2.57082 58.1426 2.34683 57.7799 2.13536 57.4081C2.03879 57.2233 1.94223 57.0384 1.84273 56.848C1.76681 56.6705 1.69088 56.493 1.61265 56.3102C1.49354 55.9861 1.37794 55.6615 1.26697 55.3346C1.09983 54.7479 0.94845 54.1606 0.841997 53.5598C0.822596 53.2524 0.822596 53.2524 0.802803 52.9387C0.777387 51.0641 0.784747 49.1889 0.77945 47.3142C0.771169 46.1699 0.764673 45.0257 0.762139 43.8814C0.754086 43.1508 0.744307 42.4193 0.754113 41.6888C0.797615 41.4083 0.797615 41.4083 0.841997 41.1221C1.00872 40.8748 1.00872 40.8747 1.17881 40.6224C1.30355 40.5042 1.42829 40.3861 1.55681 40.2643C1.69382 40.2361 1.83082 40.2078 1.97198 40.1788C2.11804 40.207 2.2641 40.2352 2.41458 40.2643C2.63906 40.3703 2.63906 40.3703 2.86808 40.4784C3.90639 41.1209 4.94641 41.7606 5.98254 42.4067C6.24726 42.582 6.51509 42.7588 6.7968 42.9438C6.90753 43.0503 7.01826 43.1568 7.13234 43.2665C7.16123 43.4001 7.19012 43.5336 7.21988 43.6711C7.209 45.8696 7.20594 48.0687 7.21332 50.2672C7.20733 50.8165 7.20781 51.3643 7.22455 51.9134C7.2413 52.0793 7.25805 52.2452 7.27531 52.4161C7.31571 52.5805 7.35612 52.7449 7.39776 52.9143C7.49318 53.2069 7.59275 53.4967 7.69927 53.7854C7.74807 53.8997 7.79687 54.014 7.84716 54.1317C7.93156 54.2889 8.01596 54.4461 8.10293 54.608C8.27808 54.8447 8.45071 55.0828 8.62116 55.3229C8.74316 55.4487 8.86516 55.5746 8.99086 55.7043C9.13813 55.8199 9.13813 55.8199 9.28837 55.9379C9.65932 56.2041 10.0365 56.4581 10.4205 56.705C11.6418 57.449 12.8959 58.1401 14.1375 58.8494C16.6172 60.276 19.0989 61.6997 21.5716 63.1383C23.7936 64.4445 25.9851 65.823 28.2796 67C28.5671 67.1368 28.8578 67.2736 29.1648 67.4149C29.3009 67.4661 29.4371 67.5174 29.5774 67.5702C29.7558 67.6232 29.9342 67.6763 30.118 67.731C30.3171 67.7723 30.5161 67.8136 30.7211 67.8561C30.9325 67.8719 31.1439 67.8878 31.3617 67.9041C32.0544 67.9177 32.7465 67.9102 33.4374 67.8561C33.6005 67.8303 33.7636 67.8045 33.9317 67.7779C34.0752 67.7388 34.2188 67.6998 34.3667 67.6595C34.5119 67.6072 34.6571 67.5548 34.8067 67.5009C34.9682 67.4294 35.1296 67.3579 35.2959 67.2842C36.3248 66.7949 37.3225 66.2488 38.3114 65.6837C39.0254 65.2703 39.7322 64.8447 40.4426 64.425C42.5948 63.1733 44.7574 61.9393 46.9133 60.694C49.6087 59.1345 52.9289 57.71 55.2146 55.5557C55.2935 55.4632 55.3724 55.3707 55.4537 55.2754C55.5443 55.1475 55.635 55.0196 55.7284 54.8878C55.9003 54.6115 56.0689 54.334 56.2338 54.0535C56.3509 53.7915 56.4655 53.5306 56.5677 53.2625C56.6493 53.005 56.7226 52.7468 56.7917 52.4856C56.837 52.2389 56.837 52.2389 56.8833 51.9873C56.8966 51.7954 56.9099 51.6036 56.9236 51.4059C56.9454 50.7007 56.943 49.9955 56.941 49.29C56.9523 45.5696 56.9454 41.8492 56.9458 38.1288C56.951 34.4087 56.9624 30.6885 56.955 26.9683C56.9591 26.2611 56.9636 25.5543 56.9362 24.8475C56.91 24.553 56.91 24.553 56.8833 24.2525C56.8428 24.077 56.8024 23.9015 56.7607 23.7207C56.6671 23.4319 56.5687 23.1473 56.4605 22.8638C56.4113 22.7559 56.3621 22.6481 56.3114 22.537C56.222 22.3781 56.1327 22.2193 56.0406 22.0556C55.8571 21.8157 55.6755 21.5745 55.4955 21.3319C55.3874 21.2106 55.2792 21.0893 55.1677 20.9644C55.0133 20.8223 54.8589 20.6802 54.6998 20.5338C54.5246 20.388 54.3474 20.2459 54.167 20.1066C53.9921 19.9903 53.8172 19.8741 53.637 19.7542C51.7383 18.5965 49.8052 17.4966 47.8766 16.3896C45.3978 14.9615 42.9172 13.5362 40.4426 12.1007C38.423 10.9196 36.3824 9.48334 34.1791 8.66963C34.0685 8.64143 33.9579 8.61324 33.844 8.58419C33.7098 8.5652 33.5757 8.54622 33.4374 8.52667C33.2414 8.51211 33.0453 8.49755 32.8432 8.48255C32.3946 8.46486 31.9484 8.46368 31.4996 8.4792C31.2899 8.49486 31.0802 8.51053 30.8641 8.52667C30.7045 8.55265 30.5449 8.57864 30.3805 8.60541C30.1643 8.66373 30.1643 8.66373 29.9438 8.72324C29.796 8.77631 29.6482 8.82939 29.4959 8.88407C29.3341 8.95484 29.1723 9.0256 29.0056 9.09852C26.8809 10.0955 24.8823 11.3474 22.8582 12.5296C21.5265 13.2965 20.1892 14.0539 18.8553 14.817C17.6154 15.5303 16.3787 16.2491 15.1382 16.9615C13.1309 18.1033 10.9868 19.1486 9.13382 20.5355C9.02988 20.6266 8.92594 20.7176 8.81885 20.8114C8.73113 20.9032 8.64341 20.9949 8.55303 21.0895C8.48024 21.1811 8.40745 21.2727 8.33245 21.367C8.26666 21.4701 8.20087 21.5731 8.13308 21.6792C8.06287 21.8132 7.99265 21.9472 7.92031 22.0852C7.74089 22.4698 7.5728 22.8565 7.41827 23.2518C7.37109 23.3933 7.32391 23.5349 7.27531 23.6807C7.20169 24.6726 7.19564 25.6886 7.22972 26.6824C7.24477 26.8241 7.25981 26.9658 7.27531 27.1118C7.30675 27.2437 7.3382 27.3756 7.37059 27.5116C7.41378 27.6345 7.45698 27.7575 7.50148 27.8841C7.5544 27.9991 7.60733 28.1141 7.66186 28.2325C7.72301 28.3345 7.78416 28.4364 7.84716 28.5414C7.98758 28.692 8.12801 28.8425 8.27269 28.9977C8.35954 29.0635 8.44638 29.1293 8.53586 29.1971C9.87339 30.0633 11.3183 30.7654 12.7079 31.5436C13.9081 32.2436 15.0894 32.9753 16.2819 33.6881C17.5164 34.4107 18.7599 35.1177 19.999 35.8325C21.1427 36.4996 22.2822 37.1739 23.4301 37.834C24.6189 38.5057 25.8146 39.165 27.0041 39.8354C28.2916 40.5682 29.5881 41.2915 30.8341 42.0937C31.0704 42.2532 31.3092 42.4147 31.5597 42.5845C31.6604 42.6681 31.7611 42.7516 31.8648 42.8377C31.9554 42.9545 32.046 43.0713 32.1393 43.1917C32.28 43.4082 32.4144 43.6264 32.5434 43.8501C32.683 44.1752 32.8156 44.5023 32.9457 44.8313C32.9832 44.9592 33.0208 45.087 33.0595 45.2187C33.0899 45.3765 33.1202 45.5343 33.1515 45.6969C33.1639 45.896 33.1763 46.0952 33.1891 46.3003C33.2066 47.0422 33.1998 47.784 33.1934 48.526C33.1842 51.6812 33.3394 51.4433 33.3195 54.5985C34.7198 53.8171 36.1329 53.0545 37.5104 52.2334C38.0191 51.9248 38.5263 51.6139 39.038 51.3103C40.9498 50.2052 42.9811 49.199 44.7565 47.8792C44.8608 47.7863 44.9651 47.6935 45.0726 47.5978C45.1599 47.5049 45.2473 47.412 45.3373 47.3163C45.4103 47.224 45.4833 47.1316 45.5584 47.0365C45.7014 46.8201 45.8351 46.601 45.965 46.3764C46.088 46.1399 46.2075 45.9025 46.323 45.6622C46.4233 45.4224 46.5229 45.1824 46.6219 44.9421C46.6668 44.7791 46.7117 44.6161 46.758 44.4481C46.7764 44.131 46.7764 44.131 46.7953 43.8074C46.8136 41.6295 46.6345 42.8444 46.6347 40.6664C46.6384 39.339 46.6416 38.0116 46.6419 36.6841C46.6464 35.7149 46.667 34.7423 46.6296 33.7737C46.6165 33.6511 46.6035 33.5285 46.59 33.4021C46.5596 33.2612 46.5291 33.1203 46.4978 32.9752C46.3951 32.5898 46.2869 32.208 46.1611 31.8295C46.097 31.6873 46.0328 31.545 45.9668 31.3984C45.8339 31.185 45.7029 30.9707 45.5736 30.7551C45.4844 30.6379 45.3952 30.5207 45.3033 30.3999C45.0941 30.1625 45.0941 30.1625 44.8806 29.9202C44.7928 29.8346 44.705 29.749 44.6145 29.6607C44.5116 29.5744 44.4086 29.4881 44.3026 29.3992C44.1792 29.3171 44.0558 29.235 43.9286 29.1505C42.8282 28.4955 41.7004 27.8851 40.5856 27.2547C39.4394 26.5918 38.2986 25.9197 37.1545 25.2533C35.8335 24.4984 34.5125 23.7436 33.1515 22.9659C33.1515 27.5893 33.1515 32.2127 33.1515 36.9762C32.8684 36.929 32.5854 36.8818 32.2937 36.8332C32.1587 36.7689 32.0237 36.7046 31.8846 36.6383C30.7808 35.9905 29.6731 35.3492 28.5767 34.6888C28.4227 34.6318 28.2686 34.5748 28.1099 34.516C27.9416 34.4417 27.7734 34.3673 27.6001 34.2907C27.439 34.1902 27.278 34.0896 27.112 33.9861C26.982 33.8406 26.8521 33.695 26.7182 33.5451C26.6836 33.4415 26.649 33.3378 26.6134 33.231C26.5928 33.112 26.5722 32.9929 26.5509 32.8703C26.5385 32.7404 26.5261 32.6106 26.5134 32.4769C26.5014 32.1896 26.4931 31.9027 26.4878 31.6153C26.4894 31.14 26.5002 30.6651 26.5116 30.1899C26.5149 29.5148 26.515 28.8396 26.52 28.1645C26.5315 27.4561 26.5462 26.7479 26.5574 26.0396C26.5728 23.631 26.2347 20.9007 26.7182 18.534C26.7683 18.4236 26.8184 18.3131 26.87 18.1992C26.9315 18.097 26.9931 17.9948 27.0565 17.8895C27.1808 17.7248 27.305 17.5601 27.433 17.3903C27.5703 17.2825 27.7076 17.1747 27.8491 17.0636C28.3304 16.7922 28.8093 16.5165 29.2915 16.2466C29.8609 15.9088 30.4263 15.5639 31.0071 15.2459C31.1486 15.1987 31.2901 15.1515 31.436 15.1029C31.625 15.0821 31.8141 15.0613 32.0089 15.0398C32.1232 15.0415 32.2375 15.0431 32.3553 15.0448C32.4765 15.064 32.5977 15.0832 32.7226 15.1029C32.8427 15.1536 32.9628 15.2043 33.0866 15.2566C33.492 15.4814 33.8855 15.722 34.2773 15.9696C34.902 16.3493 35.5265 16.7291 36.1537 17.1044C40.4758 19.5695 45.6353 21.6506 49.3537 25.0109C49.5388 25.199 49.7189 25.3909 49.8977 25.585C50.122 25.8462 50.3401 26.1107 50.5544 26.3802C50.6615 26.5273 50.7685 26.6743 50.8789 26.8259C51.0328 27.0641 51.0328 27.0641 51.1899 27.3072C51.3877 27.6417 51.5796 27.9781 51.7668 28.3186C51.8512 28.4865 51.9356 28.6544 52.0226 28.8273C52.0952 28.9908 52.1678 29.1543 52.2426 29.3227C52.3621 29.6222 52.4793 29.9223 52.5933 30.224C52.6408 30.3764 52.6884 30.5288 52.7374 30.6858C52.8172 30.9909 52.8951 31.2952 52.9621 31.6033C53.4118 34.3164 53.0678 37.3235 53.068 40.0678C53.0717 41.5588 53.0749 43.0499 53.0752 44.5409C53.0803 45.7836 53.0752 45.005 53.0752 45.2196C53.0487 45.4491 53.0451 45.7116 53.0099 45.9399C52.9406 46.2949 52.9563 46.2704 52.8739 46.6226C52.7778 46.9662 52.6787 47.3072 52.563 47.6447C52.4243 47.9765 52.2822 48.3134 52.133 48.665C51.9938 48.9702 51.8514 49.2781 51.6986 49.5998C51.5639 49.8606 51.4249 50.1176 51.2797 50.3727C51.2029 50.4934 51.126 50.6141 51.0469 50.7385C50.8638 50.9927 50.6767 51.2421 50.4839 51.489C50.1464 51.892 49.8052 52.2922 49.4475 52.6774C49.3638 52.7572 49.2801 52.837 49.1939 52.9192C48.9852 53.098 48.7732 53.2707 48.5573 53.4408C48.2599 53.656 47.9591 53.8647 47.6549 54.0702C46.2494 54.9729 44.7777 55.7733 43.3269 56.5999C41.5008 57.6485 39.6781 58.703 37.8586 59.763C37.2973 60.0883 36.7364 60.4142 36.1788 60.7458C35.2482 61.3198 34.3351 61.9399 33.3729 62.459C33.2609 62.507 33.1489 62.5549 33.0336 62.6044C32.8257 62.6388 32.6178 62.6733 32.4037 62.7088C32.2465 62.6977 32.2465 62.6977 32.0862 62.6863C31.9743 62.6593 31.8623 62.6322 31.7469 62.6044C31.6181 62.5511 31.4893 62.4979 31.3565 62.4431C30.2406 61.8772 29.1273 61.2352 28.1171 60.4957C27.9316 60.3441 27.7447 60.1901 27.5497 60.0269C27.4723 59.9339 27.3949 59.8409 27.3151 59.7451C27.2406 59.6015 27.1661 59.458 27.0893 59.31C26.9888 59.03 26.9888 59.03 26.8862 58.7444C26.8687 58.5392 26.8511 58.3339 26.8331 58.1225C26.8102 55.4644 26.8264 52.8053 26.8234 50.1471C26.8176 48.6476 26.7133 50.5251 26.6277 49.0281C26.6104 48.9195 26.5931 48.811 26.5752 48.6991C26.5355 48.5815 26.4959 48.4639 26.455 48.3427C26.3599 48.1215 26.2618 47.9027 26.1587 47.6852C26.1074 47.5952 26.0562 47.5052 26.0034 47.4125C25.8928 47.28 25.7822 47.1475 25.6683 47.0109C25.543 46.9075 25.4177 46.8042 25.2886 46.6976C25.1456 46.6016 25.0026 46.5056 24.8552 46.4067C23.2903 45.492 21.7159 44.5944 20.1419 43.6954C17.6615 42.2701 15.1827 40.8415 12.7079 39.4066C11.5645 38.7388 10.4248 38.0648 9.27678 37.4051C7.15306 36.2079 4.79321 35.1589 2.84347 33.6881C2.74885 33.5967 2.65423 33.5053 2.55674 33.4112C2.3817 33.2177 2.21208 33.0215 2.04643 32.8199C1.9456 32.6835 1.9456 32.6835 1.84273 32.5444C1.7622 32.4072 1.68167 32.2701 1.59869 32.1289C1.49564 31.8871 1.38966 31.6425 1.27703 31.3873C1.22782 31.2501 1.17862 31.113 1.12792 30.9718C1.0482 30.6999 0.97027 30.4289 0.902948 30.1538C0.882834 30.0463 0.86272 29.9388 0.841997 29.8281C0.759152 28.8271 0.802562 27.8117 0.806256 26.808C0.802376 25.7653 0.793429 24.7225 0.841997 23.6807C0.860206 23.4807 0.878416 23.2807 0.897178 23.0747C0.959835 22.606 1.03315 22.1424 1.12792 21.6792C1.17713 21.4918 1.22633 21.3044 1.27703 21.1113C1.39043 20.8051 1.50769 20.4945 1.63164 20.1708C1.77293 19.8408 1.91935 19.5142 2.0717 19.1891C2.2337 18.8736 2.40069 18.5624 2.5743 18.2531C2.66313 18.1099 2.75195 17.9668 2.84347 17.8192C3.02572 17.5612 3.21233 17.309 3.40639 17.0597C3.76235 16.6395 4.12311 16.2226 4.49647 15.8178C4.59286 15.7251 4.68924 15.6324 4.78854 15.5369C4.90151 15.4408 5.01448 15.3448 5.13087 15.2459C5.43041 15.0215 5.73384 14.8057 6.04226 14.5936C7.6432 13.5413 9.32789 12.6184 10.9923 11.6718C13.5692 10.2007 16.1436 8.72541 18.7123 7.24C21.6012 5.56669 24.4768 3.62919 27.5838 2.38486C27.8692 2.28417 28.1554 2.18844 28.4438 2.09671C28.7019 2.02307 28.9602 1.95205 29.22 1.88505C29.4599 1.83296 29.7037 1.78117 29.9589 1.72813C30.1161 1.70712 30.2733 1.68611 30.4352 1.66447Z" fill="url(#paint0_linear_16_121)"/>
<path d="M84.498 17.261C84.498 15.8957 84.85 14.6903 85.554 13.645C86.258 12.5997 87.2287 11.789 88.466 11.213C89.7247 10.6157 91.1753 10.317 92.818 10.317C94.3967 10.317 95.762 10.5943 96.914 11.149C98.0873 11.7037 98.994 12.493 99.634 13.517C100.295 14.541 100.647 15.757 100.69 17.165H96.594C96.5513 16.1623 96.1887 15.3837 95.506 14.829C94.8233 14.253 93.906 13.965 92.754 13.965C91.4953 13.965 90.482 14.253 89.714 14.829C88.9673 15.3837 88.594 16.1517 88.594 17.133C88.594 17.965 88.818 18.6263 89.266 19.117C89.7353 19.5863 90.4607 19.9383 91.442 20.173L95.122 21.005C97.1273 21.4317 98.6207 22.1677 99.602 23.213C100.583 24.237 101.074 25.6237 101.074 27.373C101.074 28.8023 100.722 30.061 100.018 31.149C99.314 32.237 98.3113 33.0797 97.01 33.677C95.73 34.253 94.226 34.541 92.498 34.541C90.8553 34.541 89.4153 34.2637 88.178 33.709C86.9407 33.133 85.97 32.333 85.266 31.309C84.5833 30.285 84.2207 29.0797 84.178 27.693H88.274C88.2953 28.6743 88.6793 29.453 89.426 30.029C90.194 30.5837 91.2287 30.861 92.53 30.861C93.8953 30.861 94.9727 30.5837 95.762 30.029C96.5727 29.453 96.978 28.6957 96.978 27.757C96.978 26.9463 96.7647 26.3063 96.338 25.837C95.9113 25.3463 95.218 25.005 94.258 24.813L90.546 23.981C88.562 23.5543 87.058 22.7863 86.034 21.677C85.01 20.5463 84.498 19.0743 84.498 17.261ZM103.276 26.189C103.276 24.5463 103.638 23.1063 104.364 21.869C105.089 20.6103 106.092 19.629 107.372 18.925C108.652 18.221 110.102 17.869 111.724 17.869C113.366 17.869 114.817 18.221 116.076 18.925C117.356 19.629 118.358 20.6103 119.083 21.869C119.809 23.1063 120.172 24.5463 120.172 26.189C120.172 27.8317 119.809 29.2823 119.083 30.541C118.358 31.7783 117.356 32.749 116.076 33.453C114.817 34.157 113.366 34.509 111.724 34.509C110.102 34.509 108.652 34.157 107.372 33.453C106.092 32.749 105.089 31.7783 104.364 30.541C103.638 29.2823 103.276 27.8317 103.276 26.189ZM107.18 26.189C107.18 27.149 107.372 27.9917 107.756 28.717C108.161 29.4423 108.694 30.0077 109.356 30.413C110.038 30.8183 110.828 31.021 111.724 31.021C112.62 31.021 113.409 30.8183 114.092 30.413C114.774 30.0077 115.308 29.4423 115.692 28.717C116.076 27.9917 116.268 27.149 116.268 26.189C116.268 25.2077 116.076 24.365 115.692 23.661C115.308 22.9357 114.774 22.3703 114.092 21.965C113.409 21.5597 112.62 21.357 111.724 21.357C110.828 21.357 110.038 21.5597 109.356 21.965C108.694 22.3703 108.161 22.9357 107.756 23.661C107.372 24.365 107.18 25.2077 107.18 26.189ZM127.202 34.125H123.33V10.317H127.202V34.125ZM142.017 18.317H145.921V34.125H142.305L142.017 32.013C141.548 32.7597 140.844 33.3677 139.905 33.837C138.967 34.3063 137.964 34.541 136.897 34.541C135.084 34.541 133.665 33.965 132.641 32.813C131.617 31.661 131.105 30.125 131.105 28.205V18.317H135.009V26.829C135.009 28.3223 135.297 29.3997 135.873 30.061C136.449 30.7223 137.281 31.053 138.369 31.053C139.607 31.053 140.524 30.6903 141.121 29.965C141.719 29.2183 142.017 28.0983 142.017 26.605V18.317ZM148.713 26.189C148.713 24.5677 149.044 23.1277 149.705 21.869C150.388 20.6103 151.316 19.629 152.489 18.925C153.684 18.1997 155.06 17.837 156.617 17.837C158.772 17.837 160.532 18.4023 161.897 19.533C163.284 20.6423 164.084 22.1463 164.297 24.045H160.393C160.158 23.149 159.721 22.477 159.081 22.029C158.462 21.5597 157.684 21.325 156.745 21.325C155.934 21.325 155.209 21.5277 154.569 21.933C153.95 22.317 153.47 22.8717 153.129 23.597C152.788 24.3223 152.617 25.1863 152.617 26.189C152.617 27.1917 152.777 28.0557 153.097 28.781C153.417 29.5063 153.876 30.0717 154.473 30.477C155.092 30.861 155.817 31.053 156.649 31.053C157.63 31.053 158.441 30.8183 159.081 30.349C159.742 29.8797 160.18 29.2077 160.393 28.333H164.329C164.158 29.5703 163.721 30.6583 163.017 31.597C162.334 32.5143 161.449 33.2397 160.361 33.773C159.273 34.285 158.036 34.541 156.649 34.541C155.049 34.541 153.652 34.1997 152.457 33.517C151.262 32.813 150.334 31.8423 149.673 30.605C149.033 29.3463 148.713 27.8743 148.713 26.189ZM154.409 40.397V38.605C154.793 38.7757 155.145 38.9143 155.465 39.021C155.785 39.1277 156.148 39.181 156.553 39.181C157.086 39.181 157.492 39.0637 157.769 38.829C158.068 38.6157 158.217 38.3277 158.217 37.965C158.217 37.6023 158.1 37.325 157.865 37.133C157.63 36.9623 157.3 36.877 156.873 36.877C156.553 36.877 156.276 36.8983 156.041 36.941C155.828 36.9837 155.582 37.0583 155.305 37.165L154.921 36.077L156.425 32.909L157.609 32.941V33.933L156.521 36.109L156.265 35.853C156.692 35.5757 157.214 35.437 157.833 35.437C158.238 35.437 158.633 35.5223 159.017 35.693C159.422 35.8637 159.753 36.1303 160.009 36.493C160.265 36.877 160.393 37.357 160.393 37.933C160.393 38.9143 160.03 39.661 159.305 40.173C158.601 40.685 157.758 40.941 156.777 40.941C156.286 40.941 155.849 40.8877 155.465 40.781C155.102 40.6957 154.75 40.5677 154.409 40.397ZM166.307 26.189C166.307 24.5463 166.669 23.1063 167.395 21.869C168.12 20.6103 169.123 19.629 170.403 18.925C171.683 18.221 173.133 17.869 174.755 17.869C176.397 17.869 177.848 18.221 179.107 18.925C180.387 19.629 181.389 20.6103 182.115 21.869C182.84 23.1063 183.203 24.5463 183.203 26.189C183.203 27.8317 182.84 29.2823 182.115 30.541C181.389 31.7783 180.387 32.749 179.107 33.453C177.848 34.157 176.397 34.509 174.755 34.509C173.133 34.509 171.683 34.157 170.403 33.453C169.123 32.749 168.12 31.7783 167.395 30.541C166.669 29.2823 166.307 27.8317 166.307 26.189ZM170.211 26.189C170.211 27.149 170.403 27.9917 170.787 28.717C171.192 29.4423 171.725 30.0077 172.387 30.413C173.069 30.8183 173.859 31.021 174.755 31.021C175.651 31.021 176.44 30.8183 177.123 30.413C177.805 30.0077 178.339 29.4423 178.723 28.717C179.107 27.9917 179.299 27.149 179.299 26.189C179.299 25.2077 179.107 24.365 178.723 23.661C178.339 22.9357 177.805 22.3703 177.123 21.965C176.44 21.5597 175.651 21.357 174.755 21.357C173.859 21.357 173.069 21.5597 172.387 21.965C171.725 22.3703 171.192 22.9357 170.787 23.661C170.403 24.365 170.211 25.2077 170.211 26.189ZM171.619 16.173H169.315C169.165 14.7863 169.357 13.6877 169.891 12.877C170.445 12.0663 171.235 11.661 172.259 11.661C172.771 11.661 173.229 11.7677 173.635 11.981C174.061 12.173 174.445 12.3863 174.787 12.621C175.149 12.8557 175.491 13.069 175.811 13.261C176.131 13.453 176.451 13.549 176.771 13.549C177.197 13.549 177.496 13.3783 177.667 13.037C177.837 12.6957 177.923 12.237 177.923 11.661H180.227C180.333 13.1757 180.109 14.3063 179.555 15.053C179 15.7997 178.211 16.173 177.187 16.173C176.632 16.173 176.141 16.077 175.715 15.885C175.288 15.693 174.893 15.4797 174.531 15.245C174.189 15.0103 173.869 14.797 173.571 14.605C173.272 14.3917 172.973 14.285 172.675 14.285C172.312 14.285 172.045 14.4557 171.875 14.797C171.704 15.117 171.619 15.5757 171.619 16.173ZM193.369 34.541C191.812 34.541 190.425 34.189 189.209 33.485C188.015 32.7597 187.076 31.7783 186.393 30.541C185.711 29.2823 185.369 27.8423 185.369 26.221C185.369 24.5783 185.7 23.1277 186.361 21.869C187.023 20.6103 187.951 19.629 189.145 18.925C190.34 18.1997 191.705 17.837 193.241 17.837C194.841 17.837 196.217 18.1783 197.369 18.861C198.521 19.5223 199.407 20.4503 200.025 21.645C200.665 22.8397 200.985 24.269 200.985 25.933V27.117L187.417 27.149L187.481 24.653H197.113C197.113 23.565 196.761 22.6903 196.057 22.029C195.375 21.3677 194.447 21.037 193.273 21.037C192.356 21.037 191.577 21.229 190.937 21.613C190.319 21.997 189.849 22.573 189.529 23.341C189.209 24.109 189.049 25.0477 189.049 26.157C189.049 27.8637 189.412 29.1543 190.137 30.029C190.884 30.9037 191.983 31.341 193.433 31.341C194.5 31.341 195.375 31.1383 196.057 30.733C196.761 30.3277 197.22 29.7517 197.433 29.005H201.049C200.708 30.733 199.855 32.0877 198.489 33.069C197.145 34.0503 195.439 34.541 193.369 34.541ZM202.894 29.325H206.606C206.627 30.0077 206.883 30.5517 207.374 30.957C207.864 31.3623 208.547 31.565 209.422 31.565C210.36 31.565 211.064 31.3943 211.534 31.053C212.024 30.7117 212.27 30.253 212.27 29.677C212.27 29.293 212.142 28.9517 211.886 28.653C211.63 28.3543 211.15 28.1303 210.446 27.981L207.598 27.309C206.168 26.989 205.102 26.477 204.398 25.773C203.715 25.0477 203.374 24.0557 203.374 22.797C203.374 21.773 203.64 20.8877 204.174 20.141C204.728 19.3943 205.475 18.829 206.414 18.445C207.352 18.0397 208.43 17.837 209.646 17.837C210.819 17.837 211.854 18.0503 212.75 18.477C213.646 18.9037 214.339 19.501 214.83 20.269C215.342 21.037 215.608 21.933 215.63 22.957H211.918C211.918 22.2743 211.704 21.741 211.278 21.357C210.851 20.9517 210.254 20.749 209.486 20.749C208.718 20.749 208.12 20.9197 207.694 21.261C207.267 21.6023 207.054 22.061 207.054 22.637C207.054 23.5117 207.736 24.109 209.102 24.429L211.95 25.101C213.272 25.3997 214.264 25.8797 214.926 26.541C215.608 27.2023 215.95 28.141 215.95 29.357C215.95 30.4237 215.672 31.3517 215.118 32.141C214.563 32.909 213.784 33.5063 212.782 33.933C211.779 34.3383 210.627 34.541 209.326 34.541C207.363 34.541 205.795 34.061 204.622 33.101C203.47 32.141 202.894 30.8823 202.894 29.325Z" fill="#0069B3"/>
<path d="M93.01 67.125H86.034V44.213H92.946C95.25 44.213 97.266 44.693 98.994 45.653C100.722 46.613 102.066 47.957 103.026 49.685C103.986 51.3917 104.466 53.3863 104.466 55.669C104.466 57.9517 103.986 59.957 103.026 61.685C102.087 63.3917 100.754 64.725 99.026 65.685C97.3193 66.645 95.314 67.125 93.01 67.125ZM88.338 45.301V66.037L87.282 65.013H92.914C94.7913 65.013 96.4127 64.629 97.778 63.861C99.1433 63.093 100.199 62.0157 100.946 60.629C101.714 59.221 102.098 57.5677 102.098 55.669C102.098 53.7703 101.714 52.117 100.946 50.709C100.199 49.301 99.1327 48.2237 97.746 47.477C96.3807 46.709 94.7487 46.325 92.85 46.325H87.282L88.338 45.301ZM112.948 67.125V51.637H115.156V67.125H112.948ZM114.036 47.381C113.588 47.381 113.204 47.221 112.884 46.901C112.564 46.581 112.404 46.197 112.404 45.749C112.404 45.301 112.564 44.917 112.884 44.597C113.204 44.2557 113.588 44.085 114.036 44.085C114.484 44.085 114.868 44.2557 115.188 44.597C115.529 44.917 115.7 45.301 115.7 45.749C115.7 46.197 115.529 46.581 115.188 46.901C114.868 47.221 114.484 47.381 114.036 47.381ZM123.504 58.933C123.504 57.525 123.792 56.245 124.368 55.093C124.944 53.9197 125.776 52.981 126.864 52.277C127.952 51.573 129.254 51.221 130.768 51.221C132.24 51.221 133.499 51.5837 134.544 52.309C135.59 53.0343 136.336 54.0797 136.784 55.445L136.432 55.893L136.72 51.637H138.64V66.645C138.64 68.181 138.331 69.5143 137.712 70.645C137.094 71.797 136.219 72.6823 135.088 73.301C133.979 73.941 132.667 74.261 131.152 74.261C129.168 74.261 127.526 73.7277 126.224 72.661C124.923 71.5943 124.112 70.133 123.792 68.277H126C126.235 69.5357 126.8 70.5063 127.696 71.189C128.614 71.893 129.776 72.245 131.184 72.245C132.784 72.245 134.064 71.7543 135.024 70.773C135.984 69.7917 136.464 68.4903 136.464 66.869V62.005L136.784 62.421C136.336 63.7223 135.558 64.757 134.448 65.525C133.36 66.2717 132.08 66.645 130.608 66.645C129.136 66.645 127.867 66.293 126.8 65.589C125.734 64.885 124.912 63.957 124.336 62.805C123.782 61.6317 123.504 60.341 123.504 58.933ZM125.712 58.901C125.712 59.9677 125.915 60.9383 126.32 61.813C126.747 62.6877 127.344 63.381 128.112 63.893C128.902 64.405 129.84 64.661 130.928 64.661C132.038 64.661 132.987 64.4157 133.776 63.925C134.587 63.413 135.206 62.7303 135.632 61.877C136.059 61.0023 136.272 60.0103 136.272 58.901C136.272 57.7917 136.059 56.8103 135.632 55.957C135.227 55.1037 134.63 54.4317 133.84 53.941C133.072 53.429 132.112 53.173 130.96 53.173C129.851 53.173 128.902 53.4397 128.112 53.973C127.344 54.485 126.747 55.1783 126.32 56.053C125.915 56.9063 125.712 57.8557 125.712 58.901ZM148.048 67.125V51.637H150.256V67.125H148.048ZM149.136 47.381C148.688 47.381 148.304 47.221 147.984 46.901C147.664 46.581 147.504 46.197 147.504 45.749C147.504 45.301 147.664 44.917 147.984 44.597C148.304 44.2557 148.688 44.085 149.136 44.085C149.584 44.085 149.968 44.2557 150.288 44.597C150.629 44.917 150.8 45.301 150.8 45.749C150.8 46.197 150.629 46.581 150.288 46.901C149.968 47.221 149.584 47.381 149.136 47.381ZM157.932 51.637H166.316V53.493H157.932V51.637ZM163.212 67.125H161.036V46.741H163.212V67.125ZM178.19 67.509C176.547 67.509 175.256 67.0823 174.318 66.229C173.4 65.3757 172.942 64.277 172.942 62.933C172.942 61.5037 173.454 60.3623 174.478 59.509C175.502 58.6557 176.92 58.1543 178.734 58.005L183.854 57.589V57.077C183.854 56.053 183.672 55.253 183.31 54.677C182.947 54.0797 182.456 53.6637 181.838 53.429C181.219 53.1943 180.526 53.077 179.758 53.077C178.392 53.077 177.336 53.365 176.59 53.941C175.843 54.517 175.47 55.3277 175.47 56.373H173.454C173.454 55.3277 173.72 54.421 174.254 53.653C174.787 52.885 175.534 52.2877 176.494 51.861C177.454 51.4343 178.563 51.221 179.822 51.221C181.038 51.221 182.104 51.4343 183.022 51.861C183.939 52.2663 184.664 52.9063 185.198 53.781C185.752 54.6343 186.03 55.7437 186.03 57.109V67.125H184.174L183.886 64.405C183.416 65.3863 182.67 66.1543 181.646 66.709C180.643 67.2423 179.491 67.509 178.19 67.509ZM178.702 65.717C180.344 65.717 181.614 65.1943 182.51 64.149C183.406 63.1037 183.854 61.749 183.854 60.085V59.253L179.278 59.605C177.827 59.733 176.782 60.0957 176.141 60.693C175.502 61.2903 175.182 62.0157 175.182 62.869C175.182 63.8077 175.502 64.5223 176.141 65.013C176.782 65.4823 177.635 65.717 178.702 65.717ZM195.26 67.125V51.637H197.468V67.125H195.26ZM196.348 47.381C195.9 47.381 195.516 47.221 195.196 46.901C194.876 46.581 194.716 46.197 194.716 45.749C194.716 45.301 194.876 44.917 195.196 44.597C195.516 44.2557 195.9 44.085 196.348 44.085C196.796 44.085 197.18 44.2557 197.5 44.597C197.842 44.917 198.012 45.301 198.012 45.749C198.012 46.197 197.842 46.581 197.5 46.901C197.18 47.221 196.796 47.381 196.348 47.381ZM205.561 62.773H207.673C207.673 63.669 207.993 64.3837 208.633 64.917C209.273 65.429 210.126 65.685 211.193 65.685C212.387 65.685 213.315 65.4503 213.977 64.981C214.659 64.4903 215.001 63.829 215.001 62.997C215.001 62.357 214.819 61.845 214.457 61.461C214.094 61.077 213.454 60.7677 212.537 60.533L209.881 59.861C208.537 59.5197 207.534 58.997 206.873 58.293C206.211 57.589 205.881 56.7143 205.881 55.669C205.881 54.773 206.115 53.9943 206.585 53.333C207.054 52.6503 207.705 52.1277 208.537 51.765C209.39 51.4023 210.371 51.221 211.481 51.221C212.569 51.221 213.518 51.413 214.329 51.797C215.139 52.181 215.769 52.725 216.217 53.429C216.686 54.1117 216.931 54.933 216.953 55.893H214.809C214.787 54.9757 214.478 54.2717 213.881 53.781C213.283 53.2903 212.462 53.045 211.417 53.045C210.329 53.045 209.486 53.269 208.889 53.717C208.313 54.165 208.025 54.805 208.025 55.637C208.025 56.8317 208.867 57.6423 210.553 58.069L213.209 58.741C214.553 59.0823 215.534 59.5837 216.153 60.245C216.793 60.9063 217.113 61.7917 217.113 62.901C217.113 63.8183 216.867 64.629 216.377 65.333C215.886 66.037 215.193 66.581 214.297 66.965C213.422 67.3277 212.398 67.509 211.225 67.509C209.497 67.509 208.121 67.0823 207.097 66.229C206.073 65.3543 205.561 64.2023 205.561 62.773Z" fill="#1E3460"/>
</g>
<defs>
<linearGradient id="paint0_linear_16_121" x1="14.5118" y1="10.4558" x2="48.1129" y2="68.6542" gradientUnits="userSpaceOnUse">
<stop stop-color="#1E3460"/>
<stop offset="1" stop-color="#0069B3"/>
</linearGradient>
<clipPath id="clip0_16_121">
<rect width="220" height="77" fill="white"/>
</clipPath>
</defs>
</svg>
