<svg preserveAspectRatio="none" width="100%" height="100%" overflow="visible" style="display: block;" viewBox="0 0 354.584 91.4878" fill="none" xmlns="http://www.w3.org/2000/svg">
<g id="g2895">
<g id="g2008">
<path id="path2010" fill-rule="evenodd" clip-rule="evenodd" d="M24.1863 73.4026H14.9678L19.5218 61.093H19.6301L24.1863 73.4026ZM39.3181 90.7573L22.5069 50.6246H16.7041L0 90.7573H8.18749L12.4715 80.3983H26.8444L31.1284 90.7573H39.3181Z" fill="var(--fill-0, white)"/>
</g>
<g id="g2020">
<path id="path2022" fill-rule="evenodd" clip-rule="evenodd" d="M75.8769 73.1381V72.3552H52.3018V78.6041H67.4303C65.3823 82.7033 61.329 85.2411 56.7432 85.2411C51.4719 85.2411 47.0785 82.5065 45.0284 77.6277C44.3931 76.1144 44.0038 74.4054 44.0038 72.7466C44.0038 65.8155 49.4217 60.1538 56.401 60.1538C60.2083 60.1538 63.9663 62.0093 66.0646 65.2305H74.0706C71.5798 58.2994 63.6744 53.906 56.5486 53.906C46.1994 53.906 37.3154 62.2039 37.3154 72.6974C37.3154 83.3878 46.2497 91.4878 56.7432 91.4878C66.8453 91.4878 75.8769 83.4359 75.8769 73.1381Z" fill="var(--fill-0, white)"/>
</g>
<g id="g2024">
<path id="path2026" fill-rule="evenodd" clip-rule="evenodd" d="M105.551 77.5774V54.6375H98.8648V77.5774C98.8648 81.7761 97.498 85.2411 92.617 85.2411C87.7371 85.2411 86.3692 81.7761 86.3692 77.5774V54.6375H79.683V77.5774C79.683 80.5066 80.1204 83.9224 81.9289 86.3137C84.3683 89.6333 88.6151 91.4878 92.6673 91.4878C96.8146 91.4878 101.013 89.5841 103.454 86.1191C105.161 83.6294 105.551 80.5066 105.551 77.5774Z" fill="var(--fill-0, white)"/>
</g>
<path id="path2028" fill-rule="evenodd" clip-rule="evenodd" d="M118.437 54.6379H111.751V90.7567H118.437V54.6379Z" fill="var(--fill-0, white)"/>
<g id="g2030">
<path id="path2032" fill-rule="evenodd" clip-rule="evenodd" d="M144.012 75.139H135.715L139.816 64.0594H139.912L144.012 75.139ZM157.629 90.7573L142.499 54.6385H137.277L122.244 90.7573H129.614L133.469 81.4349H146.404L150.259 90.7573H157.629Z" fill="var(--fill-0, white)"/>
</g>
<g id="g2034">
<path id="path2036" fill-rule="evenodd" clip-rule="evenodd" d="M180.472 78.5559C180.472 82.8946 176.513 83.8152 172.987 83.8152H169.244V73.1861H173.15C176.622 73.1861 180.472 74.4873 180.472 78.5559ZM178.085 61.9065C178.085 65.4316 174.939 66.2451 172.065 66.2451H169.244V57.5678H172.337C175.21 57.5678 178.085 58.5442 178.085 61.9065ZM187.901 78.8271C187.901 73.8389 185.677 70.5291 181.013 68.8475C183.997 67.1669 185.514 64.6717 185.514 61.2012C185.514 58.4884 184.159 55.5078 182.099 53.7168C178.846 50.7875 174.614 50.6246 170.493 50.6246H161.816V90.7573H172.554C175.971 90.7573 180.037 90.3243 182.911 88.3715C186.11 86.201 187.901 82.7316 187.901 78.8271Z" fill="var(--fill-0, white)"/>
</g>
<g id="g2038">
<path id="path2040" fill-rule="evenodd" clip-rule="evenodd" d="M208.139 66.3534C208.139 70.1607 205.259 71.9178 201.696 71.9178H197.403V60.8863H201.696C205.111 60.8863 208.139 62.6434 208.139 66.3534ZM215.168 90.7573L205.357 77.433C207.798 76.848 209.506 76.2116 211.361 74.4545C213.558 72.307 214.826 68.8912 214.826 65.8165C214.826 62.4018 213.264 59.2276 210.578 57.0801C208.041 55.0311 204.968 54.6385 201.795 54.6385H190.713V90.7573H197.403V76.9453H197.499L207.066 90.7573H215.168Z" fill="var(--fill-0, white)"/>
</g>
<g id="g2042">
<path id="path2044" fill-rule="evenodd" clip-rule="evenodd" d="M237.972 75.139H229.675L233.775 64.0594H233.872L237.972 75.139ZM251.59 90.7573L236.459 54.6385H231.237L216.204 90.7573H223.573L227.429 81.4349H240.364L244.219 90.7573H251.59Z" fill="var(--fill-0, white)"/>
</g>
<g id="g2046">
<path id="path2048" fill-rule="evenodd" clip-rule="evenodd" d="M282.551 90.7573V54.6385H275.863V80.8969H275.764L260.831 54.6385H253.217V90.7573H259.903V64.4979H260L275.083 90.7573H282.551Z" fill="var(--fill-0, white)"/>
</g>
<g id="g2050">
<path id="path2052" fill-rule="evenodd" clip-rule="evenodd" d="M321.126 64.9364C318.148 58.1528 311.461 53.906 304.091 53.906C293.889 53.906 285.396 62.3494 285.396 72.5509C285.396 82.8509 293.889 91.4878 304.239 91.4878C311.266 91.4878 318.148 87.241 320.93 80.7023H313.17C310.632 83.484 307.995 85.2411 304.091 85.2411C297.405 85.2411 292.084 79.1398 292.084 72.6493C292.084 66.2539 297.21 60.1538 303.847 60.1538C307.848 60.1538 310.974 61.959 313.511 64.9364H321.126Z" fill="var(--fill-0, white)"/>
</g>
<g id="g2054">
<path id="path2056" fill-rule="evenodd" clip-rule="evenodd" d="M340.968 75.139H332.669L336.77 64.0594H336.868L340.968 75.139ZM354.584 90.7573L339.454 54.6385H334.231L319.199 90.7573H326.568L330.425 81.4349H343.359L347.215 90.7573H354.584Z" fill="var(--fill-0, white)"/>
</g>
<g id="g2058">
<path id="path2060" d="M40.4392 50.6246L32.0953 58.9685H27.726L32.8367 50.6246H40.4392Z" fill="var(--fill-0, white)"/>
</g>
<g id="g2062">
<path id="path2064" fill-rule="evenodd" clip-rule="evenodd" d="M65.4765 33.9152V33.3324H47.8616V38.0002H59.1664C57.6367 41.0639 54.6091 42.9599 51.179 42.9599C47.2405 42.9599 43.9581 40.9174 42.4251 37.2709C41.9528 36.1392 41.6619 34.8621 41.6619 33.6233C41.6619 28.4437 45.7098 24.2144 50.9243 24.2144C53.7693 24.2144 56.5772 25.6009 58.1474 28.0064H64.1272C62.2663 22.828 56.3585 19.5455 51.0358 19.5455C43.3021 19.5455 36.6629 25.7441 36.6629 33.5872C36.6629 41.5746 43.3392 47.6288 51.179 47.6288C58.7302 47.6288 65.4765 41.6106 65.4765 33.9152Z" fill="var(--fill-0, white)"/>
</g>
<g id="g2066">
<path id="path2068" fill-rule="evenodd" clip-rule="evenodd" d="M80.0522 28.8477C80.0522 31.6916 77.9003 33.0048 75.2389 33.0048H72.0287V24.7616H75.2389C77.791 24.7616 80.0522 26.0759 80.0522 28.8477ZM85.3038 47.0836L77.9725 37.1259C79.7963 36.6886 81.0734 36.2129 82.4588 34.8997C84.1 33.2957 85.048 30.7437 85.048 28.4453C85.048 25.8933 83.8813 23.5216 81.8749 21.9165C79.9789 20.3868 77.6816 20.0927 75.31 20.0927H67.0307V47.0836H72.0287V36.7607H72.1019L79.2496 47.0836H85.3038Z" fill="var(--fill-0, white)"/>
</g>
<g id="g2070">
<path id="path2072" fill-rule="evenodd" clip-rule="evenodd" d="M105.314 37.2346V20.0921H100.318V37.2346C100.318 40.3717 99.2948 42.9609 95.6482 42.9609C92.0028 42.9609 90.9804 40.3717 90.9804 37.2346V20.0921H85.9835V37.2346C85.9835 39.4237 86.3116 41.9768 87.6608 43.7634C89.4847 46.2444 92.6588 47.6297 95.6843 47.6297C98.7852 47.6297 101.921 46.2061 103.745 43.618C105.021 41.7581 105.314 39.4237 105.314 37.2346Z" fill="var(--fill-0, white)"/>
</g>
<g id="g2074">
<path id="path2076" fill-rule="evenodd" clip-rule="evenodd" d="M120.581 28.4426C120.581 31.7611 117.518 32.1263 114.929 32.1263H113.323V24.7589H115.112C117.7 24.7589 120.581 25.1613 120.581 28.4426ZM125.579 28.4426C125.579 26.036 124.887 23.8481 123.026 22.2419C120.693 20.2005 118.394 20.09 115.439 20.09H108.327V47.081H113.323V36.7952H115.439C118.394 36.7952 120.693 36.6859 123.026 34.6434C124.887 33.0404 125.579 30.8492 125.579 28.4426Z" fill="var(--fill-0, white)"/>
</g>
<g id="g2078">
<path id="path2080" fill-rule="evenodd" clip-rule="evenodd" d="M148.943 33.6233C148.943 38.6563 144.931 42.9599 139.824 42.9599C134.718 42.9599 130.707 38.6563 130.707 33.6233C130.707 28.5542 134.646 24.2144 139.824 24.2144C145.003 24.2144 148.943 28.5542 148.943 33.6233ZM153.94 33.6583C153.94 25.8185 147.63 19.5456 139.824 19.5456C132.019 19.5456 125.711 25.8185 125.711 33.6583C125.711 41.4281 132.094 47.6288 139.824 47.6288C147.556 47.6288 153.94 41.4281 153.94 33.6583Z" fill="var(--fill-0, white)"/>
</g>
<g id="g2082">
<path id="path2084" fill-rule="evenodd" clip-rule="evenodd" d="M190.664 0.000282622H253.117L253.207 46.4311C249.322 50.7413 234.553 50.8003 228.683 44.64C224.371 40.1177 224.714 31.4403 231.9 29.622C238.305 28.0005 241.942 29.5312 241.21 32.2702C248.735 27.5784 243.824 16.5557 229.75 18.2406L222.667 20.7992L217.887 18.6255L229.48 17.9454C229.367 12.9966 226.855 10.9126 219.203 11.0635C206.968 11.304 196.107 21.6904 190.664 17.2227V0.000282622Z" fill="var(--fill-0, white)"/>
</g>
</g>
</svg>
