<svg width="219" height="77" viewBox="0 0 219 77" fill="none" xmlns="http://www.w3.org/2000/svg">
<g clip-path="url(#clip0_16_127)">
<path d="M29.9352 1.66447C30.9806 1.59875 32.0352 1.5963 33.0804 1.66447C33.3104 1.69369 33.5383 1.72744 33.7667 1.76722C33.9707 1.81293 34.1747 1.85863 34.3849 1.90572C34.6774 1.98533 34.6774 1.98533 34.9758 2.06655C35.3038 2.17065 35.6306 2.27718 35.9564 2.38822C36.0924 2.44129 36.2284 2.49437 36.3685 2.54905C37.4934 3.05469 38.584 3.63017 39.6567 4.23779C40.9495 4.98986 42.2283 5.76558 43.5167 6.52519C44.8476 7.29365 46.1884 8.04466 47.5196 8.81259C48.9277 9.6402 50.3186 10.499 51.7398 11.304C53.8735 12.4877 56.1927 13.5673 58.091 15.1108C58.3072 15.3059 58.3072 15.3059 58.5277 15.505C58.77 15.7488 59.0082 15.9952 59.2425 16.2466C59.4712 16.4739 59.6974 16.703 59.9216 16.9346C60.0742 17.1094 60.0742 17.1093 60.2299 17.2876C60.3286 17.4158 60.4274 17.5441 60.5292 17.6763C60.6309 17.8311 60.7326 17.9859 60.8375 18.1454C61.037 18.4819 61.2297 18.8205 61.4171 19.164C61.5015 19.3335 61.5859 19.5031 61.6729 19.6777C61.7455 19.8414 61.8181 20.005 61.8929 20.1736C62.0125 20.473 62.1297 20.7729 62.2436 21.0744C62.2912 21.2268 62.3387 21.3792 62.3877 21.5362C62.4962 21.964 62.598 22.3883 62.6736 22.8229C62.6858 23.0331 62.6979 23.2432 62.7104 23.4597C62.7169 24.234 62.7156 25.0085 62.7152 25.7828C62.727 29.9487 62.7237 34.1147 62.7272 38.2807C62.7349 42.4455 62.7473 46.6102 62.7431 50.7749C62.7491 51.7983 62.7731 52.826 62.6736 53.8458C62.637 54.0622 62.596 54.2768 62.5497 54.4914C62.4996 54.6834 62.4494 54.8754 62.3977 55.0732C62.3045 55.3812 62.2072 55.6862 62.1018 55.9902C62.026 56.1839 61.9503 56.3776 61.8723 56.5771C61.7156 56.8823 61.5541 57.1914 61.3836 57.5131C61.2904 57.671 61.1971 57.829 61.101 57.9917C61.0019 58.1422 60.9028 58.2928 60.8006 58.4479C60.6963 58.5922 60.592 58.7365 60.4845 58.8852C60.0716 59.4053 59.652 59.9203 59.2068 60.4131C59.0863 60.529 58.9657 60.6449 58.8416 60.7644C58.6154 60.9487 58.6154 60.9487 58.3848 61.1368C56.1731 62.6939 53.7299 63.9517 51.3796 65.2828C47.8914 67.2679 44.4224 69.2863 40.9433 71.2872C39.558 72.0908 38.1813 72.9442 36.7125 73.5891C36.5224 73.6639 36.3322 73.7387 36.1362 73.8158C35.9576 73.8757 35.7791 73.9356 35.5951 73.9973C35.2657 74.093 34.9318 74.1898 34.5821 74.2911C34.4138 74.3318 34.2456 74.3725 34.0722 74.4145C33.8979 74.4453 33.7235 74.476 33.5439 74.5077C33.3438 74.53 33.1436 74.5523 32.9374 74.5753C31.8418 74.6501 30.7445 74.6622 29.6493 74.5753C29.4285 74.5454 29.2096 74.5113 28.9903 74.4715C28.7979 74.4261 28.6055 74.3808 28.4073 74.3341C28.2263 74.2808 28.0454 74.2276 27.8589 74.1727C27.4136 74.0211 26.9696 73.8695 26.5309 73.6997C25.2989 73.1512 24.1054 72.5193 22.9301 71.859C21.6358 71.1094 20.3578 70.3323 19.0701 69.5716C17.74 68.8018 16.4008 68.0478 15.0671 67.2842C13.9212 66.6209 12.7805 65.9486 11.636 65.2828C9.53013 64.0691 7.36838 62.9167 5.34568 61.5657C5.1918 61.4544 5.03792 61.3431 4.87938 61.2284C4.61575 61.0198 4.35783 60.8074 4.1037 60.5873C3.89615 60.3938 3.68705 60.1968 3.4693 59.9887C3.37495 59.8899 3.28059 59.7911 3.18338 59.6894C3.09363 59.5834 3.00388 59.4774 2.91141 59.3682C2.77181 59.1822 2.77181 59.1822 2.6294 58.9924C2.52011 58.8315 2.41083 58.6706 2.29824 58.5049C2.07082 58.1426 1.84683 57.7799 1.63536 57.4081C1.53879 57.2233 1.44223 57.0384 1.34273 56.848C1.26681 56.6705 1.19088 56.493 1.11265 56.3102C0.993541 55.9861 0.87794 55.6615 0.766975 55.3346C0.599827 54.7479 0.44845 54.1606 0.341997 53.5598C0.322596 53.2524 0.322596 53.2524 0.302803 52.9387C0.277387 51.0641 0.284747 49.1889 0.27945 47.3142C0.271169 46.1699 0.264673 45.0257 0.262139 43.8814C0.254086 43.1508 0.244307 42.4193 0.254113 41.6888C0.297615 41.4083 0.297615 41.4083 0.341997 41.1221C0.508719 40.8748 0.508719 40.8747 0.67881 40.6224C0.80355 40.5042 0.928289 40.3861 1.05681 40.2643C1.19382 40.2361 1.33082 40.2078 1.47198 40.1788C1.61804 40.207 1.7641 40.2352 1.91458 40.2643C2.13906 40.3703 2.13906 40.3703 2.36808 40.4784C3.40639 41.1209 4.44641 41.7606 5.48254 42.4067C5.74726 42.582 6.01509 42.7588 6.2968 42.9438C6.40753 43.0503 6.51826 43.1568 6.63234 43.2665C6.66123 43.4001 6.69012 43.5336 6.71988 43.6711C6.709 45.8696 6.70594 48.0687 6.71332 50.2672C6.70733 50.8165 6.70781 51.3643 6.72455 51.9134C6.7413 52.0793 6.75805 52.2452 6.77531 52.4161C6.81571 52.5805 6.85612 52.7449 6.89776 52.9143C6.99318 53.2069 7.09275 53.4967 7.19927 53.7854C7.24807 53.8997 7.29687 54.014 7.34716 54.1317C7.43156 54.2889 7.51596 54.4461 7.60293 54.608C7.77808 54.8447 7.95071 55.0828 8.12116 55.3229C8.24316 55.4487 8.36516 55.5746 8.49086 55.7043C8.63813 55.8199 8.63813 55.8199 8.78837 55.9379C9.15932 56.2041 9.53645 56.4581 9.92048 56.705C11.1418 57.449 12.3959 58.1401 13.6375 58.8494C16.1172 60.276 18.5989 61.6997 21.0716 63.1383C23.2936 64.4445 25.4851 65.823 27.7796 67C28.0671 67.1368 28.3578 67.2736 28.6648 67.4149C28.8009 67.4661 28.9371 67.5174 29.0774 67.5702C29.2558 67.6232 29.4342 67.6763 29.618 67.731C29.8171 67.7723 30.0161 67.8136 30.2211 67.8561C30.4325 67.8719 30.6439 67.8878 30.8617 67.9041C31.5544 67.9177 32.2465 67.9102 32.9374 67.8561C33.1005 67.8303 33.2636 67.8045 33.4317 67.7779C33.5752 67.7388 33.7188 67.6998 33.8667 67.6595C34.0119 67.6072 34.1571 67.5548 34.3067 67.5009C34.4682 67.4294 34.6296 67.3579 34.7959 67.2842C35.8248 66.7949 36.8225 66.2488 37.8114 65.6837C38.5254 65.2703 39.2322 64.8447 39.9426 64.425C42.0948 63.1733 44.2574 61.9393 46.4133 60.694C49.1087 59.1345 52.4289 57.71 54.7146 55.5557C54.7935 55.4632 54.8724 55.3707 54.9537 55.2754C55.0443 55.1475 55.135 55.0196 55.2284 54.8878C55.4003 54.6115 55.5689 54.334 55.7338 54.0535C55.8509 53.7915 55.9655 53.5306 56.0677 53.2625C56.1493 53.005 56.2226 52.7468 56.2917 52.4856C56.337 52.2389 56.337 52.2389 56.3833 51.9873C56.3966 51.7954 56.4099 51.6036 56.4236 51.4059C56.4454 50.7007 56.443 49.9955 56.441 49.29C56.4523 45.5696 56.4454 41.8492 56.4458 38.1288C56.451 34.4087 56.4624 30.6885 56.455 26.9683C56.4591 26.2611 56.4636 25.5543 56.4362 24.8475C56.41 24.553 56.41 24.553 56.3833 24.2525C56.3428 24.077 56.3024 23.9015 56.2607 23.7207C56.1671 23.4319 56.0687 23.1473 55.9605 22.8638C55.9113 22.7559 55.8621 22.6481 55.8114 22.537C55.722 22.3781 55.6327 22.2193 55.5406 22.0556C55.3571 21.8157 55.1755 21.5745 54.9955 21.3319C54.8874 21.2106 54.7792 21.0893 54.6677 20.9644C54.5133 20.8223 54.3589 20.6802 54.1998 20.5338C54.0246 20.388 53.8474 20.2459 53.667 20.1066C53.4921 19.9903 53.3172 19.8741 53.137 19.7542C51.2383 18.5965 49.3052 17.4966 47.3766 16.3896C44.8978 14.9615 42.4172 13.5362 39.9426 12.1007C37.923 10.9196 35.8824 9.48334 33.6791 8.66963C33.5685 8.64143 33.4579 8.61324 33.344 8.58419C33.2098 8.5652 33.0757 8.54622 32.9374 8.52667C32.7414 8.51211 32.5453 8.49755 32.3432 8.48255C31.8946 8.46486 31.4484 8.46368 30.9996 8.4792C30.7899 8.49486 30.5802 8.51053 30.3641 8.52667C30.2045 8.55265 30.0449 8.57864 29.8805 8.60541C29.6643 8.66373 29.6643 8.66373 29.4438 8.72324C29.296 8.77631 29.1482 8.82939 28.9959 8.88407C28.8341 8.95484 28.6723 9.0256 28.5056 9.09852C26.3809 10.0955 24.3823 11.3474 22.3582 12.5296C21.0265 13.2965 19.6892 14.0539 18.3553 14.817C17.1154 15.5303 15.8787 16.2491 14.6382 16.9615C12.6309 18.1033 10.4868 19.1486 8.63382 20.5355C8.52988 20.6266 8.42594 20.7176 8.31885 20.8114C8.23113 20.9032 8.14341 20.9949 8.05303 21.0895C7.98024 21.1811 7.90745 21.2727 7.83245 21.367C7.76666 21.4701 7.70087 21.5731 7.63308 21.6792C7.56287 21.8132 7.49265 21.9472 7.42031 22.0852C7.24089 22.4698 7.0728 22.8565 6.91827 23.2518C6.87109 23.3933 6.82391 23.5349 6.77531 23.6807C6.70169 24.6726 6.69564 25.6886 6.72972 26.6824C6.74477 26.8241 6.75981 26.9658 6.77531 27.1118C6.80675 27.2437 6.8382 27.3756 6.87059 27.5116C6.91378 27.6345 6.95698 27.7575 7.00148 27.8841C7.0544 27.9991 7.10733 28.1141 7.16186 28.2325C7.22301 28.3345 7.28416 28.4364 7.34716 28.5414C7.48758 28.692 7.62801 28.8425 7.77269 28.9977C7.85954 29.0635 7.94638 29.1293 8.03586 29.1971C9.37339 30.0633 10.8183 30.7654 12.2079 31.5436C13.4081 32.2436 14.5894 32.9753 15.7819 33.6881C17.0164 34.4107 18.2599 35.1177 19.499 35.8325C20.6427 36.4996 21.7822 37.1739 22.9301 37.834C24.1189 38.5057 25.3146 39.165 26.5041 39.8354C27.7916 40.5682 29.0881 41.2915 30.3341 42.0937C30.5704 42.2532 30.8092 42.4147 31.0597 42.5845C31.1604 42.6681 31.2611 42.7516 31.3648 42.8377C31.4554 42.9545 31.546 43.0713 31.6393 43.1917C31.78 43.4082 31.9144 43.6264 32.0434 43.8501C32.183 44.1752 32.3156 44.5023 32.4457 44.8313C32.4832 44.9592 32.5208 45.087 32.5595 45.2187C32.5899 45.3765 32.6202 45.5343 32.6515 45.6969C32.6639 45.896 32.6763 46.0952 32.6891 46.3003C32.7066 47.0422 32.6998 47.784 32.6934 48.526C32.6842 51.6812 32.8394 51.4433 32.8195 54.5985C34.2198 53.8171 35.6329 53.0545 37.0104 52.2334C37.5191 51.9248 38.0263 51.6139 38.538 51.3103C40.4498 50.2052 42.4811 49.199 44.2565 47.8792C44.3608 47.7863 44.4651 47.6935 44.5726 47.5978C44.6599 47.5049 44.7473 47.412 44.8373 47.3163C44.9103 47.224 44.9833 47.1316 45.0584 47.0365C45.2014 46.8201 45.3351 46.601 45.465 46.3764C45.588 46.1399 45.7075 45.9025 45.823 45.6622C45.9233 45.4224 46.0229 45.1824 46.1219 44.9421C46.1668 44.7791 46.2117 44.6161 46.258 44.4481C46.2764 44.131 46.2764 44.131 46.2953 43.8074C46.3136 41.6295 46.1345 42.8444 46.1347 40.6664C46.1384 39.339 46.1416 38.0116 46.1419 36.6841C46.1464 35.7149 46.167 34.7423 46.1296 33.7737C46.1165 33.6511 46.1035 33.5285 46.09 33.4021C46.0596 33.2612 46.0291 33.1203 45.9978 32.9752C45.8951 32.5898 45.7869 32.208 45.6611 31.8295C45.597 31.6873 45.5328 31.545 45.4668 31.3984C45.3339 31.185 45.2029 30.9707 45.0736 30.7551C44.9844 30.6379 44.8952 30.5207 44.8033 30.3999C44.5941 30.1625 44.5941 30.1625 44.3806 29.9202C44.2928 29.8346 44.205 29.749 44.1145 29.6607C44.0116 29.5744 43.9086 29.4881 43.8026 29.3992C43.6792 29.3171 43.5558 29.235 43.4286 29.1505C42.3282 28.4955 41.2004 27.8851 40.0856 27.2547C38.9394 26.5918 37.7986 25.9197 36.6545 25.2533C35.3335 24.4984 34.0125 23.7436 32.6515 22.9659C32.6515 27.5893 32.6515 32.2127 32.6515 36.9762C32.3684 36.929 32.0854 36.8818 31.7937 36.8332C31.6587 36.7689 31.5237 36.7046 31.3846 36.6383C30.2808 35.9905 29.1731 35.3492 28.0767 34.6888C27.9227 34.6318 27.7686 34.5748 27.6099 34.516C27.4416 34.4417 27.2734 34.3673 27.1001 34.2907C26.939 34.1902 26.778 34.0896 26.612 33.9861C26.482 33.8406 26.3521 33.695 26.2182 33.5451C26.1836 33.4415 26.149 33.3378 26.1134 33.231C26.0928 33.112 26.0722 32.9929 26.0509 32.8703C26.0385 32.7404 26.0261 32.6106 26.0134 32.4769C26.0014 32.1896 25.9931 31.9027 25.9878 31.6153C25.9894 31.14 26.0002 30.6651 26.0116 30.1899C26.0149 29.5148 26.015 28.8396 26.02 28.1645C26.0315 27.4561 26.0462 26.7479 26.0574 26.0396C26.0728 23.631 25.7347 20.9007 26.2182 18.534C26.2683 18.4236 26.3184 18.3131 26.37 18.1992C26.4315 18.097 26.4931 17.9948 26.5565 17.8895C26.6808 17.7248 26.805 17.5601 26.933 17.3903C27.0703 17.2825 27.2076 17.1747 27.3491 17.0636C27.8304 16.7922 28.3093 16.5165 28.7915 16.2466C29.3609 15.9088 29.9263 15.5639 30.5071 15.2459C30.6486 15.1987 30.7901 15.1515 30.936 15.1029C31.125 15.0821 31.3141 15.0613 31.5089 15.0398C31.6232 15.0415 31.7375 15.0431 31.8553 15.0448C31.9765 15.064 32.0977 15.0832 32.2226 15.1029C32.3427 15.1536 32.4628 15.2043 32.5866 15.2566C32.992 15.4814 33.3855 15.722 33.7773 15.9696C34.402 16.3493 35.0265 16.7291 35.6537 17.1044C39.9758 19.5695 45.1353 21.6506 48.8537 25.0109C49.0388 25.199 49.2189 25.3909 49.3977 25.585C49.622 25.8462 49.8401 26.1107 50.0544 26.3802C50.1615 26.5273 50.2685 26.6743 50.3789 26.8259C50.5328 27.0641 50.5328 27.0641 50.6899 27.3072C50.8877 27.6417 51.0796 27.9781 51.2668 28.3186C51.3512 28.4865 51.4356 28.6544 51.5226 28.8273C51.5952 28.9908 51.6678 29.1543 51.7426 29.3227C51.8621 29.6222 51.9793 29.9223 52.0933 30.224C52.1408 30.3764 52.1884 30.5288 52.2374 30.6858C52.3172 30.9909 52.3951 31.2952 52.4621 31.6033C52.9118 34.3164 52.5678 37.3235 52.568 40.0678C52.5717 41.5588 52.5749 43.0499 52.5752 44.5409C52.5803 45.7836 52.5752 45.005 52.5752 45.2196C52.5487 45.4491 52.5451 45.7116 52.5099 45.9399C52.4406 46.2949 52.4563 46.2704 52.3739 46.6226C52.2778 46.9662 52.1787 47.3072 52.063 47.6447C51.9243 47.9765 51.7822 48.3134 51.633 48.665C51.4938 48.9702 51.3514 49.2781 51.1986 49.5998C51.0639 49.8606 50.9249 50.1176 50.7797 50.3727C50.7029 50.4934 50.626 50.6141 50.5469 50.7385C50.3638 50.9927 50.1767 51.2421 49.9839 51.489C49.6464 51.892 49.3052 52.2922 48.9475 52.6774C48.8638 52.7572 48.7801 52.837 48.6939 52.9192C48.4852 53.098 48.2732 53.2707 48.0573 53.4408C47.7599 53.656 47.4591 53.8647 47.1549 54.0702C45.7494 54.9729 44.2777 55.7733 42.8269 56.5999C41.0008 57.6485 39.1781 58.703 37.3586 59.763C36.7973 60.0883 36.2364 60.4142 35.6788 60.7458C34.7482 61.3198 33.8351 61.9399 32.8729 62.459C32.7609 62.507 32.6489 62.5549 32.5336 62.6044C32.3257 62.6388 32.1178 62.6733 31.9037 62.7088C31.7465 62.6977 31.7465 62.6977 31.5862 62.6863C31.4743 62.6593 31.3623 62.6322 31.2469 62.6044C31.1181 62.5511 30.9893 62.4979 30.8565 62.4431C29.7406 61.8772 28.6273 61.2352 27.6171 60.4957C27.4316 60.3441 27.2447 60.1901 27.0497 60.0269C26.9723 59.9339 26.8949 59.8409 26.8151 59.7451C26.7406 59.6015 26.6661 59.458 26.5893 59.31C26.4888 59.03 26.4888 59.03 26.3862 58.7444C26.3687 58.5392 26.3511 58.3339 26.3331 58.1225C26.3102 55.4644 26.3264 52.8053 26.3234 50.1471C26.3176 48.6476 26.2133 50.5251 26.1277 49.0281C26.1104 48.9195 26.0931 48.811 26.0752 48.6991C26.0355 48.5815 25.9959 48.4639 25.955 48.3427C25.8599 48.1215 25.7618 47.9027 25.6587 47.6852C25.6074 47.5952 25.5562 47.5052 25.5034 47.4125C25.3928 47.28 25.2822 47.1475 25.1683 47.0109C25.043 46.9075 24.9177 46.8042 24.7886 46.6976C24.6456 46.6016 24.5026 46.5056 24.3552 46.4067C22.7903 45.492 21.2159 44.5944 19.6419 43.6954C17.1615 42.2701 14.6827 40.8415 12.2079 39.4066C11.0645 38.7388 9.92482 38.0648 8.77678 37.4051C6.65306 36.2079 4.29321 35.1589 2.34347 33.6881C2.24885 33.5967 2.15423 33.5053 2.05674 33.4112C1.8817 33.2177 1.71208 33.0215 1.54643 32.8199C1.4456 32.6835 1.4456 32.6835 1.34273 32.5444C1.2622 32.4072 1.18167 32.2701 1.09869 32.1289C0.99564 31.8871 0.889663 31.6425 0.777027 31.3873C0.727822 31.2501 0.678617 31.113 0.627921 30.9718C0.548197 30.6999 0.47027 30.4289 0.402948 30.1538C0.382834 30.0463 0.36272 29.9388 0.341997 29.8281C0.259152 28.8271 0.302562 27.8117 0.306256 26.808C0.302376 25.7653 0.293429 24.7225 0.341997 23.6807C0.360206 23.4807 0.378416 23.2807 0.397178 23.0747C0.459835 22.606 0.533153 22.1424 0.627921 21.6792C0.677126 21.4918 0.726331 21.3044 0.777027 21.1113C0.890435 20.8051 1.00769 20.4945 1.13164 20.1708C1.27293 19.8408 1.41935 19.5142 1.5717 19.1891C1.7337 18.8736 1.90069 18.5624 2.0743 18.2531C2.16313 18.1099 2.25195 17.9668 2.34347 17.8192C2.52572 17.5612 2.71233 17.309 2.90639 17.0597C3.26235 16.6395 3.62311 16.2226 3.99647 15.8178C4.09286 15.7251 4.18924 15.6324 4.28854 15.5369C4.40151 15.4408 4.51448 15.3448 4.63087 15.2459C4.93041 15.0215 5.23384 14.8057 5.54226 14.5936C7.1432 13.5413 8.82789 12.6184 10.4923 11.6718C13.0692 10.2007 15.6436 8.72541 18.2123 7.24C21.1012 5.56669 23.9768 3.62919 27.0838 2.38486C27.3692 2.28417 27.6554 2.18844 27.9438 2.09671C28.2019 2.02307 28.4602 1.95205 28.72 1.88505C28.9599 1.83296 29.2037 1.78117 29.4589 1.72813C29.6161 1.70712 29.7733 1.68611 29.9352 1.66447Z" fill="#FDFBF4"/>
<path d="M83.998 17.261C83.998 15.8957 84.35 14.6903 85.054 13.645C85.758 12.5997 86.7287 11.789 87.966 11.213C89.2247 10.6157 90.6753 10.317 92.318 10.317C93.8967 10.317 95.262 10.5943 96.414 11.149C97.5873 11.7037 98.494 12.493 99.134 13.517C99.7953 14.541 100.147 15.757 100.19 17.165H96.094C96.0513 16.1623 95.6887 15.3837 95.006 14.829C94.3233 14.253 93.406 13.965 92.254 13.965C90.9953 13.965 89.982 14.253 89.214 14.829C88.4673 15.3837 88.094 16.1517 88.094 17.133C88.094 17.965 88.318 18.6263 88.766 19.117C89.2353 19.5863 89.9607 19.9383 90.942 20.173L94.622 21.005C96.6273 21.4317 98.1207 22.1677 99.102 23.213C100.083 24.237 100.574 25.6237 100.574 27.373C100.574 28.8023 100.222 30.061 99.518 31.149C98.814 32.237 97.8113 33.0797 96.51 33.677C95.23 34.253 93.726 34.541 91.998 34.541C90.3553 34.541 88.9153 34.2637 87.678 33.709C86.4407 33.133 85.47 32.333 84.766 31.309C84.0833 30.285 83.7207 29.0797 83.678 27.693H87.774C87.7953 28.6743 88.1793 29.453 88.926 30.029C89.694 30.5837 90.7287 30.861 92.03 30.861C93.3953 30.861 94.4727 30.5837 95.262 30.029C96.0727 29.453 96.478 28.6957 96.478 27.757C96.478 26.9463 96.2647 26.3063 95.838 25.837C95.4113 25.3463 94.718 25.005 93.758 24.813L90.046 23.981C88.062 23.5543 86.558 22.7863 85.534 21.677C84.51 20.5463 83.998 19.0743 83.998 17.261ZM102.776 26.189C102.776 24.5463 103.138 23.1063 103.864 21.869C104.589 20.6103 105.592 19.629 106.872 18.925C108.152 18.221 109.602 17.869 111.224 17.869C112.866 17.869 114.317 18.221 115.576 18.925C116.856 19.629 117.858 20.6103 118.583 21.869C119.309 23.1063 119.672 24.5463 119.672 26.189C119.672 27.8317 119.309 29.2823 118.583 30.541C117.858 31.7783 116.856 32.749 115.576 33.453C114.317 34.157 112.866 34.509 111.224 34.509C109.602 34.509 108.152 34.157 106.872 33.453C105.592 32.749 104.589 31.7783 103.864 30.541C103.138 29.2823 102.776 27.8317 102.776 26.189ZM106.68 26.189C106.68 27.149 106.872 27.9917 107.256 28.717C107.661 29.4423 108.194 30.0077 108.856 30.413C109.538 30.8183 110.328 31.021 111.224 31.021C112.12 31.021 112.909 30.8183 113.592 30.413C114.274 30.0077 114.808 29.4423 115.192 28.717C115.576 27.9917 115.768 27.149 115.768 26.189C115.768 25.2077 115.576 24.365 115.192 23.661C114.808 22.9357 114.274 22.3703 113.592 21.965C112.909 21.5597 112.12 21.357 111.224 21.357C110.328 21.357 109.538 21.5597 108.856 21.965C108.194 22.3703 107.661 22.9357 107.256 23.661C106.872 24.365 106.68 25.2077 106.68 26.189ZM126.702 34.125H122.83V10.317H126.702V34.125ZM141.517 18.317H145.421V34.125H141.805L141.517 32.013C141.048 32.7597 140.344 33.3677 139.405 33.837C138.467 34.3063 137.464 34.541 136.397 34.541C134.584 34.541 133.165 33.965 132.141 32.813C131.117 31.661 130.605 30.125 130.605 28.205V18.317H134.509V26.829C134.509 28.3223 134.797 29.3997 135.373 30.061C135.949 30.7223 136.781 31.053 137.869 31.053C139.107 31.053 140.024 30.6903 140.621 29.965C141.219 29.2183 141.517 28.0983 141.517 26.605V18.317ZM148.213 26.189C148.213 24.5677 148.544 23.1277 149.205 21.869C149.888 20.6103 150.816 19.629 151.989 18.925C153.184 18.1997 154.56 17.837 156.117 17.837C158.272 17.837 160.032 18.4023 161.397 19.533C162.784 20.6423 163.584 22.1463 163.797 24.045H159.893C159.658 23.149 159.221 22.477 158.581 22.029C157.962 21.5597 157.184 21.325 156.245 21.325C155.434 21.325 154.709 21.5277 154.069 21.933C153.45 22.317 152.97 22.8717 152.629 23.597C152.288 24.3223 152.117 25.1863 152.117 26.189C152.117 27.1917 152.277 28.0557 152.597 28.781C152.917 29.5063 153.376 30.0717 153.973 30.477C154.592 30.861 155.317 31.053 156.149 31.053C157.13 31.053 157.941 30.8183 158.581 30.349C159.242 29.8797 159.68 29.2077 159.893 28.333H163.829C163.658 29.5703 163.221 30.6583 162.517 31.597C161.834 32.5143 160.949 33.2397 159.861 33.773C158.773 34.285 157.536 34.541 156.149 34.541C154.549 34.541 153.152 34.1997 151.957 33.517C150.762 32.813 149.834 31.8423 149.173 30.605C148.533 29.3463 148.213 27.8743 148.213 26.189ZM153.909 40.397V38.605C154.293 38.7757 154.645 38.9143 154.965 39.021C155.285 39.1277 155.648 39.181 156.053 39.181C156.586 39.181 156.992 39.0637 157.269 38.829C157.568 38.6157 157.717 38.3277 157.717 37.965C157.717 37.6023 157.6 37.325 157.365 37.133C157.13 36.9623 156.8 36.877 156.373 36.877C156.053 36.877 155.776 36.8983 155.541 36.941C155.328 36.9837 155.082 37.0583 154.805 37.165L154.421 36.077L155.925 32.909L157.109 32.941V33.933L156.021 36.109L155.765 35.853C156.192 35.5757 156.714 35.437 157.333 35.437C157.738 35.437 158.133 35.5223 158.517 35.693C158.922 35.8637 159.253 36.1303 159.509 36.493C159.765 36.877 159.893 37.357 159.893 37.933C159.893 38.9143 159.53 39.661 158.805 40.173C158.101 40.685 157.258 40.941 156.277 40.941C155.786 40.941 155.349 40.8877 154.965 40.781C154.602 40.6957 154.25 40.5677 153.909 40.397ZM165.807 26.189C165.807 24.5463 166.169 23.1063 166.895 21.869C167.62 20.6103 168.623 19.629 169.903 18.925C171.183 18.221 172.633 17.869 174.255 17.869C175.897 17.869 177.348 18.221 178.607 18.925C179.887 19.629 180.889 20.6103 181.615 21.869C182.34 23.1063 182.703 24.5463 182.703 26.189C182.703 27.8317 182.34 29.2823 181.615 30.541C180.889 31.7783 179.887 32.749 178.607 33.453C177.348 34.157 175.897 34.509 174.255 34.509C172.633 34.509 171.183 34.157 169.903 33.453C168.623 32.749 167.62 31.7783 166.895 30.541C166.169 29.2823 165.807 27.8317 165.807 26.189ZM169.711 26.189C169.711 27.149 169.903 27.9917 170.287 28.717C170.692 29.4423 171.225 30.0077 171.887 30.413C172.569 30.8183 173.359 31.021 174.255 31.021C175.151 31.021 175.94 30.8183 176.623 30.413C177.305 30.0077 177.839 29.4423 178.223 28.717C178.607 27.9917 178.799 27.149 178.799 26.189C178.799 25.2077 178.607 24.365 178.223 23.661C177.839 22.9357 177.305 22.3703 176.623 21.965C175.94 21.5597 175.151 21.357 174.255 21.357C173.359 21.357 172.569 21.5597 171.887 21.965C171.225 22.3703 170.692 22.9357 170.287 23.661C169.903 24.365 169.711 25.2077 169.711 26.189ZM171.119 16.173H168.815C168.665 14.7863 168.857 13.6877 169.391 12.877C169.945 12.0663 170.735 11.661 171.759 11.661C172.271 11.661 172.729 11.7677 173.135 11.981C173.561 12.173 173.945 12.3863 174.287 12.621C174.649 12.8557 174.991 13.069 175.311 13.261C175.631 13.453 175.951 13.549 176.271 13.549C176.697 13.549 176.996 13.3783 177.167 13.037C177.337 12.6957 177.423 12.237 177.423 11.661H179.727C179.833 13.1757 179.609 14.3063 179.055 15.053C178.5 15.7997 177.711 16.173 176.687 16.173C176.132 16.173 175.641 16.077 175.215 15.885C174.788 15.693 174.393 15.4797 174.031 15.245C173.689 15.0103 173.369 14.797 173.071 14.605C172.772 14.3917 172.473 14.285 172.175 14.285C171.812 14.285 171.545 14.4557 171.375 14.797C171.204 15.117 171.119 15.5757 171.119 16.173ZM192.869 34.541C191.312 34.541 189.925 34.189 188.709 33.485C187.515 32.7597 186.576 31.7783 185.893 30.541C185.211 29.2823 184.869 27.8423 184.869 26.221C184.869 24.5783 185.2 23.1277 185.861 21.869C186.523 20.6103 187.451 19.629 188.645 18.925C189.84 18.1997 191.205 17.837 192.741 17.837C194.341 17.837 195.717 18.1783 196.869 18.861C198.021 19.5223 198.907 20.4503 199.525 21.645C200.165 22.8397 200.485 24.269 200.485 25.933V27.117L186.917 27.149L186.981 24.653H196.613C196.613 23.565 196.261 22.6903 195.557 22.029C194.875 21.3677 193.947 21.037 192.773 21.037C191.856 21.037 191.077 21.229 190.437 21.613C189.819 21.997 189.349 22.573 189.029 23.341C188.709 24.109 188.549 25.0477 188.549 26.157C188.549 27.8637 188.912 29.1543 189.637 30.029C190.384 30.9037 191.483 31.341 192.933 31.341C194 31.341 194.875 31.1383 195.557 30.733C196.261 30.3277 196.72 29.7517 196.933 29.005H200.549C200.208 30.733 199.355 32.0877 197.989 33.069C196.645 34.0503 194.939 34.541 192.869 34.541ZM202.394 29.325H206.106C206.127 30.0077 206.383 30.5517 206.874 30.957C207.364 31.3623 208.047 31.565 208.922 31.565C209.86 31.565 210.564 31.3943 211.034 31.053C211.524 30.7117 211.77 30.253 211.77 29.677C211.77 29.293 211.642 28.9517 211.386 28.653C211.13 28.3543 210.65 28.1303 209.946 27.981L207.098 27.309C205.668 26.989 204.602 26.477 203.898 25.773C203.215 25.0477 202.874 24.0557 202.874 22.797C202.874 21.773 203.14 20.8877 203.674 20.141C204.228 19.3943 204.975 18.829 205.914 18.445C206.852 18.0397 207.93 17.837 209.146 17.837C210.319 17.837 211.354 18.0503 212.25 18.477C213.146 18.9037 213.839 19.501 214.33 20.269C214.842 21.037 215.108 21.933 215.13 22.957H211.418C211.418 22.2743 211.204 21.741 210.778 21.357C210.351 20.9517 209.754 20.749 208.986 20.749C208.218 20.749 207.62 20.9197 207.194 21.261C206.767 21.6023 206.554 22.061 206.554 22.637C206.554 23.5117 207.236 24.109 208.602 24.429L211.45 25.101C212.772 25.3997 213.764 25.8797 214.426 26.541C215.108 27.2023 215.45 28.141 215.45 29.357C215.45 30.4237 215.172 31.3517 214.618 32.141C214.063 32.909 213.284 33.5063 212.282 33.933C211.279 34.3383 210.127 34.541 208.826 34.541C206.863 34.541 205.295 34.061 204.122 33.101C202.97 32.141 202.394 30.8823 202.394 29.325Z" fill="#FDFBF4"/>
<path d="M92.51 67.125H85.534V44.213H92.446C94.75 44.213 96.766 44.693 98.494 45.653C100.222 46.613 101.566 47.957 102.526 49.685C103.486 51.3917 103.966 53.3863 103.966 55.669C103.966 57.9517 103.486 59.957 102.526 61.685C101.587 63.3917 100.254 64.725 98.526 65.685C96.8193 66.645 94.814 67.125 92.51 67.125ZM87.838 45.301V66.037L86.782 65.013H92.414C94.2913 65.013 95.9127 64.629 97.278 63.861C98.6433 63.093 99.6993 62.0157 100.446 60.629C101.214 59.221 101.598 57.5677 101.598 55.669C101.598 53.7703 101.214 52.117 100.446 50.709C99.6993 49.301 98.6327 48.2237 97.246 47.477C95.8807 46.709 94.2487 46.325 92.35 46.325H86.782L87.838 45.301ZM112.448 67.125V51.637H114.656V67.125H112.448ZM113.536 47.381C113.088 47.381 112.704 47.221 112.384 46.901C112.064 46.581 111.904 46.197 111.904 45.749C111.904 45.301 112.064 44.917 112.384 44.597C112.704 44.2557 113.088 44.085 113.536 44.085C113.984 44.085 114.368 44.2557 114.688 44.597C115.029 44.917 115.2 45.301 115.2 45.749C115.2 46.197 115.029 46.581 114.688 46.901C114.368 47.221 113.984 47.381 113.536 47.381ZM123.004 58.933C123.004 57.525 123.292 56.245 123.868 55.093C124.444 53.9197 125.276 52.981 126.364 52.277C127.452 51.573 128.754 51.221 130.268 51.221C131.74 51.221 132.999 51.5837 134.044 52.309C135.09 53.0343 135.836 54.0797 136.284 55.445L135.932 55.893L136.22 51.637H138.14V66.645C138.14 68.181 137.831 69.5143 137.212 70.645C136.594 71.797 135.719 72.6823 134.588 73.301C133.479 73.941 132.167 74.261 130.652 74.261C128.668 74.261 127.026 73.7277 125.724 72.661C124.423 71.5943 123.612 70.133 123.292 68.277H125.5C125.735 69.5357 126.3 70.5063 127.196 71.189C128.114 71.893 129.276 72.245 130.684 72.245C132.284 72.245 133.564 71.7543 134.524 70.773C135.484 69.7917 135.964 68.4903 135.964 66.869V62.005L136.284 62.421C135.836 63.7223 135.058 64.757 133.948 65.525C132.86 66.2717 131.58 66.645 130.108 66.645C128.636 66.645 127.367 66.293 126.3 65.589C125.234 64.885 124.412 63.957 123.836 62.805C123.282 61.6317 123.004 60.341 123.004 58.933ZM125.212 58.901C125.212 59.9677 125.415 60.9383 125.82 61.813C126.247 62.6877 126.844 63.381 127.612 63.893C128.402 64.405 129.34 64.661 130.428 64.661C131.538 64.661 132.487 64.4157 133.276 63.925C134.087 63.413 134.706 62.7303 135.132 61.877C135.559 61.0023 135.772 60.0103 135.772 58.901C135.772 57.7917 135.559 56.8103 135.132 55.957C134.727 55.1037 134.13 54.4317 133.34 53.941C132.572 53.429 131.612 53.173 130.46 53.173C129.351 53.173 128.402 53.4397 127.612 53.973C126.844 54.485 126.247 55.1783 125.82 56.053C125.415 56.9063 125.212 57.8557 125.212 58.901ZM147.548 67.125V51.637H149.756V67.125H147.548ZM148.636 47.381C148.188 47.381 147.804 47.221 147.484 46.901C147.164 46.581 147.004 46.197 147.004 45.749C147.004 45.301 147.164 44.917 147.484 44.597C147.804 44.2557 148.188 44.085 148.636 44.085C149.084 44.085 149.468 44.2557 149.788 44.597C150.129 44.917 150.3 45.301 150.3 45.749C150.3 46.197 150.129 46.581 149.788 46.901C149.468 47.221 149.084 47.381 148.636 47.381ZM157.432 51.637H165.816V53.493H157.432V51.637ZM162.712 67.125H160.536V46.741H162.712V67.125ZM177.69 67.509C176.047 67.509 174.756 67.0823 173.818 66.229C172.9 65.3757 172.442 64.277 172.442 62.933C172.442 61.5037 172.954 60.3623 173.978 59.509C175.002 58.6557 176.42 58.1543 178.234 58.005L183.354 57.589V57.077C183.354 56.053 183.172 55.253 182.81 54.677C182.447 54.0797 181.956 53.6637 181.338 53.429C180.719 53.1943 180.026 53.077 179.258 53.077C177.892 53.077 176.836 53.365 176.09 53.941C175.343 54.517 174.97 55.3277 174.97 56.373H172.954C172.954 55.3277 173.22 54.421 173.754 53.653C174.287 52.885 175.034 52.2877 175.994 51.861C176.954 51.4343 178.063 51.221 179.322 51.221C180.538 51.221 181.604 51.4343 182.522 51.861C183.439 52.2663 184.164 52.9063 184.698 53.781C185.252 54.6343 185.53 55.7437 185.53 57.109V67.125H183.674L183.386 64.405C182.916 65.3863 182.17 66.1543 181.146 66.709C180.143 67.2423 178.991 67.509 177.69 67.509ZM178.202 65.717C179.844 65.717 181.114 65.1943 182.01 64.149C182.906 63.1037 183.354 61.749 183.354 60.085V59.253L178.778 59.605C177.327 59.733 176.282 60.0957 175.641 60.693C175.002 61.2903 174.682 62.0157 174.682 62.869C174.682 63.8077 175.002 64.5223 175.641 65.013C176.282 65.4823 177.135 65.717 178.202 65.717ZM194.76 67.125V51.637H196.968V67.125H194.76ZM195.848 47.381C195.4 47.381 195.016 47.221 194.696 46.901C194.376 46.581 194.216 46.197 194.216 45.749C194.216 45.301 194.376 44.917 194.696 44.597C195.016 44.2557 195.4 44.085 195.848 44.085C196.296 44.085 196.68 44.2557 197 44.597C197.342 44.917 197.512 45.301 197.512 45.749C197.512 46.197 197.342 46.581 197 46.901C196.68 47.221 196.296 47.381 195.848 47.381ZM205.061 62.773H207.173C207.173 63.669 207.493 64.3837 208.133 64.917C208.773 65.429 209.626 65.685 210.693 65.685C211.887 65.685 212.815 65.4503 213.477 64.981C214.159 64.4903 214.501 63.829 214.501 62.997C214.501 62.357 214.319 61.845 213.957 61.461C213.594 61.077 212.954 60.7677 212.037 60.533L209.381 59.861C208.037 59.5197 207.034 58.997 206.373 58.293C205.711 57.589 205.381 56.7143 205.381 55.669C205.381 54.773 205.615 53.9943 206.085 53.333C206.554 52.6503 207.205 52.1277 208.037 51.765C208.89 51.4023 209.871 51.221 210.981 51.221C212.069 51.221 213.018 51.413 213.829 51.797C214.639 52.181 215.269 52.725 215.717 53.429C216.186 54.1117 216.431 54.933 216.453 55.893H214.309C214.287 54.9757 213.978 54.2717 213.381 53.781C212.783 53.2903 211.962 53.045 210.917 53.045C209.829 53.045 208.986 53.269 208.389 53.717C207.813 54.165 207.525 54.805 207.525 55.637C207.525 56.8317 208.367 57.6423 210.053 58.069L212.709 58.741C214.053 59.0823 215.034 59.5837 215.653 60.245C216.293 60.9063 216.613 61.7917 216.613 62.901C216.613 63.8183 216.367 64.629 215.877 65.333C215.386 66.037 214.693 66.581 213.797 66.965C212.922 67.3277 211.898 67.509 210.725 67.509C208.997 67.509 207.621 67.0823 206.597 66.229C205.573 65.3543 205.061 64.2023 205.061 62.773Z" fill="#FDFBF4"/>
</g>
<defs>
<clipPath id="clip0_16_127">
<rect width="219" height="77" fill="white"/>
</clipPath>
</defs>
</svg>
