<svg width="227" height="23" viewBox="0 0 227 23" fill="none" xmlns="http://www.w3.org/2000/svg">
<path d="M14.4488 14.0425H10.7766L14.4488 7.82011V14.0425ZM19.6095 21.1481V0.655424H13.4616L0 21.2226H6.63502L8.47821 17.9784H14.3755V21.2226H19.5953L19.6095 21.1481ZM120.604 14.0425H116.933L120.604 7.82011V14.0425ZM106.554 7.99746V8.02701C106.554 11.153 102.368 10.4744 102.368 10.4744V5.25572L103.783 5.22616C106.731 5.22616 106.554 7.99746 106.554 7.99746ZM125.795 21.2214L125.764 21.1469V0.655424H119.617L109.144 16.6566L107.645 14.6029C107.645 14.6029 111.715 12.8342 111.715 7.5269V7.46779C111.715 7.46779 111.037 0.686164 104.933 0.686164H97.1631V21.2226H102.369V15.6209L105.789 21.2226H112.793L114.636 17.9784H120.533L120.549 21.2226H125.798L125.795 21.2214ZM74.8308 14.0532H71.1598L74.8308 7.83075V14.0532ZM79.969 21.2332L79.9915 0.666065H73.8436L65.5864 13.2823L65.5498 0.666065H60.2129L60.2271 21.2332H67.017L68.8602 17.989H74.7575L74.7788 21.2037L79.969 21.2332ZM126.796 21.2226H132.03V10.4235L138.369 21.2226H144.046V0.803211H138.813V12.3034L131.992 0.803211H126.723V21.2226M58.7835 0.684982H53.5354V13.2977C53.5354 13.2977 53.5637 16.5833 50.7049 16.6294C50.6104 16.6294 50.6269 16.6223 50.6269 16.6223C50.6269 16.6223 48.0803 16.5407 48.0803 13.209V0.684982H42.8616V13.9184C42.8616 13.9184 42.9503 21.2297 50.7049 21.2297H50.6458C50.6458 21.2297 58.3709 21.731 58.7847 13.8876M30.8294 9.67867V13.8368H35.9606C35.9606 13.8368 35.4877 16.7842 31.3898 16.7842C31.3898 16.7842 26.3474 17.2855 25.7278 11.419C25.7278 11.419 25.3743 6.31742 30.269 5.25572C30.269 5.25572 33.8076 4.51797 35.8128 7.46779H41.7396C41.7396 7.46779 40.2653 1.01011 32.1855 0.124576C32.1855 0.124576 24.9026 -0.642732 21.5414 5.99229C21.5414 5.99229 18.9462 10.4152 21.4527 15.8112C21.4527 15.8112 24.0183 21.8255 31.0943 21.8563C31.0943 21.8563 37.2576 22.5042 40.6779 16.7854C40.6779 16.7854 42.624 14.2494 42.2409 9.67986L30.8294 9.6503M170.217 8.55786V14.7803H166.546L170.217 8.55786ZM169.303 1.24421L169.228 1.39199L160.415 14.8583C160.214 15.1066 158.632 16.9368 155.827 17.0195C155.827 17.0195 150.931 17.0786 150.195 11.4166C150.195 11.4166 149.93 6.22756 155.62 5.46026C155.62 5.46026 160.339 5.34203 161.578 9.67749L164.879 4.66458C164.879 4.66458 161.636 -0.199372 155.827 0.00634634C155.827 0.00634634 146.479 -0.169816 144.857 9.91395C144.857 9.91395 143.501 20.9707 155.561 22.1199C155.561 22.1199 160.67 22.4971 164.12 18.7516L164.245 18.7137H170.142L170.158 21.958H175.406L175.391 21.9201H188.168C196.94 21.9201 199.262 15.4341 199.262 15.4341H175.524V14.9186H201.031C210.909 14.9186 212.717 8.24692 212.717 8.24692H175.524V7.76809H216.807C224.032 7.76809 226.648 1.24421 226.648 1.24421H169.303ZM96.2764 14.5142C96.2764 14.4941 96.2752 14.4776 96.274 14.4587C96.2539 14.0815 96.0328 11.7252 93.6233 10.3573C93.6233 10.3573 96.2917 8.76594 95.3187 4.78399C95.3187 4.78399 94.6625 1.01484 89.7158 0.686164C89.2737 0.656607 82.3147 0.656607 82.3147 0.656607V21.2226H90.7775C90.7775 21.2226 96.5719 20.8833 96.2764 14.5154V14.5142ZM87.5452 5.16587L88.6482 5.14813C90.9454 5.14813 90.8083 6.97123 90.8083 6.97123V6.99133C90.8083 9.0497 87.5452 8.60279 87.5452 8.60279V5.16587ZM91.2635 14.7874V14.8122C91.2635 17.2784 87.5452 16.7429 87.5452 16.7429V12.6249L88.8019 12.6025C91.4195 12.6025 91.2623 14.7874 91.2623 14.7874H91.2635Z" fill="white"/>
</svg>
