<svg preserveAspectRatio="xMidYMid meet" width="100%" height="100%" overflow="visible" style="display: block;" viewBox="0 0 186.714 80.1196" fill="none" xmlns="http://www.w3.org/2000/svg">
<path id="path2096" d="M0 0.000221558C3.49018 3.42764 4.21257 5.95626 4.21257 14.5791V57.8829C4.21257 76.4445 16.5736 80.1191 26.6688 80.1191H39.5338C47.7815 80.1191 55.3148 78.4067 61.9265 74.914L61.9424 74.8992C68.6426 71.3972 83.269 63.43 83.2691 40.0596C83.2691 19.0843 68.639 8.7323 61.9424 5.23218L61.9265 5.2174C55.3184 1.72654 47.7856 -4.7519e-05 39.5338 9.80872e-10L0 0.000221558ZM66.3126 0.000221558C66.5291 0.161895 66.7361 0.336455 66.9312 0.523419L66.9523 0.548234L66.9682 0.563018C73.8432 4.61077 79.6202 10.8136 83.547 16.3538C84.2858 17.3963 84.9326 18.4758 85.537 19.5719H105.251V65.531C105.058 76.4123 111.254 80.1196 118.16 80.1196H130.849C128.296 79.5089 127.625 76.4292 127.622 74.4475V19.5715H156.796V13.1391C156.796 8.23345 153.928 0.000274358 144.447 0.000221558H66.3126ZM156.796 19.5715L156.796 19.7444C156.909 19.6819 156.975 19.6333 157.092 19.5715H156.796ZM157.994 0.000221558C160.94 1.63247 163.158 5.17367 163.422 10.6184V52.5873C163.422 52.6822 163.443 52.7704 163.448 52.8635V66.0292C163.448 72.5742 165.68 80.1191 175.064 80.1191H183.129C185.111 80.1226 186.717 78.5167 186.714 76.5349L186.687 66.0292V10.4961C186.687 4.44247 182.389 0.000221558 176.553 0.000221558H172.798H166.615H157.994ZM26.0209 19.8478C27.1595 20.1313 27.7751 20.1754 29.5317 20.1754H39.5338C46.5104 20.1754 59.1158 23.9012 59.4107 39.314C59.7121 55.0756 46.5294 59.9439 39.5362 59.9439H32.7492C28.6797 59.9439 27.62 57.4794 27.6198 53.4136L27.6174 24.7694C27.6172 22.004 26.9534 20.5402 26.0209 19.8478Z" fill="var(--fill-0, white)"/>
</svg>
