<svg preserveAspectRatio="none" width="100%" height="100%" overflow="visible" style="display: block;" viewBox="0 0 114.767 134.087" fill="none" xmlns="http://www.w3.org/2000/svg">
<path id="Vector" d="M54.51 0.0921992C56.4296 -0.0284733 58.3662 -0.0329722 60.2854 0.0921992C60.7077 0.145857 61.1262 0.207827 61.5456 0.280883C61.9203 0.364807 62.2949 0.44873 62.6808 0.535197C63.2179 0.681386 63.2179 0.681386 63.7658 0.830529C64.3681 1.02168 64.9683 1.2173 65.5665 1.42119C65.8162 1.51865 66.0659 1.61611 66.3232 1.71652C68.3887 2.64502 70.3914 3.70176 72.3611 4.81751C74.7351 6.19851 77.0833 7.62294 79.4491 9.01778C81.893 10.4289 84.3551 11.8079 86.7996 13.2181C89.3853 14.7378 91.9393 16.3147 94.549 17.793C98.467 19.9665 102.726 21.9489 106.212 24.7832C106.608 25.1415 106.608 25.1415 107.013 25.5071C107.458 25.9547 107.896 26.4073 108.326 26.8689C108.746 27.2862 109.161 27.7069 109.573 28.1323C109.853 28.4531 109.853 28.4531 110.139 28.7804C110.32 29.0159 110.502 29.2515 110.689 29.4941C110.875 29.7784 111.062 30.0626 111.255 30.3555C111.621 30.9734 111.975 31.5953 112.319 32.2259C112.474 32.5373 112.629 32.8486 112.789 33.1694C112.922 33.4699 113.055 33.7704 113.193 34.08C113.412 34.6296 113.628 35.1803 113.837 35.734C113.924 36.0139 114.011 36.2937 114.101 36.5821C114.301 37.3675 114.488 38.1466 114.626 38.9447C114.649 39.3306 114.671 39.7165 114.694 40.1141C114.706 41.5359 114.703 42.958 114.703 44.3798C114.724 52.0296 114.718 59.6795 114.725 67.3294C114.739 74.977 114.762 82.6245 114.754 90.2721C114.765 92.1512 114.809 94.0385 114.626 95.911C114.559 96.3084 114.484 96.7024 114.399 97.0965C114.307 97.4491 114.215 97.8016 114.12 98.1649C113.949 98.7304 113.77 99.2905 113.576 99.8487C113.437 100.204 113.298 100.56 113.155 100.926C112.867 101.487 112.571 102.054 112.258 102.645C112.086 102.935 111.915 103.225 111.739 103.524C111.557 103.8 111.375 104.077 111.187 104.362C110.995 104.627 110.804 104.892 110.607 105.165C109.848 106.12 109.078 107.065 108.26 107.97C108.039 108.183 107.818 108.396 107.59 108.615C107.175 108.954 107.175 108.954 106.751 109.299C102.69 112.159 98.2033 114.468 93.8876 116.912C87.4823 120.558 81.1124 124.264 74.7238 127.938C72.1799 129.414 69.6519 130.981 66.9549 132.165C66.6057 132.302 66.2565 132.44 65.8967 132.581C65.5687 132.691 65.2408 132.801 64.903 132.915C64.2981 133.09 63.6851 133.268 63.0428 133.454C62.7338 133.529 62.4249 133.604 62.1066 133.681C61.7864 133.737 61.4663 133.794 61.1365 133.852C60.769 133.893 60.4015 133.934 60.0228 133.976C58.011 134.113 55.996 134.135 53.9849 133.976C53.5795 133.921 53.1775 133.858 52.7749 133.785C52.4216 133.702 52.0683 133.619 51.7043 133.533C51.372 133.435 51.0397 133.337 50.6973 133.237C49.8796 132.958 49.0644 132.68 48.2588 132.368C45.9965 131.361 43.8048 130.201 41.6466 128.988C39.2701 127.612 36.9233 126.185 34.5587 124.788C32.1163 123.374 29.6572 121.99 27.2082 120.588C25.1039 119.37 23.0093 118.135 20.9078 116.912C17.0408 114.684 13.0712 112.568 9.35703 110.087C9.07446 109.882 8.7919 109.678 8.50077 109.467C8.01669 109.084 7.54307 108.694 7.07641 108.29C6.6953 107.935 6.31135 107.573 5.91149 107.191C5.73823 107.01 5.56497 106.828 5.38646 106.641C5.22166 106.447 5.05686 106.252 4.88706 106.052C4.63072 105.71 4.63072 105.71 4.3692 105.362C4.16853 105.066 3.96786 104.771 3.76111 104.466C3.3435 103.801 2.9322 103.135 2.54389 102.452C2.36657 102.113 2.18925 101.774 2.00655 101.424C1.86713 101.098 1.72771 100.772 1.58406 100.436C1.36534 99.8413 1.15306 99.2452 0.949303 98.6448C0.642375 97.5675 0.364406 96.4891 0.16893 95.3859C0.133305 94.8213 0.133305 94.8213 0.0969598 94.2453C0.0502895 90.8031 0.0638046 87.3597 0.0540789 83.9172C0.0388724 81.816 0.0269443 79.715 0.0222897 77.6137C0.00750347 76.2722 -0.0104546 74.9288 0.00755276 73.5875C0.0874346 73.0724 0.0874346 73.0724 0.16893 72.5469C0.475077 72.0927 0.475077 72.0927 0.787409 71.6293C1.01646 71.4124 1.24552 71.1954 1.48152 70.9718C1.7331 70.92 1.98468 70.8681 2.24388 70.8147C2.51208 70.8665 2.78029 70.9184 3.05662 70.9718C3.46882 71.1664 3.46882 71.1664 3.88935 71.3648C5.79596 72.5447 7.70572 73.7195 9.60833 74.9057C10.0944 75.2276 10.5862 75.5523 11.1035 75.892C11.3069 76.0876 11.5102 76.2832 11.7197 76.4847C11.7727 76.7299 11.8258 76.975 11.8804 77.2276C11.8605 81.2646 11.8548 85.3027 11.8684 89.3398C11.8574 90.3485 11.8583 91.3544 11.889 92.3626C11.9198 92.6673 11.9505 92.9719 11.9822 93.2858C12.0564 93.5877 12.1306 93.8895 12.207 94.2006C12.3823 94.7379 12.5651 95.27 12.7607 95.8002C12.8503 96.01 12.9399 96.2198 13.0323 96.436C13.1873 96.7247 13.3422 97.0133 13.5019 97.3107C13.8236 97.7453 14.1405 98.1825 14.4536 98.6233C14.6776 98.8544 14.9016 99.0856 15.1324 99.3237C15.4028 99.5361 15.4028 99.536 15.6787 99.7527C16.3599 100.241 17.0524 100.708 17.7576 101.161C20.0002 102.527 22.303 103.797 24.583 105.099C29.1364 107.719 33.6934 110.333 38.2339 112.975C42.3142 115.373 46.3383 117.904 50.5517 120.066C51.0795 120.317 51.6134 120.568 52.1771 120.828C52.4271 120.922 52.6772 121.016 52.9349 121.113C53.2624 121.21 53.59 121.308 53.9275 121.408C54.293 121.484 54.6585 121.56 55.035 121.638C55.4232 121.667 55.8113 121.696 56.2112 121.726C57.4833 121.751 58.7541 121.737 60.0228 121.638C60.3223 121.59 60.6218 121.543 60.9304 121.494C61.194 121.422 61.4576 121.351 61.7292 121.277C61.9959 121.181 62.2625 121.084 62.5373 120.985C62.8337 120.854 63.1301 120.723 63.4356 120.588C65.3248 119.689 67.1568 118.686 68.9727 117.648C70.2839 116.889 71.5817 116.108 72.8862 115.337C76.8382 113.039 80.8093 110.773 84.7682 108.486C89.7176 105.622 95.8143 103.007 100.012 99.0509C100.156 98.881 100.301 98.7111 100.45 98.5361C100.617 98.3013 100.783 98.0664 100.955 97.8245C101.271 97.3171 101.58 96.8075 101.883 96.2924C102.098 95.8112 102.309 95.3322 102.496 94.8398C102.646 94.3671 102.781 93.8929 102.908 93.4134C102.991 92.9604 102.991 92.9604 103.076 92.4982C103.1 92.146 103.125 91.7937 103.15 91.4308C103.19 90.1358 103.185 88.8408 103.182 87.5453C103.202 80.7137 103.19 73.8821 103.191 67.0505C103.2 60.2193 103.221 53.388 103.207 46.5568C103.215 45.2582 103.223 43.9603 103.173 42.6624C103.125 42.1216 103.125 42.1216 103.076 41.5699C103.001 41.2476 102.927 40.9253 102.851 40.5933C102.679 40.0631 102.498 39.5405 102.299 39.0198C102.209 38.8218 102.119 38.6237 102.026 38.4197C101.861 38.128 101.697 37.8363 101.528 37.5358C101.191 37.0952 100.858 36.6523 100.527 36.2068C100.329 35.9841 100.13 35.7614 99.9254 35.532C99.6419 35.2711 99.3583 35.0102 99.0661 34.7414C98.7444 34.4736 98.4191 34.2127 98.0878 33.9569C97.7667 33.7434 97.4455 33.5298 97.1147 33.3098C93.6281 31.1839 90.0784 29.1641 86.5371 27.1315C81.9852 24.5091 77.4302 21.8919 72.8862 19.256C69.1777 17.087 65.4306 14.4497 61.3846 12.9555C61.1816 12.9038 60.9786 12.852 60.7694 12.7986C60.523 12.7638 60.2767 12.7289 60.0228 12.693C59.6628 12.6663 59.3027 12.6396 58.9317 12.612C58.1079 12.5795 57.2885 12.5774 56.4645 12.6059C56.0794 12.6346 55.6943 12.6634 55.2975 12.693C55.0045 12.7407 54.7114 12.7885 54.4095 12.8376C54.0125 12.9447 54.0125 12.9447 53.6076 13.054C53.3362 13.1514 53.0648 13.2489 52.7852 13.3493C52.488 13.4793 52.1909 13.6092 51.8848 13.7431C47.9832 15.5738 44.3133 17.8727 40.5966 20.0435C38.1511 21.4518 35.6956 22.8425 33.2461 24.2438C30.9693 25.5535 28.6984 26.8735 26.4206 28.1815C22.7346 30.2784 18.7975 32.1977 15.3949 34.7445C15.2041 34.9116 15.0132 35.0788 14.8166 35.251C14.6555 35.4196 14.4944 35.5881 14.3284 35.7617C14.1948 35.9299 14.0611 36.0981 13.9234 36.2714C13.8026 36.4605 13.6818 36.6497 13.5573 36.8446C13.4284 37.0906 13.2994 37.3366 13.1666 37.5901C12.8371 38.2964 12.5285 39.0065 12.2447 39.7323C12.1581 39.9922 12.0715 40.2521 11.9822 40.5198C11.847 42.3413 11.8359 44.207 11.8985 46.0318C11.9261 46.292 11.9537 46.5522 11.9822 46.8203C12.0399 47.0625 12.0977 47.3048 12.1572 47.5544C12.2365 47.7801 12.3158 48.0059 12.3975 48.2385C12.4947 48.4496 12.5919 48.6607 12.692 48.8782C12.8043 49.0654 12.9166 49.2526 13.0323 49.4454C13.2901 49.7219 13.548 49.9984 13.8137 50.2832C13.9731 50.4041 14.1326 50.5249 14.2969 50.6494C16.753 52.2401 19.4062 53.5293 21.9579 54.9583C24.1617 56.2436 26.3309 57.5872 28.5208 58.896C30.7876 60.223 33.071 61.5213 35.3462 62.8338C37.4465 64.0587 39.5389 65.297 41.6466 66.509C43.8296 67.7425 46.0253 68.9532 48.2096 70.1843C50.5738 71.5299 52.9545 72.8581 55.2423 74.331C55.6763 74.6239 56.1149 74.9205 56.5749 75.2323C56.7598 75.3857 56.9447 75.5391 57.1351 75.6971C57.3015 75.9117 57.4678 76.1262 57.6391 76.3472C57.8975 76.7449 58.1442 77.1455 58.3811 77.5563C58.6376 78.1532 58.8809 78.7539 59.1198 79.3581C59.1888 79.5928 59.2577 79.8275 59.3288 80.0694C59.3846 80.3591 59.4403 80.6489 59.4978 80.9475C59.5206 81.3131 59.5434 81.6788 59.5669 82.0555C59.599 83.4178 59.5865 84.78 59.5747 86.1425C59.5577 91.9363 59.8429 91.4994 59.8063 97.2931C62.3775 95.8583 64.9724 94.4579 67.5019 92.9503C68.436 92.3836 69.3674 91.8127 70.307 91.2552C73.8175 89.2258 77.5475 87.3783 80.8077 84.9548C80.9992 84.7842 81.1907 84.6137 81.3881 84.438C81.5485 84.2674 81.7089 84.0968 81.8741 83.9211C82.0082 83.7516 82.1422 83.582 82.2802 83.4074C82.5427 83.0099 82.7882 82.6076 83.0268 82.1953C83.2527 81.761 83.4721 81.325 83.6841 80.8837C83.8683 80.4435 84.0513 80.0027 84.233 79.5615C84.3155 79.2621 84.3979 78.9628 84.4829 78.6544C84.5168 78.072 84.5168 78.072 84.5514 77.4778C84.585 73.4787 84.2561 75.7094 84.2565 71.7102C84.2633 69.2726 84.2692 66.8352 84.2698 64.3976C84.278 62.6179 84.3158 60.832 84.2472 59.0534C84.2232 58.8282 84.1991 58.603 84.1744 58.371C84.1185 58.1123 84.0627 57.8536 84.0051 57.587C83.8165 56.8793 83.6179 56.1783 83.3869 55.4833C83.2691 55.2221 83.1513 54.9608 83.03 54.6917C82.7861 54.2998 82.5456 53.9062 82.3081 53.5103C82.1443 53.2951 81.9805 53.0799 81.8118 52.8581C81.4275 52.4221 81.4275 52.4221 81.0355 51.9773C80.8743 51.8201 80.7131 51.6628 80.547 51.5008C80.358 51.3423 80.1689 51.1838 79.9741 51.0205C79.7475 50.8698 79.5209 50.7191 79.2875 50.5638C77.2667 49.3611 75.1958 48.2402 73.1487 47.0828C71.0441 45.8655 68.9492 44.6312 66.8483 43.4075C64.4226 42.0214 61.997 40.6353 59.4978 39.2073C59.4978 47.6971 59.4978 56.1869 59.4978 64.9339C58.978 64.8473 58.4582 64.7607 57.9227 64.6714C57.6748 64.5533 57.4269 64.4352 57.1715 64.3135C55.1446 63.1239 53.1104 61.9463 51.0973 60.7337C50.8144 60.629 50.5315 60.5243 50.24 60.4165C49.9311 60.2799 49.6222 60.1433 49.3039 60.0026C49.0082 59.818 48.7124 59.6335 48.4077 59.4433C48.169 59.1761 47.9304 58.9089 47.6845 58.6335C47.621 58.4432 47.5575 58.2529 47.4921 58.0568C47.4542 57.8382 47.4164 57.6196 47.3774 57.3944C47.3546 57.156 47.3318 56.9176 47.3084 56.672C47.2865 56.1446 47.2711 55.6177 47.2614 55.0899C47.2643 54.2171 47.2842 53.3451 47.3051 52.4726C47.3113 51.2328 47.3115 49.993 47.3205 48.7532C47.3417 47.4526 47.3687 46.152 47.3892 44.8514C47.4175 40.4286 46.7967 35.415 47.6845 31.0692C47.7765 30.8663 47.8685 30.6635 47.9632 30.4544C48.0763 30.2667 48.1893 30.0791 48.3058 29.8857C48.5339 29.5832 48.7621 29.2807 48.9971 28.9691C49.2492 28.7711 49.5013 28.5732 49.7611 28.3692C50.645 27.8708 51.5243 27.3645 52.4098 26.8689C53.4554 26.2485 54.4936 25.6153 55.56 25.0313C55.8199 24.9447 56.0798 24.8581 56.3476 24.7688C56.6948 24.7306 57.042 24.6923 57.3997 24.6529C57.6096 24.6559 57.8195 24.6589 58.0358 24.662C58.2583 24.6973 58.4809 24.7325 58.7103 24.7688C58.9308 24.8619 59.1514 24.955 59.3786 25.0509C60.1231 25.4638 60.8455 25.9056 61.5651 26.3603C62.7121 27.0575 63.8589 27.7549 65.0107 28.4441C72.9471 32.9706 82.4214 36.792 89.2494 42.9625C89.5893 43.3079 89.9199 43.6602 90.2482 44.0167C90.6601 44.4964 91.0606 44.9821 91.4541 45.4769C91.6507 45.7469 91.8474 46.017 92.0499 46.2952C92.3327 46.7328 92.3327 46.7328 92.6211 47.1792C92.9842 47.7933 93.3367 48.4111 93.6804 49.0363C93.8354 49.3446 93.9904 49.6528 94.1501 49.9705C94.2834 50.2706 94.4167 50.5708 94.5541 50.88C94.7736 51.4301 94.9888 51.9811 95.1981 52.5351C95.2854 52.815 95.3727 53.0948 95.4627 53.3832C95.6092 53.9434 95.7522 54.5021 95.8753 55.0679C96.701 60.0499 96.0693 65.5717 96.0697 70.6109C96.0766 73.3489 96.0825 76.0868 96.0831 78.8248C96.0924 81.1067 96.0831 79.677 96.0831 80.071C96.0343 80.4924 96.0277 80.9744 95.9631 81.3936C95.8359 82.0456 95.8647 82.0006 95.7133 82.6473C95.537 83.2782 95.355 83.9043 95.1425 84.5241C94.8877 85.1335 94.6269 85.7521 94.3529 86.3976C94.0973 86.9582 93.8357 87.5234 93.5551 88.1142C93.3079 88.5932 93.0526 89.065 92.786 89.5335C92.6449 89.7551 92.5038 89.9768 92.3584 90.2051C92.0223 90.6719 91.6787 91.1299 91.3248 91.5833C90.7049 92.3233 90.0784 93.0582 89.4215 93.7655C89.2679 93.912 89.1143 94.0586 88.956 94.2095C88.5726 94.5378 88.1833 94.8549 87.7869 95.1673C87.2408 95.5626 86.6886 95.9458 86.1298 96.323C83.549 97.9807 80.8466 99.4505 78.1825 100.968C74.8293 102.894 71.4823 104.83 68.1412 106.777C67.1105 107.374 66.0805 107.972 65.0566 108.581C63.3479 109.635 61.6712 110.774 59.9043 111.727C59.6987 111.815 59.4931 111.903 59.2813 111.994C58.8996 112.057 58.5178 112.121 58.1246 112.186C57.836 112.165 57.836 112.165 57.5416 112.145C57.336 112.095 57.1304 112.045 56.9186 111.994C56.6821 111.896 56.4455 111.799 56.2018 111.698C54.1526 110.659 52.1083 109.48 50.2533 108.122C49.9126 107.844 49.5695 107.561 49.2113 107.261C49.0692 107.09 48.927 106.92 48.7806 106.744C48.6438 106.48 48.5069 106.216 48.3659 105.945C48.1814 105.431 48.1814 105.431 47.993 104.906C47.9608 104.529 47.9286 104.152 47.8954 103.764C47.8535 98.8833 47.8832 94.0004 47.8777 89.1192C47.8671 86.3657 47.6755 89.8133 47.5184 87.0644C47.4866 86.8651 47.4548 86.6657 47.422 86.4603C47.3491 86.2444 47.2763 86.0284 47.2012 85.8059C47.0266 85.3997 46.8464 84.9979 46.6571 84.5985C46.563 84.4332 46.4689 84.268 46.3719 84.0977C46.1689 83.8544 45.9659 83.6111 45.7567 83.3604C45.5266 83.1705 45.2964 82.9807 45.0594 82.7851C44.7968 82.6088 44.5342 82.4325 44.2636 82.2508C41.39 80.5713 38.499 78.9231 35.6087 77.2722C31.054 74.6549 26.5024 72.0317 21.9579 69.3967C19.8584 68.1705 17.7655 66.9329 15.6574 65.7215C11.7577 63.5232 7.42441 61.597 3.84417 58.896C3.67042 58.7283 3.49667 58.5605 3.31766 58.3877C2.99624 58.0323 2.68476 57.6721 2.38059 57.3018C2.19544 57.0514 2.19544 57.0514 2.00655 56.7959C1.85867 56.5441 1.71079 56.2924 1.55843 56.033C1.36919 55.589 1.17459 55.1399 0.967762 54.6712C0.877409 54.4194 0.787055 54.1676 0.693964 53.9082C0.547569 53.409 0.404474 52.9114 0.280853 52.4062C0.243919 52.2088 0.206984 52.0114 0.16893 51.8081C0.0168062 49.97 0.0965181 48.1055 0.103301 46.2624C0.096176 44.3478 0.0797468 42.433 0.16893 40.5198C0.202368 40.1526 0.235807 39.7854 0.270258 39.407C0.385313 38.5465 0.519945 37.6952 0.693964 36.8446C0.784318 36.5004 0.874671 36.1563 0.967762 35.8017C1.17601 35.2395 1.39132 34.6692 1.61893 34.0748C1.87838 33.4688 2.14725 32.8691 2.42699 32.2721C2.72447 31.6927 3.0311 31.1213 3.3499 30.5534C3.51301 30.2905 3.67612 30.0275 3.84417 29.7566C4.17883 29.2829 4.52149 28.8197 4.87783 28.362C5.53148 27.5903 6.19393 26.8249 6.87952 26.0814C7.05651 25.9112 7.23349 25.741 7.41584 25.5656C7.62328 25.3893 7.83072 25.213 8.04444 25.0313C8.59448 24.6193 9.15165 24.2229 9.71799 23.8336C12.6578 21.9012 15.7513 20.2065 18.8076 18.4684C23.5395 15.7669 28.2667 13.058 32.9836 10.3304C38.2884 7.25771 43.5687 3.69996 49.274 1.41504C49.7981 1.23014 50.3236 1.05436 50.8532 0.885903C51.3271 0.750689 51.8014 0.620281 52.2786 0.497255C52.7191 0.401587 53.1668 0.306499 53.6353 0.209101C53.9239 0.170524 54.2126 0.131946 54.51 0.0921992Z" fill="var(--fill-0, #FDFBF4)"/>
</svg>
