<svg preserveAspectRatio="none" width="100%" height="100%" overflow="visible" style="display: block;" viewBox="0 0 75.0023 87.6288" fill="none" xmlns="http://www.w3.org/2000/svg">
<path id="Vector" d="M35.6234 0.060254C36.8779 -0.0186079 38.1435 -0.021548 39.3977 0.060254C39.6737 0.0953203 39.9472 0.135819 40.2213 0.183563C40.4661 0.238409 40.7109 0.293254 40.9632 0.349762C41.3141 0.4453 41.3141 0.4453 41.6722 0.542767C42.0659 0.667689 42.4581 0.795529 42.849 0.928778C43.0122 0.992469 43.1754 1.05616 43.3436 1.12178C44.6934 1.72858 46.0022 2.41917 47.2895 3.14834C48.8409 4.05085 50.3755 4.98174 51.9216 5.8933C53.5187 6.81548 55.1278 7.71672 56.7253 8.63827C58.4151 9.63143 60.0842 10.662 61.7897 11.6281C64.3502 13.0485 67.1333 14.344 69.4114 16.1963C69.6708 16.4305 69.6708 16.4305 69.9354 16.6694C70.2262 16.9619 70.512 17.2577 70.7932 17.5594C71.0677 17.8321 71.3391 18.107 71.6081 18.385C71.7912 18.5947 71.7912 18.5947 71.9781 18.8086C72.0966 18.9625 72.2151 19.1164 72.3373 19.275C72.4593 19.4608 72.5814 19.6465 72.7072 19.8379C72.9466 20.2418 73.1779 20.6482 73.4028 21.0603C73.5041 21.2638 73.6054 21.4672 73.7097 21.6768C73.7969 21.8732 73.884 22.0696 73.9738 22.2719C74.1173 22.6312 74.2579 22.9911 74.3946 23.3529C74.4517 23.5358 74.5088 23.7187 74.5676 23.9071C74.6977 24.4204 74.8199 24.9296 74.9107 25.4512C74.9252 25.7034 74.9398 25.9556 74.9548 26.2154C74.9626 27.1445 74.961 28.0739 74.9605 29.0031C74.9747 34.0024 74.9708 39.0018 74.975 44.0011C74.9842 48.9989 74.9991 53.9968 74.994 58.9946C75.0013 60.2227 75.03 61.456 74.9107 62.6797C74.8667 62.9395 74.8175 63.197 74.762 63.4545C74.7018 63.6849 74.6416 63.9153 74.5796 64.1527C74.4677 64.5223 74.3509 64.8884 74.2244 65.2531C74.1335 65.4856 74.0426 65.718 73.949 65.9575C73.761 66.3237 73.5672 66.6946 73.3626 67.0807C73.2507 67.2702 73.1388 67.4597 73.0235 67.655C72.9045 67.8357 72.7855 68.0164 72.663 68.2025C72.5378 68.3757 72.4126 68.5488 72.2837 68.7272C71.7882 69.3514 71.2846 69.9694 70.7503 70.5608C70.6057 70.6999 70.4611 70.839 70.312 70.9823C70.0407 71.2036 70.0407 71.2036 69.7639 71.4293C67.1097 73.2978 64.1778 74.8072 61.3574 76.4046C57.1715 78.7868 53.0086 81.2089 48.8335 83.6101C47.171 84.5745 45.5189 85.5986 43.7564 86.3725C43.5282 86.4623 43.2999 86.5521 43.0648 86.6446C42.8505 86.7164 42.6362 86.7883 42.4154 86.8624C42.0201 86.9772 41.6195 87.0934 41.1997 87.2149C40.9978 87.2637 40.7959 87.3126 40.5879 87.363C40.3787 87.3999 40.1695 87.4368 39.9539 87.4749C39.7138 87.5016 39.4736 87.5284 39.2261 87.556C37.9114 87.6457 36.5945 87.6602 35.2802 87.556C35.0153 87.5201 34.7526 87.4791 34.4895 87.4313C34.2586 87.3769 34.0277 87.3225 33.7898 87.2665C33.5726 87.2026 33.3555 87.1386 33.1317 87.0728C32.5973 86.8909 32.0646 86.7089 31.5381 86.5052C30.0596 85.847 28.6273 85.0887 27.2169 84.2963C25.6638 83.3968 24.1301 82.4642 22.5848 81.5514C20.9886 80.6275 19.3816 79.7227 17.7811 78.8064C16.4059 78.0104 15.0371 77.2036 13.6637 76.4046C11.1365 74.9481 8.54232 73.5652 6.11501 71.944C5.93035 71.8104 5.74568 71.6768 5.55543 71.5392C5.23907 71.2889 4.92955 71.0339 4.62458 70.7699C4.37551 70.5376 4.12459 70.3013 3.86328 70.0515C3.75005 69.9329 3.63682 69.8144 3.52016 69.6923C3.41246 69.5651 3.30476 69.4379 3.19379 69.3069C3.02627 69.0837 3.02627 69.0837 2.85536 68.8559C2.72422 68.6628 2.59308 68.4698 2.45796 68.2709C2.18505 67.8361 1.91625 67.4008 1.66248 66.9547C1.5466 66.7329 1.43072 66.511 1.31132 66.2825C1.22021 66.0695 1.12909 65.8566 1.03522 65.6371C0.892277 65.2483 0.753551 64.8587 0.620389 64.4664C0.419805 63.7623 0.238147 63.0576 0.110399 62.3366C0.0871174 61.9677 0.0871174 61.9677 0.0633652 61.5912C0.0328652 59.3417 0.0416976 57.0913 0.0353416 54.8416C0.0254039 53.4684 0.0176086 52.0954 0.0145668 50.7221C0.00490367 49.8454 -0.00683232 48.9675 0.00493588 48.0909C0.0571402 47.7543 0.0571402 47.7543 0.110399 47.4109C0.310473 47.114 0.310473 47.114 0.514588 46.8112C0.66428 46.6694 0.813972 46.5276 0.968201 46.3815C1.13261 46.3476 1.29703 46.3137 1.46642 46.2788C1.6417 46.3127 1.81697 46.3466 1.99756 46.3815C2.26695 46.5087 2.26695 46.5087 2.54177 46.6384C3.78778 47.4094 5.03584 48.1772 6.27924 48.9524C6.59692 49.1628 6.91832 49.3749 7.25638 49.5969C7.38926 49.7248 7.52214 49.8526 7.65905 49.9843C7.69372 50.1445 7.72838 50.3047 7.7641 50.4698C7.75104 53.108 7.74737 55.747 7.75622 58.3854C7.74903 59.0446 7.74961 59.7019 7.7697 60.3608C7.7898 60.5599 7.8099 60.759 7.83061 60.9641C7.8791 61.1614 7.92759 61.3587 7.97755 61.562C8.09207 61.9131 8.21155 62.2609 8.33938 62.6074C8.39794 62.7445 8.45651 62.8816 8.51685 63.0229C8.61814 63.2115 8.71943 63.4002 8.82378 63.5945C9.03398 63.8785 9.24113 64.1642 9.44569 64.4523C9.59209 64.6034 9.73849 64.7544 9.88933 64.91C10.0661 65.0488 10.0661 65.0488 10.2464 65.1904C10.6915 65.5098 11.1441 65.8147 11.6049 66.1109C13.0706 67.0038 14.5755 67.8331 16.0655 68.6843C19.0412 70.3963 22.0193 72.1047 24.9866 73.8312C27.6532 75.3987 30.283 77.0529 33.0366 78.4653C33.3815 78.6294 33.7304 78.7937 34.0988 78.9632C34.2622 79.0247 34.4256 79.0862 34.594 79.1495C34.8081 79.2132 35.0222 79.2769 35.2427 79.3425C35.4816 79.3921 35.7204 79.4416 35.9665 79.4926C36.2201 79.5117 36.4738 79.5307 36.7352 79.5503C37.5665 79.5666 38.397 79.5576 39.2261 79.4926C39.4219 79.4617 39.6176 79.4307 39.8192 79.3988C39.9915 79.3519 40.1638 79.3051 40.3413 79.2568C40.5155 79.1939 40.6898 79.1311 40.8694 79.0664C41.0631 78.9806 41.2568 78.8948 41.4564 78.8064C42.6911 78.2192 43.8883 77.5639 45.075 76.8857C45.9319 76.3896 46.7801 75.8788 47.6326 75.3752C50.2153 73.8731 52.8105 72.3923 55.3977 70.8979C58.6323 69.0264 62.6166 67.317 65.3596 64.7318C65.4542 64.6207 65.5489 64.5097 65.6464 64.3953C65.7552 64.2419 65.864 64.0884 65.9761 63.9303C66.1824 63.5987 66.3847 63.2656 66.5826 62.929C66.7231 62.6146 66.8607 62.3015 66.9833 61.9797C67.0813 61.6708 67.1692 61.3609 67.2521 61.0475C67.3065 60.7515 67.3065 60.7515 67.362 60.4495C67.378 60.2193 67.394 59.989 67.4104 59.7519C67.4366 58.9056 67.4336 58.0592 67.4313 57.2126C67.4448 52.7481 67.4366 48.2834 67.4371 43.8188C67.4433 39.3545 67.457 34.8901 67.4481 30.4258C67.453 29.5771 67.4584 28.7289 67.4255 27.8807C67.3941 27.5273 67.3941 27.5273 67.362 27.1668C67.3135 26.9561 67.2649 26.7455 67.2149 26.5285C67.1026 26.182 66.9845 25.8405 66.8546 25.5002C66.7956 25.3708 66.7366 25.2414 66.6758 25.108C66.5685 24.9174 66.4613 24.7268 66.3507 24.5304C66.1305 24.2424 65.9126 23.953 65.6967 23.6618C65.5669 23.5163 65.437 23.3708 65.3033 23.2209C65.118 23.0504 64.9326 22.8799 64.7417 22.7042C64.5315 22.5292 64.3189 22.3587 64.1024 22.1915C63.8925 22.052 63.6826 21.9124 63.4664 21.7687C61.1878 20.3793 58.868 19.0594 56.5537 17.731C53.579 16.0172 50.6022 14.3068 47.6326 12.5842C45.2091 11.1667 42.7602 9.44319 40.1161 8.46671C39.9834 8.43287 39.8507 8.39903 39.714 8.36417C39.553 8.34139 39.392 8.31861 39.2261 8.29515C38.9908 8.27767 38.7555 8.2602 38.5131 8.2422C37.9747 8.22098 37.4392 8.21956 36.9007 8.23818C36.649 8.25698 36.3973 8.27578 36.1381 8.29515C35.9465 8.32633 35.755 8.35751 35.5577 8.38964C35.2983 8.45963 35.2983 8.45963 35.0336 8.53104C34.8563 8.59473 34.6789 8.65842 34.4962 8.72405C34.302 8.80897 34.1078 8.89389 33.9078 8.98139C31.358 10.1778 28.9596 11.6802 26.5307 13.0988C24.9325 14.0192 23.3278 14.9281 21.727 15.8438C20.2391 16.6998 18.755 17.5623 17.2664 18.4172C14.8575 19.7875 12.2845 21.0418 10.0609 22.7062C9.93616 22.8155 9.81143 22.9247 9.68292 23.0373C9.57766 23.1474 9.47239 23.2575 9.36393 23.371C9.27657 23.4809 9.18922 23.5908 9.09922 23.7041C9.02027 23.8277 8.94131 23.9513 8.85997 24.0787C8.77571 24.2395 8.69145 24.4002 8.60464 24.5659C8.38933 25.0274 8.18761 25.4915 8.00217 25.9659C7.94556 26.1357 7.88894 26.3055 7.83061 26.4805C7.74227 27.6709 7.735 28.8902 7.77591 30.0827C7.79396 30.2527 7.81201 30.4228 7.83061 30.598C7.86834 30.7563 7.90608 30.9146 7.94496 31.0777C7.99679 31.2253 8.04862 31.3728 8.10202 31.5248C8.16554 31.6628 8.22905 31.8007 8.29448 31.9429C8.36787 32.0652 8.44125 32.1875 8.51685 32.3136C8.68537 32.4943 8.85389 32.6749 9.02751 32.8611C9.13173 32.9401 9.23595 33.0191 9.34332 33.1004C10.9484 34.14 12.6823 34.9825 14.3499 35.9163C15.7902 36.7563 17.2078 37.6344 18.6389 38.4897C20.1203 39.357 21.6126 40.2054 23.0995 41.0632C24.472 41.8637 25.8395 42.6729 27.2169 43.465C28.6435 44.2711 30.0784 45.0623 31.5059 45.8668C33.051 46.7462 34.6068 47.6142 36.102 48.5768C36.3856 48.7682 36.6722 48.962 36.9728 49.1659C37.0936 49.2661 37.2145 49.3663 37.339 49.4696C37.4477 49.6098 37.5563 49.75 37.6683 49.8944C37.8372 50.1543 37.9984 50.4161 38.1532 50.6846C38.3208 51.0747 38.4799 51.4673 38.636 51.8621C38.6811 52.0155 38.7261 52.1689 38.7726 52.3269C38.809 52.5163 38.8455 52.7057 38.883 52.9008C38.8979 53.1398 38.9128 53.3787 38.9282 53.6249C38.9491 54.5152 38.941 55.4054 38.9333 56.2958C38.9222 60.0822 39.1085 59.7967 39.0846 63.583C40.765 62.6453 42.4608 61.7302 44.1139 60.7449C44.7243 60.3745 45.333 60.0014 45.947 59.6371C48.2412 58.3109 50.6789 57.1035 52.8094 55.5197C52.9346 55.4082 53.0598 55.2967 53.1888 55.1819C53.2936 55.0704 53.3984 54.959 53.5064 54.8441C53.594 54.7333 53.6816 54.6226 53.7718 54.5084C53.9433 54.2487 54.1038 53.9857 54.2597 53.7163C54.4073 53.4325 54.5507 53.1475 54.6892 52.8591C54.8096 52.5714 54.9292 52.2834 55.048 51.995C55.1019 51.7994 55.1558 51.6038 55.2113 51.4022C55.2334 51.0216 55.2334 51.0216 55.256 50.6333C55.278 48.0198 55.0631 49.4776 55.0633 46.864C55.0678 45.2711 55.0716 43.6781 55.072 42.0851C55.0773 40.922 55.1021 39.7549 55.0572 38.5926C55.0415 38.4454 55.0258 38.2982 55.0097 38.1466C54.9732 37.9775 54.9367 37.8085 54.899 37.6343C54.7758 37.1718 54.646 36.7137 54.495 36.2595C54.418 36.0887 54.3411 35.918 54.2618 35.7421C54.1024 35.486 53.9452 35.2288 53.79 34.9701C53.683 34.8294 53.5759 34.6888 53.4656 34.5439C53.2145 34.2589 53.2145 34.2589 52.9583 33.9682C52.853 33.8654 52.7476 33.7627 52.6391 33.6568C52.5155 33.5532 52.392 33.4497 52.2647 33.3429C52.1166 33.2444 51.9685 33.146 51.816 33.0445C50.4953 32.2585 49.1419 31.5259 47.8041 30.7695C46.4287 29.974 45.0597 29.1674 43.6867 28.3677C42.1015 27.4619 40.5163 26.556 38.883 25.6227C38.883 31.171 38.883 36.7192 38.883 42.4356C38.5433 42.379 38.2036 42.3224 37.8537 42.2641C37.6916 42.1869 37.5296 42.1097 37.3627 42.0301C36.0381 41.2528 34.7087 40.4832 33.3931 39.6907C33.2082 39.6223 33.0233 39.5539 32.8328 39.4834C32.631 39.3941 32.4291 39.3049 32.2211 39.2129C32.0278 39.0923 31.8345 38.9717 31.6354 38.8474C31.4794 38.6728 31.3235 38.4981 31.1628 38.3182C31.1213 38.1938 31.0798 38.0695 31.037 37.9413C31.0123 37.7984 30.9876 37.6556 30.9621 37.5084C30.9472 37.3526 30.9323 37.1968 30.917 37.0363C30.9027 36.6916 30.8926 36.3473 30.8863 36.0023C30.8882 35.4319 30.9012 34.8621 30.9148 34.2919C30.9189 33.4817 30.919 32.6714 30.9249 31.8612C30.9388 31.0112 30.9564 30.1613 30.9698 29.3113C30.9883 26.4209 30.5826 23.1444 31.1628 20.3044C31.2229 20.1718 31.283 20.0392 31.3449 19.9026C31.4188 19.7799 31.4927 19.6573 31.5688 19.5309C31.7179 19.3332 31.867 19.1355 32.0206 18.9319C32.1854 18.8025 32.3501 18.6731 32.5199 18.5398C33.0975 18.2141 33.6722 17.8833 34.2509 17.5594C34.9342 17.1539 35.6127 16.7401 36.3096 16.3585C36.4795 16.3019 36.6493 16.2452 36.8243 16.1869C37.0512 16.1619 37.2781 16.1369 37.5119 16.1112C37.649 16.1132 37.7862 16.1151 37.9275 16.1171C38.073 16.1402 38.2185 16.1632 38.3683 16.1869C38.5125 16.2478 38.6566 16.3086 38.8051 16.3713C39.2916 16.6411 39.7638 16.9298 40.2341 17.227C40.9836 17.6826 41.7331 18.1384 42.4858 18.5888C47.6724 21.547 53.8641 24.0443 58.3263 28.0768C58.5484 28.3026 58.7645 28.5328 58.979 28.7658C59.2482 29.0793 59.5099 29.3967 59.7671 29.7201C59.8956 29.8966 60.0241 30.073 60.1565 30.2549C60.3413 30.5408 60.3413 30.5408 60.5298 30.8325C60.7671 31.2339 60.9974 31.6376 61.222 32.0462C61.3233 32.2477 61.4246 32.4491 61.529 32.6567C61.6161 32.8529 61.7032 33.049 61.793 33.2511C61.9365 33.6106 62.0771 33.9707 62.2139 34.3328C62.2709 34.5157 62.328 34.6986 62.3868 34.887C62.4825 35.2531 62.576 35.6182 62.6565 35.988C63.1961 39.2438 62.7833 42.8524 62.7835 46.1456C62.788 47.935 62.7918 49.7242 62.7922 51.5136C62.7983 53.0049 62.7922 52.0705 62.7922 52.328C62.7603 52.6034 62.756 52.9184 62.7138 53.1924C62.6307 53.6184 62.6495 53.589 62.5506 54.0117C62.4353 54.424 62.3164 54.8332 62.1776 55.2382C62.011 55.6365 61.8406 56.0407 61.6615 56.4626C61.4945 56.8289 61.3235 57.1983 61.1402 57.5844C60.9786 57.8974 60.8118 58.2058 60.6376 58.5119C60.5453 58.6568 60.4531 58.8016 60.3581 58.9509C60.1384 59.2559 59.9139 59.5552 59.6826 59.8516C59.2775 60.3351 58.8681 60.8154 58.4388 61.2777C58.3384 61.3734 58.238 61.4692 58.1345 61.5678C57.884 61.7823 57.6296 61.9896 57.3705 62.1938C57.0136 62.4521 56.6527 62.7025 56.2876 62.949C54.601 64.0324 52.8349 64.9929 51.0938 65.9848C48.9024 67.2432 46.7151 68.5086 44.5317 69.7806C43.8581 70.171 43.185 70.5621 42.5158 70.9601C41.3992 71.6489 40.3034 72.3931 39.1487 73.0159C39.0143 73.0735 38.8799 73.1311 38.7415 73.1904C38.492 73.2317 38.2426 73.2731 37.9856 73.3157C37.797 73.3023 37.797 73.3023 37.6046 73.2887C37.4703 73.2563 37.3359 73.2238 37.1975 73.1904C37.0429 73.1265 36.8883 73.0627 36.729 72.9969C35.3898 72.3177 34.0538 71.5473 32.8415 70.6599C32.6189 70.478 32.3947 70.2932 32.1606 70.0973C32.0677 69.9857 31.9748 69.8741 31.8791 69.7592C31.7897 69.5869 31.7002 69.4146 31.6081 69.2371C31.4875 68.9011 31.4875 68.9011 31.3644 68.5582C31.3434 68.312 31.3223 68.0657 31.3006 67.812C31.2733 64.6222 31.2926 61.4312 31.289 58.2412C31.2821 56.4418 31.1569 58.6948 31.0542 56.8983C31.0335 56.7681 31.0127 56.6378 30.9912 56.5036C30.9436 56.3624 30.896 56.2213 30.8469 56.0759C30.7328 55.8104 30.6151 55.5479 30.4914 55.2868C30.4299 55.1788 30.3684 55.0708 30.305 54.9595C30.1723 54.8005 30.0396 54.6415 29.9029 54.4777C29.7525 54.3536 29.6021 54.2296 29.4472 54.1017C29.2756 53.9865 29.104 53.8713 28.9272 53.7526C27.0492 52.655 25.1599 51.5778 23.271 50.499C20.2944 48.7885 17.3198 47.0742 14.3499 45.3522C12.9779 44.5508 11.6101 43.742 10.2325 42.9503C7.68391 41.5137 4.852 40.2549 2.51224 38.4897C2.3987 38.3801 2.28515 38.2705 2.16816 38.1575C1.95811 37.9253 1.75455 37.6899 1.55576 37.4479C1.43476 37.2842 1.43476 37.2842 1.31132 37.1173C1.21468 36.9527 1.11803 36.7882 1.01846 36.6187C0.894796 36.3285 0.76762 36.035 0.632452 35.7287C0.573404 35.5642 0.514357 35.3996 0.45352 35.2301C0.357848 34.9039 0.264332 34.5787 0.183543 34.2485C0.159406 34.1195 0.135268 33.9905 0.110399 33.8576C0.0109832 32.6564 0.0630765 31.4379 0.0675092 30.2334C0.062853 28.9822 0.0521162 27.7308 0.110399 26.4805C0.132252 26.2405 0.154104 26.0005 0.176619 25.7533C0.25181 25.1909 0.339795 24.6346 0.45352 24.0787C0.512567 23.8538 0.571615 23.6289 0.632452 23.3971C0.768546 23.0297 0.909253 22.657 1.058 22.2686C1.22756 21.8725 1.40327 21.4806 1.58609 21.0905C1.7805 20.7118 1.98089 20.3384 2.18923 19.9673C2.29582 19.7954 2.40242 19.6236 2.51224 19.4466C2.73095 19.1369 2.95488 18.8342 3.18776 18.5351C3.61493 18.0308 4.04786 17.5306 4.49591 17.0447C4.61157 16.9335 4.72723 16.8222 4.8464 16.7076C4.98197 16.5924 5.11753 16.4772 5.25721 16.3585C5.61667 16.0892 5.98079 15.8302 6.3509 15.5757C8.2721 14.3129 10.2938 13.2054 12.2912 12.0695C15.3835 10.304 18.4729 8.53364 21.5554 6.7511C25.0222 4.74306 28.473 2.418 32.2015 0.924757C32.5441 0.803923 32.8875 0.689045 33.2336 0.578956C33.5433 0.490591 33.8533 0.405366 34.1651 0.324966C34.453 0.262445 34.7456 0.200303 35.0517 0.136652C35.2404 0.111441 35.429 0.0862293 35.6234 0.060254Z" fill="var(--fill-0, #1E3460)"/>
</svg>
