<svg preserveAspectRatio="none" width="100%" height="100%" overflow="visible" style="display: block;" viewBox="0 0 62.5 73.0213" fill="none" xmlns="http://www.w3.org/2000/svg">
<path id="Vector" d="M29.6863 0.0456196C29.8465 0.0355468 29.8465 0.0355468 30.01 0.0252705C30.1296 0.0207438 30.2493 0.0162171 30.3726 0.0115532C30.4993 0.00900768 30.6261 0.00646213 30.7566 0.00383944C30.8899 0.00288342 31.0233 0.0019274 31.1606 0.000942409C31.2994 0.000631414 31.4383 0.000320419 31.5813 0C31.7217 0.00178534 31.8621 0.00357068 32.0067 0.00541012C32.1461 0.0100175 32.2855 0.0146248 32.4291 0.0193717C32.6283 0.0323644 32.6283 0.0323644 32.8315 0.0456196C32.949 0.0605473 33.0665 0.0754751 33.1876 0.0908552C33.2966 0.109837 33.4056 0.12882 33.5179 0.148377C33.7219 0.194082 33.9259 0.239786 34.1361 0.286876C34.4286 0.366491 34.4286 0.366491 34.727 0.447714C34.9918 0.531752 34.9918 0.531752 35.262 0.617487C35.409 0.667615 35.5561 0.717743 35.7076 0.769389C35.8436 0.822466 35.9796 0.875542 36.1198 0.930227C36.2567 0.991781 36.3936 1.05333 36.5347 1.11675C36.6808 1.18789 36.827 1.25903 36.9776 1.33232C37.1458 1.41525 37.3141 1.49819 37.4874 1.58363C37.7702 1.72904 37.7702 1.72904 38.0588 1.87738C38.1592 1.93076 38.2597 1.98413 38.3632 2.03913C38.4699 2.09706 38.5766 2.155 38.6865 2.21469C38.8005 2.27782 38.9144 2.34094 39.0319 2.40597C39.156 2.47628 39.2801 2.54658 39.408 2.61902C39.5472 2.70002 39.6865 2.78102 39.8299 2.86447C39.9789 2.95228 40.1279 3.0401 40.2814 3.13058C40.4369 3.22276 40.5923 3.31494 40.7525 3.40991C40.9133 3.50571 41.0741 3.60151 41.2398 3.70021C41.404 3.79831 41.5682 3.89641 41.7374 3.99749C41.9044 4.09713 42.0713 4.19678 42.2433 4.29944C42.4124 4.40009 42.5816 4.50074 42.7558 4.60443C43.0094 4.75395 43.0094 4.75395 43.2681 4.90649C43.517 5.05021 43.517 5.05021 43.7709 5.19682C43.9358 5.29102 44.1007 5.38522 44.2706 5.48227C44.4355 5.57613 44.6004 5.67 44.7703 5.7667C44.9351 5.86027 45.0999 5.95383 45.2696 6.05023C45.4345 6.14388 45.5994 6.23754 45.7693 6.33403C45.9343 6.42799 46.0993 6.52194 46.2693 6.61874C46.4342 6.71296 46.5991 6.80718 46.769 6.90426C46.9347 6.99986 47.1004 7.09546 47.2712 7.19396C47.4395 7.29288 47.6078 7.3918 47.7812 7.49372C47.9494 7.59347 48.1176 7.69322 48.2909 7.79599C48.54 7.94418 48.54 7.94418 48.7942 8.09536C49.0399 8.24186 49.0399 8.24186 49.2906 8.39131C49.4524 8.48778 49.6142 8.58424 49.7809 8.68363C49.9375 8.7768 50.0942 8.86998 50.2556 8.96597C50.4058 9.05491 50.556 9.14386 50.7108 9.2355C50.8495 9.31666 50.9883 9.39782 51.1313 9.48143C51.2502 9.54877 51.369 9.61611 51.4915 9.68548C51.5997 9.74549 51.7079 9.8055 51.8193 9.86733C51.9228 9.9242 52.0264 9.98106 52.133 10.0397C52.233 10.0943 52.3329 10.1489 52.4359 10.2052C52.534 10.2592 52.632 10.3132 52.7331 10.3688C52.8333 10.4243 52.9335 10.4798 53.0368 10.5369C53.141 10.595 53.2452 10.6531 53.3526 10.713C53.5269 10.8111 53.5269 10.8111 53.7047 10.9111C53.846 10.9912 53.9872 11.0713 54.1328 11.1539C54.3621 11.2853 54.3621 11.2853 54.596 11.4193C54.7521 11.5099 54.9081 11.6006 55.0689 11.6939C55.3048 11.8328 55.3048 11.8328 55.5454 11.9744C55.6999 12.0666 55.8543 12.1588 56.0135 12.2538C56.1623 12.3448 56.3112 12.4358 56.4646 12.5295C56.6063 12.6188 56.748 12.708 56.8939 12.8C57.021 12.8843 57.148 12.9687 57.2789 13.0556C57.3797 13.1304 57.4806 13.2052 57.5845 13.2822C57.6698 13.3515 57.755 13.4209 57.8429 13.4923C58.0591 13.6875 58.0591 13.6875 58.2796 13.8866C58.4665 14.0746 58.4665 14.0746 58.6572 14.2664C58.7685 14.3858 58.8798 14.5052 58.9945 14.6282C59.1087 14.7418 59.223 14.8553 59.3407 14.9723C59.4506 15.0858 59.5604 15.1993 59.6736 15.3163C59.8262 15.491 59.8262 15.491 59.9818 15.6692C60.0806 15.7975 60.1794 15.9258 60.2812 16.0579C60.3829 16.2127 60.4846 16.3675 60.5894 16.527C60.6882 16.6936 60.787 16.8602 60.8888 17.0319C60.9813 17.2014 61.0738 17.371 61.1691 17.5457C61.2535 17.7152 61.3379 17.8848 61.4249 18.0594C61.4975 18.2231 61.5701 18.3867 61.6449 18.5554C61.708 18.7131 61.771 18.8709 61.8359 19.0334C61.8886 19.1729 61.9413 19.3124 61.9957 19.4562C62.0432 19.6086 62.0907 19.761 62.1397 19.918C62.1891 20.1127 62.2385 20.3073 62.2893 20.5079C62.3266 20.6789 62.3266 20.6789 62.3645 20.8533C62.3847 20.9693 62.4049 21.0852 62.4257 21.2047C62.4378 21.4149 62.4499 21.625 62.4624 21.8416C62.4634 21.9509 62.4643 22.0602 62.4652 22.1728C62.4646 22.346 62.4646 22.346 62.4639 22.5228C62.4646 22.6491 62.4652 22.7753 62.4659 22.9054C62.4667 23.1056 62.4667 23.1056 62.4676 23.3098C62.4675 23.4484 62.4675 23.5869 62.4675 23.7297C62.4674 23.8732 62.4673 24.0168 62.4672 24.1646C62.4676 24.3123 62.468 24.4599 62.4685 24.612C62.469 24.7637 62.4696 24.9154 62.4701 25.0717C62.4706 25.2273 62.4711 25.3829 62.4716 25.5431C62.4719 25.7023 62.4723 25.8615 62.4727 26.0256C62.4729 26.1884 62.473 26.3512 62.4732 26.5189C62.4733 26.6845 62.4733 26.8501 62.4734 27.0207C62.4734 27.1885 62.4735 27.3563 62.4735 27.5292C62.4736 27.6982 62.4736 27.8673 62.4737 28.0414C62.4739 28.2102 62.4741 28.379 62.4743 28.553C62.4746 28.7226 62.4748 28.8922 62.4751 29.0669C62.4753 29.2379 62.4756 29.4089 62.4758 29.585C62.4762 29.8435 62.4762 29.8435 62.4766 30.1072C62.4768 30.2812 62.477 30.4551 62.4772 30.6344C62.4774 30.8098 62.4776 30.9852 62.4778 31.1659C62.4781 31.4309 62.4781 31.4309 62.4784 31.7013C62.4785 31.8795 62.4786 32.0576 62.4787 32.2411C62.4788 32.4209 62.4788 32.6006 62.4788 32.7859C62.4788 33.0573 62.4788 33.0573 62.4788 33.3343C62.4788 33.5162 62.4787 33.6981 62.4787 33.8854C62.4787 34.068 62.4787 34.2506 62.4787 34.4388C62.4786 34.7134 62.4786 34.7134 62.4786 34.9936C62.4786 35.1771 62.4786 35.3605 62.4786 35.5495C62.4787 35.7332 62.4788 35.9169 62.4788 36.1062C62.479 36.3818 62.479 36.3818 62.4793 36.663C62.4798 36.9384 62.4798 36.9384 62.4803 37.2193C62.4807 37.4026 62.4812 37.5859 62.4816 37.7748C62.4821 37.9578 62.4825 38.1408 62.483 38.3294C62.4835 38.5119 62.484 38.6945 62.4845 38.8826C62.485 39.0647 62.4855 39.2468 62.486 39.4344C62.4865 39.6158 62.487 39.7972 62.4875 39.9841C62.4881 40.2548 62.4881 40.2548 62.4888 40.5311C62.4893 40.8003 62.4893 40.8003 62.4899 41.0749C62.4902 41.3419 62.4902 41.3419 62.4905 41.6144C62.4906 41.7911 62.4907 41.9679 62.4908 42.15C62.4909 42.3255 62.491 42.5011 62.4911 42.6819C62.4911 42.8561 62.4911 43.0302 62.4912 43.2096C62.4911 43.3822 62.4911 43.5548 62.4911 43.7327C62.4911 43.9039 62.4911 44.0751 62.4911 44.2515C62.4911 44.4214 62.4911 44.5912 62.4911 44.7662C62.4913 45.0195 62.4913 45.0195 62.4916 45.2779C62.4921 45.4465 62.4926 45.6151 62.4931 45.7888C62.4937 45.9561 62.4943 46.1233 62.4949 46.2956C62.4954 46.4607 62.496 46.6258 62.4966 46.7958C62.497 46.9584 62.4974 47.121 62.4978 47.2885C62.4977 47.528 62.4977 47.528 62.4976 47.7723C62.4973 47.9286 62.497 48.0849 62.4968 48.246C62.4962 48.4749 62.4962 48.4749 62.4956 48.7085C62.4954 48.9308 62.4954 48.9308 62.4951 49.1576C62.4964 49.3715 62.4964 49.3715 62.4977 49.5897C62.4985 49.7275 62.4992 49.8652 62.5 50.0072C62.4999 50.1405 62.4997 50.2739 62.4996 50.4112C62.4985 50.54 62.4975 50.6688 62.4964 50.8015C62.4934 50.9879 62.4934 50.9879 62.4904 51.178C62.4844 51.3577 62.4844 51.3577 62.4783 51.541C62.4686 51.7141 62.4686 51.7141 62.4586 51.8907C62.4477 52.0022 62.4369 52.1136 62.4257 52.2285C62.3981 52.3916 62.3981 52.3916 62.3699 52.5579C62.3362 52.7145 62.3362 52.7145 62.3018 52.8741C62.2516 53.0662 62.2014 53.2582 62.1497 53.456C62.1 53.6205 62.0502 53.7851 61.9989 53.9546C61.951 54.0927 61.9031 54.2308 61.8538 54.373C61.7781 54.5667 61.7023 54.7604 61.6243 54.96C61.5496 55.1054 61.475 55.2508 61.3981 55.4006C61.3115 55.5641 61.2249 55.7275 61.1356 55.896C61.0424 56.0539 60.9491 56.2118 60.853 56.3746C60.7539 56.5251 60.6547 56.6757 60.5526 56.8308C60.4483 56.9751 60.344 57.1194 60.2365 57.2681C60.0703 57.4774 60.0703 57.4774 59.9009 57.6909C59.7353 57.8885 59.7353 57.8885 59.5663 58.0902C59.4206 58.2679 59.4206 58.2679 59.272 58.4493C59.1686 58.5637 59.0652 58.6782 58.9587 58.7961C58.8382 58.912 58.7177 59.0279 58.5935 59.1473C58.3674 59.3317 58.3674 59.3317 58.1367 59.5198C58.0402 59.5877 57.9438 59.6556 57.8444 59.7256C57.7371 59.7968 57.6297 59.8681 57.519 59.9415C57.4033 60.0153 57.2876 60.0891 57.1684 60.1652C57.0456 60.2412 56.9229 60.3172 56.7963 60.3955C56.6691 60.4726 56.5419 60.5497 56.4109 60.6292C56.2775 60.7085 56.1441 60.7879 56.0067 60.8696C55.8667 60.9517 55.7266 61.0337 55.5824 61.1182C55.4345 61.2041 55.2867 61.2899 55.1344 61.3784C54.9758 61.4703 54.8173 61.5623 54.6539 61.657C54.4892 61.7521 54.3245 61.8472 54.1548 61.9452C53.9872 62.0415 53.8197 62.1378 53.647 62.237C53.3925 62.3826 53.3925 62.3826 53.1328 62.5311C52.9617 62.6284 52.7905 62.7257 52.6141 62.826C52.4451 62.9218 52.2761 63.0176 52.1019 63.1163C51.8543 63.2565 51.8543 63.2565 51.6017 63.3995C51.3688 63.5313 51.3688 63.5313 51.1313 63.6659C50.9956 63.7431 50.8599 63.8203 50.7201 63.8999C50.5945 63.9716 50.4688 64.0433 50.3394 64.1171C50.218 64.1865 50.0966 64.2558 49.9715 64.3272C49.853 64.395 49.7344 64.4628 49.6123 64.5326C49.4936 64.6004 49.375 64.6682 49.2527 64.738C49.0727 64.8409 49.0727 64.8409 48.8891 64.9459C48.7669 65.0158 48.6447 65.0858 48.5189 65.1578C48.3902 65.2316 48.2615 65.3054 48.129 65.3815C47.9872 65.463 47.8455 65.5446 47.6995 65.6286C47.5506 65.7144 47.4017 65.8002 47.2483 65.8886C47.0194 66.0206 47.0194 66.0206 46.7859 66.1552C46.6305 66.2449 46.4752 66.3345 46.3151 66.4269C46.1591 66.5169 46.0031 66.607 45.8423 66.6997C45.6854 66.7903 45.5285 66.8809 45.3668 66.9742C45.1301 67.1109 45.1301 67.1109 44.8886 67.2504C44.7313 67.3413 44.574 67.4323 44.4118 67.526C44.2567 67.6158 44.1016 67.7057 43.9418 67.7982C43.7876 67.8875 43.6335 67.9768 43.4747 68.0688C43.2441 68.2024 43.2441 68.2024 43.0087 68.3387C42.8555 68.4273 42.7022 68.5159 42.5443 68.6072C42.3917 68.695 42.2391 68.7829 42.0819 68.8734C41.9295 68.961 41.7771 69.0486 41.6201 69.1388C41.4679 69.2262 41.3157 69.3135 41.1589 69.4035C41.0057 69.4916 40.8525 69.5797 40.6947 69.6705C40.5384 69.7612 40.3821 69.8518 40.2211 69.9452C39.9864 70.0813 39.9864 70.0813 39.747 70.22C39.5925 70.3089 39.4381 70.3977 39.279 70.4893C39.0509 70.6192 39.0509 70.6192 38.8183 70.7517C38.6691 70.8355 38.5199 70.9193 38.3662 71.0057C38.222 71.0852 38.0778 71.1646 37.9292 71.2465C37.791 71.3207 37.6528 71.3949 37.5103 71.4714C37.3817 71.5376 37.2531 71.6038 37.1205 71.672C37.0074 71.7257 36.8942 71.7794 36.7776 71.8347C36.6741 71.8801 36.5705 71.9256 36.4638 71.9725C36.2736 72.0473 36.0834 72.1221 35.8874 72.1992C35.7089 72.2591 35.5303 72.319 35.3463 72.3807C35.1769 72.4299 35.0076 72.4791 34.8331 72.5298C34.6681 72.5776 34.5032 72.6253 34.3332 72.6745C34.165 72.7152 33.9967 72.7559 33.8234 72.7979C33.649 72.8287 33.4747 72.8594 33.2951 72.8911C33.0949 72.9134 32.8948 72.9357 32.6886 72.9587C32.564 72.9672 32.4395 72.9757 32.3112 72.9845C32.1766 72.9909 32.042 72.9973 31.9034 73.004C31.7645 73.008 31.6256 73.012 31.4825 73.0162C31.3409 73.0179 31.1993 73.0195 31.0534 73.0213C30.912 73.0206 30.7705 73.02 30.6248 73.0193C30.4157 73.0142 30.4157 73.0142 30.2023 73.009C30.066 73.0026 29.9297 72.9962 29.7893 72.9896C29.6609 72.9794 29.5326 72.9692 29.4003 72.9587C29.2305 72.9357 29.2305 72.9357 29.0571 72.9122C28.9529 72.8933 28.8487 72.8744 28.7413 72.8548C28.5489 72.8095 28.3565 72.7642 28.1583 72.7175C27.9773 72.6642 27.7963 72.6109 27.6099 72.5561C27.4459 72.5002 27.2818 72.4444 27.1129 72.3869C26.9724 72.3384 26.832 72.2899 26.6873 72.24C26.5535 72.1882 26.4197 72.1364 26.2819 72.083C26.144 72.0217 26.0062 71.9603 25.8641 71.8971C25.7101 71.8228 25.556 71.7485 25.3973 71.672C25.1131 71.5319 25.1131 71.5319 24.8232 71.3889C24.7186 71.3358 24.6141 71.2827 24.5064 71.228C24.3414 71.1426 24.3414 71.1426 24.1731 71.0555C24.0023 70.9654 24.0023 70.9654 23.828 70.8734C23.7086 70.8091 23.5891 70.7448 23.4661 70.6785C23.3403 70.6095 23.2146 70.5405 23.0851 70.4694C22.9517 70.3945 22.8183 70.3196 22.6809 70.2424C22.5372 70.1591 22.3935 70.0759 22.2454 69.9901C22.0946 69.9014 21.9438 69.8127 21.7885 69.7213C21.6326 69.6289 21.4768 69.5365 21.3162 69.4413C21.1562 69.3459 20.9961 69.2505 20.8312 69.1522C20.6684 69.0549 20.5056 68.9575 20.3379 68.8573C20.1727 68.7585 20.0074 68.6598 19.8372 68.558C19.6699 68.4583 19.5027 68.3586 19.3304 68.2559C19.1622 68.1566 18.994 68.0572 18.8208 67.9549C18.653 67.8578 18.4852 67.7606 18.3123 67.6606C18.1447 67.5646 17.9771 67.4685 17.8044 67.3696C17.6372 67.2743 17.47 67.1789 17.2977 67.0806C17.131 66.9858 16.9642 66.891 16.7924 66.7933C16.5422 66.6509 16.5422 66.6509 16.2868 66.5056C16.0392 66.3647 16.0392 66.3647 15.7866 66.2208C15.6243 66.1283 15.4619 66.0358 15.2946 65.9404C15.1372 65.8503 14.9798 65.7602 14.8177 65.6674C14.6694 65.5816 14.521 65.4957 14.3682 65.4072C14.2248 65.3237 14.0814 65.2402 13.9337 65.1542C13.7925 65.0718 13.6514 64.9894 13.506 64.9045C13.3668 64.8231 13.2276 64.7416 13.0842 64.6577C12.8772 64.5365 12.8772 64.5365 12.666 64.4129C12.5276 64.3318 12.3892 64.2508 12.2465 64.1674C12.0371 64.045 12.0371 64.045 11.8235 63.9201C11.6072 63.7943 11.6072 63.7943 11.3865 63.6659C11.1547 63.5323 11.1547 63.5323 10.9182 63.396C10.7595 63.3048 10.6007 63.2136 10.4371 63.1197C10.2779 63.0283 10.1187 62.9369 9.9547 62.8428C9.79617 62.7517 9.63765 62.6607 9.47432 62.5668C9.24053 62.432 9.24053 62.432 9.00203 62.2945C8.84993 62.2065 8.69783 62.1185 8.54112 62.0279C8.39353 61.9423 8.24593 61.8566 8.09386 61.7684C7.88373 61.6461 7.88373 61.6461 7.66936 61.5214C7.54125 61.4467 7.41315 61.372 7.28116 61.295C7.16139 61.2247 7.04162 61.1543 6.91823 61.0819C6.80484 61.0145 6.69145 60.9472 6.57463 60.8778C6.46705 60.813 6.35947 60.7482 6.24863 60.6814C6.14528 60.6182 6.04194 60.555 5.93547 60.4899C5.83738 60.4285 5.73929 60.3671 5.63823 60.3039C5.54578 60.2445 5.45333 60.1851 5.35809 60.1238C5.27158 60.066 5.18508 60.0083 5.09596 59.9487C4.94207 59.8374 4.78819 59.7261 4.62964 59.6114C4.49455 59.5045 4.35946 59.3976 4.22028 59.2875C4.09939 59.1828 3.97849 59.0782 3.85393 58.9703C3.74483 58.8686 3.63573 58.7668 3.52332 58.662C3.42307 58.5662 3.32281 58.4704 3.21952 58.3716C3.12516 58.2729 3.0308 58.1741 2.93358 58.0723C2.84383 57.9663 2.75408 57.8604 2.66161 57.7512C2.52201 57.5651 2.52201 57.5651 2.37959 57.3753C2.2703 57.2144 2.16101 57.0536 2.04842 56.8878C1.88062 56.6205 1.88062 56.6205 1.70943 56.3478C1.62783 56.2106 1.62783 56.2106 1.54458 56.0706C1.46584 55.9322 1.46584 55.9322 1.38552 55.791C1.28895 55.6061 1.19238 55.4213 1.09288 55.2308C1.01696 55.0534 0.941027 54.8759 0.862797 54.693C0.800137 54.5226 0.737477 54.3521 0.672919 54.1764C0.621501 54.025 0.570083 53.8735 0.517107 53.7174C0.471218 53.5563 0.425329 53.3952 0.37805 53.2293C0.328906 53.0332 0.279762 52.8371 0.22913 52.6351C0.204259 52.5214 0.179389 52.4077 0.153765 52.2905C0.133421 52.1757 0.113077 52.0609 0.0921161 51.9426C0.0727145 51.6351 0.0727145 51.6351 0.052921 51.3214C0.0507819 51.1637 0.0507819 51.1637 0.0485995 51.0027C0.0485045 50.8924 0.0484094 50.782 0.0483115 50.6684C0.0471215 50.5482 0.0459316 50.4281 0.0447055 50.3043C0.0436098 50.1783 0.0425141 50.0523 0.0413853 49.9224C0.0409397 49.7927 0.0404939 49.663 0.0400349 49.5293C0.0397137 49.3963 0.0393929 49.2633 0.039062 49.1263C0.038432 48.9913 0.0378022 48.8563 0.0371531 48.7172C0.036162 48.5114 0.0361617 48.5114 0.0351505 48.3013C0.0342947 48.0921 0.0342937 48.0921 0.0334206 47.8786C0.0329783 47.7372 0.0325369 47.5957 0.0320812 47.45C0.0319207 47.3069 0.03176 47.1637 0.0315947 47.0162C0.0314903 46.8717 0.031386 46.7273 0.0312784 46.5785C0.0311257 46.4333 0.0309731 46.288 0.0308159 46.1384C0.0304041 45.9926 0.0299923 45.8469 0.0295681 45.6967C0.0279829 45.4777 0.0279829 45.4777 0.0263656 45.2542C0.0244435 45.0356 0.0244435 45.0356 0.0224826 44.8126C0.0211983 44.6677 0.0199139 44.5228 0.0185908 44.3734C0.0175137 44.2299 0.0164369 44.0863 0.0153272 43.9384C0.0148603 43.797 0.0143925 43.6555 0.0139114 43.5098C0.013698 43.3704 0.0134856 43.2311 0.0132657 43.0875C0.0132311 42.9505 0.0131967 42.8136 0.013161 42.6724C0.0128623 42.5376 0.0125634 42.4028 0.0122557 42.2638C0.0107843 42.1304 0.00931265 41.9969 0.00779669 41.8593C0.00647559 41.7292 0.00515476 41.5991 0.00379363 41.465C0.00409887 41.3396 0.0044041 41.2142 0.00471859 41.085C0.00528227 40.9656 0.00584594 40.8462 0.0064267 40.7232C0.00430589 40.612 0.00218508 40.5008 0 40.3862C0.00139588 40.2823 0.00279175 40.1783 0.00422993 40.0712C0.0477336 39.7907 0.0477336 39.7907 0.0921161 39.5045C0.258844 39.2571 0.258844 39.2571 0.42894 39.0047C0.553683 38.8866 0.678427 38.7684 0.80695 38.6467C0.943961 38.6184 1.08097 38.5902 1.22213 38.5611C1.3682 38.5893 1.51426 38.6176 1.66475 38.6467C1.88924 38.7526 1.88924 38.7526 2.11826 38.8607C2.27692 38.9589 2.43559 39.0571 2.59906 39.1582C2.77368 39.2653 2.9483 39.3724 3.12821 39.4827C3.21806 39.5391 3.30792 39.5955 3.40049 39.6537C3.49115 39.7106 3.58182 39.7675 3.67522 39.8262C3.76614 39.8821 3.85705 39.938 3.95072 39.9956C4.08595 40.0784 4.08595 40.0784 4.22391 40.1629C4.48556 40.3246 4.48556 40.3246 4.7525 40.4896C4.911 40.5884 5.06951 40.6873 5.23282 40.7891C5.37637 40.8841 5.51992 40.9792 5.66782 41.0771C5.79299 41.1593 5.91815 41.2415 6.0471 41.3262C6.15784 41.4327 6.26857 41.5392 6.38266 41.649C6.41155 41.7825 6.44044 41.916 6.4702 42.0536C6.46943 42.2097 6.46865 42.3658 6.46786 42.5266C6.4693 42.793 6.4693 42.793 6.47078 43.0648C6.46842 43.2566 6.46606 43.4484 6.46364 43.646C6.46444 43.8443 6.46525 44.0425 6.46608 44.2467C6.46684 44.4517 6.4676 44.6567 6.46838 44.868C6.46733 45.1844 6.46733 45.1844 6.46625 45.5071C6.46548 45.6668 6.46548 45.6668 6.46468 45.8298C6.46415 45.9363 6.46362 46.0427 6.46308 46.1524C6.46228 46.3634 6.46149 46.5743 6.46067 46.7916C6.46027 47.0001 6.45986 47.2087 6.45945 47.4235C6.46016 47.6289 6.46087 47.8343 6.46161 48.0459C6.46228 48.2452 6.46295 48.4445 6.46364 48.6499C6.46157 48.8394 6.4595 49.0289 6.45737 49.2241C6.45814 49.4959 6.45814 49.4959 6.45892 49.7732C6.46418 49.9458 6.46945 50.1183 6.47487 50.2961C6.49162 50.462 6.50837 50.6279 6.52563 50.7989C6.56603 50.9633 6.60644 51.1277 6.64808 51.2971C6.69803 51.4502 6.74798 51.6034 6.79945 51.7612C6.849 51.8955 6.89855 52.0298 6.9496 52.1682C6.9984 52.2825 7.04721 52.3967 7.09749 52.5145C7.1819 52.6717 7.26631 52.8289 7.35327 52.9908C7.4832 53.1664 7.4832 53.1664 7.61575 53.3455C7.70015 53.4643 7.78456 53.5832 7.87152 53.7057C7.99353 53.8315 8.11553 53.9574 8.24123 54.0871C8.3885 54.2028 8.3885 54.2028 8.53875 54.3207C8.65398 54.4034 8.76921 54.4861 8.88793 54.5713C9.0135 54.6564 9.13907 54.7415 9.26845 54.8291C9.46766 54.9572 9.46766 54.9572 9.6709 55.0879C9.80426 55.1691 9.93761 55.2503 10.075 55.334C10.2129 55.415 10.3509 55.4959 10.493 55.5793C10.7089 55.703 10.7089 55.703 10.9291 55.8292C11.1555 55.9576 11.1555 55.9576 11.3865 56.0886C11.5478 56.1809 11.709 56.2731 11.8752 56.3681C12.0412 56.4631 12.2073 56.5581 12.3783 56.656C12.546 56.7517 12.7137 56.8473 12.8865 56.9459C13.052 57.0404 13.2175 57.135 13.388 57.2324C13.5447 57.3225 13.7013 57.4126 13.8627 57.5055C14.0157 57.5937 14.1687 57.682 14.3263 57.773C14.4783 57.8608 14.6304 57.9486 14.7871 58.0391C14.9388 58.1267 15.0904 58.2144 15.2466 58.3046C15.3993 58.3928 15.5521 58.4809 15.7094 58.5718C15.8626 58.6602 16.0158 58.7486 16.1737 58.8396C16.3269 58.928 16.4801 59.0165 16.638 59.1075C16.7922 59.1964 16.9463 59.2853 17.1052 59.3769C17.2615 59.4669 17.4179 59.5568 17.579 59.6495C17.736 59.7398 17.8929 59.8301 18.0546 59.923C18.2109 60.013 18.3672 60.103 18.5283 60.1957C18.6838 60.2852 18.8393 60.3747 18.9995 60.467C19.1538 60.5559 19.3081 60.6448 19.467 60.7363C19.6192 60.8242 19.7714 60.912 19.9282 61.0026C20.1526 61.1325 20.1526 61.1325 20.3816 61.265C20.527 61.3496 20.6725 61.4342 20.8223 61.5214C20.9609 61.6029 21.0995 61.6843 21.2423 61.7683C21.3767 61.8477 21.511 61.9271 21.6494 62.0089C21.781 62.0869 21.9127 62.1649 22.0483 62.2453C22.1774 62.3219 22.3066 62.3985 22.4396 62.4775C22.5666 62.5527 22.6936 62.6279 22.8245 62.7054C22.9503 62.7798 23.0762 62.8543 23.2058 62.9309C23.3309 63.0047 23.4559 63.0786 23.5848 63.1546C23.7111 63.229 23.8374 63.3033 23.9676 63.3799C24.0987 63.4569 24.2298 63.5338 24.3649 63.6131C24.497 63.6902 24.629 63.7674 24.7651 63.8468C24.9608 63.9604 24.9608 63.9604 25.1605 64.0763C25.2887 64.1502 25.417 64.2241 25.5492 64.3003C25.6741 64.3717 25.7991 64.4431 25.9278 64.5167C26.0483 64.5848 26.1688 64.6529 26.293 64.723C26.4085 64.7873 26.5239 64.8515 26.6429 64.9177C26.7508 64.9764 26.8587 65.0351 26.9699 65.0955C27.1549 65.1905 27.3399 65.2854 27.5306 65.3832C27.6906 65.4593 27.8505 65.5354 28.0153 65.6138C28.1475 65.6746 28.2796 65.7354 28.4158 65.7981C28.5519 65.8493 28.6881 65.9006 28.8285 65.9533C29.0069 66.0064 29.1852 66.0595 29.369 66.1142C29.5681 66.1555 29.7671 66.1967 29.9722 66.2393C30.1836 66.2551 30.395 66.271 30.6127 66.2873C30.722 66.2894 30.8313 66.2916 30.9439 66.2938C31.0567 66.2935 31.1695 66.2932 31.2857 66.2929C31.4053 66.292 31.5249 66.2912 31.6481 66.2903C31.7679 66.2875 31.8877 66.2846 32.0111 66.2817C32.1277 66.2761 32.2442 66.2705 32.3643 66.2647C32.4713 66.2563 32.5783 66.2479 32.6886 66.2393C32.8517 66.2135 33.0148 66.1877 33.1828 66.1611C33.3264 66.122 33.4699 66.083 33.6178 66.0427C33.7631 65.9904 33.9083 65.938 34.0579 65.8841C34.2194 65.8126 34.3808 65.7411 34.5471 65.6674C34.6473 65.6198 34.7475 65.5721 34.8507 65.523C34.9591 65.4697 35.0676 65.4163 35.1793 65.3614C35.2917 65.3044 35.404 65.2474 35.5197 65.1886C35.6352 65.1284 35.7506 65.0682 35.8696 65.0062C36.0448 64.9121 36.0448 64.9121 36.2236 64.8162C36.3403 64.7523 36.4569 64.6884 36.5771 64.6225C36.693 64.558 36.8088 64.4936 36.9281 64.4271C37.0388 64.3646 37.1495 64.3021 37.2635 64.2377C37.3622 64.1813 37.4609 64.1249 37.5626 64.0668C37.7034 63.9853 37.7034 63.9853 37.8471 63.9021C37.9407 63.8474 38.0342 63.7926 38.1306 63.7362C38.272 63.6527 38.272 63.6527 38.4162 63.5676C38.5129 63.51 38.6096 63.4524 38.7093 63.3931C38.8105 63.3327 38.9117 63.2724 39.016 63.2102C39.1227 63.1466 39.2295 63.083 39.3395 63.0175C39.4564 62.9484 39.5734 62.8793 39.6939 62.8081C39.8286 62.7297 39.9633 62.6514 40.102 62.5707C40.2471 62.4869 40.3922 62.403 40.5417 62.3166C40.6928 62.2295 40.8438 62.1424 40.9995 62.0526C41.1554 61.9628 41.3114 61.873 41.4721 61.7805C41.6306 61.6891 41.7892 61.5977 41.9525 61.5036C42.1128 61.4112 42.2731 61.3189 42.4382 61.2237C42.5997 61.1307 42.7612 61.0377 42.9276 60.9419C43.0871 60.85 43.2467 60.7582 43.4111 60.6636C43.564 60.5756 43.7169 60.4876 43.8745 60.397C44.0249 60.3104 44.1753 60.2239 44.3303 60.1347C44.4808 60.0481 44.6313 59.9614 44.7864 59.8722C44.937 59.7854 45.0877 59.6986 45.2428 59.6092C45.3939 59.522 45.545 59.4349 45.7007 59.3451C45.8539 59.2566 46.007 59.1681 46.1649 59.077C46.3207 58.9868 46.4765 58.8967 46.637 58.8038C46.7991 58.7098 46.9612 58.6159 47.1282 58.5191C47.303 58.4175 47.4779 58.316 47.658 58.2114C47.9279 58.0544 47.9279 58.0544 48.2033 57.8941C48.4733 57.7366 48.4733 57.7366 48.7489 57.576C48.9276 57.4714 49.1064 57.3669 49.2906 57.2592C49.4659 57.1563 49.6411 57.0534 49.8217 56.9474C49.9909 56.8478 50.1601 56.7481 50.3344 56.6454C50.4959 56.5499 50.6575 56.4544 50.8239 56.3559C50.9725 56.2677 51.1211 56.1795 51.2743 56.0886C51.4017 56.0128 51.5291 55.9369 51.6604 55.8588C51.7738 55.7907 51.8873 55.7226 52.0042 55.6525C52.1077 55.5896 52.2113 55.5268 52.318 55.462C52.4604 55.3741 52.4604 55.3741 52.6056 55.2844C52.7774 55.1746 52.9492 55.0648 53.1261 54.9516C53.2699 54.855 53.4136 54.7585 53.5617 54.659C53.6789 54.5771 53.7961 54.4953 53.9169 54.411C54.015 54.3336 54.113 54.2562 54.214 54.1764C54.339 54.0587 54.339 54.0587 54.4664 53.9385C54.5453 53.846 54.6242 53.7535 54.7055 53.6582C54.7961 53.5303 54.8868 53.4024 54.9802 53.2706C55.0694 53.1272 55.1586 52.9839 55.2505 52.8361C55.3281 52.7042 55.4057 52.5722 55.4856 52.4363C55.5584 52.2734 55.6312 52.1104 55.7062 51.9426C55.7436 51.8445 55.781 51.7463 55.8196 51.6452C55.8747 51.4714 55.8747 51.4714 55.9309 51.294C55.9681 51.1535 56.0052 51.0131 56.0436 50.8684C56.0889 50.6216 56.0889 50.6216 56.1351 50.37C56.1484 50.1781 56.1618 49.9863 56.1755 49.7886C56.1787 49.6841 56.1819 49.5795 56.1853 49.4718C56.187 49.3621 56.1888 49.2524 56.1906 49.1394C56.1916 49.0252 56.1927 48.911 56.1938 48.7933C56.1941 48.6745 56.1945 48.5556 56.1948 48.4332C56.1945 48.3099 56.1943 48.1866 56.194 48.0595C56.1936 47.9318 56.1933 47.8042 56.1929 47.6726C56.1933 47.5405 56.1937 47.4084 56.1941 47.2724C56.1947 47.1364 56.1953 47.0005 56.1959 46.8605C56.1966 46.6516 56.1966 46.6516 56.1973 46.4385C56.1979 46.2249 56.1979 46.2249 56.1984 46.0071C56.1984 45.8618 56.1984 45.7165 56.1984 45.5669C56.1982 45.3455 56.1982 45.3455 56.198 45.1196C56.1978 44.97 56.1976 44.8205 56.1974 44.6664C56.1973 44.4402 56.1973 44.4402 56.1971 44.2095C56.1972 44.0587 56.1974 43.9079 56.1975 43.7526C56.1977 43.601 56.1979 43.4494 56.1981 43.2931C56.1983 43.1403 56.1985 42.9875 56.1987 42.83C56.1991 42.5989 56.1991 42.5989 56.1994 42.3631C56.1996 42.1299 56.1996 42.1299 56.1999 41.8919C56.2001 41.7351 56.2002 41.5784 56.2003 41.4169C56.2004 41.259 56.2005 41.1011 56.2006 40.9385C56.2007 40.6998 56.2007 40.6998 56.2007 40.4564C56.2007 40.2959 56.2006 40.1355 56.2005 39.9702C56.2003 39.8087 56.2001 39.6472 56.2 39.4809C56.1998 39.3186 56.1996 39.1564 56.1995 38.9892C56.1993 38.8263 56.1991 38.6635 56.1989 38.4956C56.1987 38.3323 56.1985 38.169 56.1984 38.0008C56.1982 37.8371 56.1981 37.6734 56.1979 37.5048C56.1978 37.259 56.1978 37.259 56.1976 37.0081C56.1976 36.8441 56.1977 36.6801 56.1977 36.5111C56.1979 36.3471 56.1981 36.1831 56.1984 36.0142C56.1989 35.7684 56.1989 35.7684 56.1994 35.5177C56.1998 35.3541 56.2002 35.1905 56.2006 35.022C56.201 34.8587 56.2014 34.6955 56.2018 34.5273C56.2022 34.3645 56.2027 34.2018 56.2031 34.034C56.2035 33.8719 56.2039 33.7097 56.2043 33.5426C56.2047 33.3812 56.2051 33.2198 56.2055 33.0535C56.2057 32.8932 56.206 32.7328 56.2063 32.5675C56.2065 32.3289 56.2065 32.3289 56.2067 32.0855C56.2068 31.9276 56.2068 31.7697 56.2068 31.607C56.2068 31.4502 56.2068 31.2935 56.2068 31.1319C56.2068 30.9764 56.2067 30.8209 56.2067 30.6606C56.2066 30.5065 56.2065 30.3524 56.2064 30.1936C56.2063 30.0407 56.2062 29.8879 56.2061 29.7303C56.206 29.5028 56.206 29.5028 56.2059 29.2708C56.2059 29.12 56.206 28.9692 56.2061 28.8138C56.2066 28.5878 56.2066 28.5878 56.2072 28.3572C56.2077 28.2077 56.2082 28.0582 56.2087 27.9042C56.2092 27.7567 56.2096 27.6092 56.2101 27.4572C56.2104 27.312 56.2106 27.1668 56.2109 27.0171C56.2106 26.8035 56.2106 26.8035 56.2103 26.5855C56.21 26.4461 56.2096 26.3067 56.2092 26.1631C56.2087 26.027 56.2082 25.891 56.2077 25.7508C56.2074 25.6186 56.2071 25.4864 56.2069 25.3502C56.2076 25.2227 56.2083 25.0952 56.2091 24.9638C56.2097 24.8406 56.2104 24.7174 56.211 24.5905C56.2108 24.4716 56.2106 24.3527 56.2103 24.2302C56.2092 24.1156 56.208 24.0011 56.2068 23.8831C56.2047 23.7729 56.2026 23.6627 56.2005 23.5492C56.1964 23.4436 56.1923 23.3381 56.188 23.2294C56.1619 22.9348 56.1619 22.9348 56.1351 22.6344C56.0947 22.4589 56.0542 22.2833 56.0126 22.1025C55.9628 21.9489 55.913 21.7952 55.8616 21.6369C55.8124 21.5078 55.7631 21.3787 55.7123 21.2456C55.6631 21.1378 55.6139 21.0299 55.5633 20.9188C55.4739 20.7599 55.3845 20.6011 55.2924 20.4374C55.1567 20.2599 55.1567 20.2599 55.0182 20.0789C54.9288 19.9583 54.8394 19.8378 54.7473 19.7136C54.6392 19.5924 54.531 19.4711 54.4195 19.3461C54.2651 19.2041 54.1106 19.062 53.9515 18.9156C53.8649 18.8435 53.7783 18.7714 53.689 18.6971C53.5552 18.5938 53.5552 18.5938 53.4188 18.4883C53.2439 18.3721 53.069 18.2558 52.8888 18.136C52.7952 18.0789 52.7015 18.0218 52.6051 17.963C52.505 17.9034 52.4049 17.8438 52.3018 17.7824C52.1924 17.7164 52.0829 17.6504 51.9701 17.5824C51.8531 17.5122 51.736 17.442 51.6155 17.3697C51.4921 17.2967 51.3687 17.2236 51.2415 17.1484C51.1108 17.0716 50.98 16.9948 50.8454 16.9157C50.706 16.8343 50.5666 16.7529 50.4229 16.6691C50.2772 16.5844 50.1315 16.4998 49.9814 16.4125C49.8311 16.3255 49.6808 16.2385 49.5259 16.1489C49.3716 16.0599 49.2173 15.9709 49.0583 15.8792C48.9007 15.7886 48.7432 15.6981 48.5809 15.6047C48.3417 15.4675 48.3417 15.4675 48.0977 15.3274C47.9372 15.2354 47.7767 15.1433 47.6113 15.0485C47.4519 14.957 47.2925 14.8655 47.1282 14.7712C46.9732 14.6819 46.8182 14.5926 46.6585 14.5006C46.5054 14.4123 46.3523 14.3239 46.1945 14.2328C46.0418 14.1447 45.889 14.0565 45.7317 13.9657C45.5792 13.8777 45.4267 13.7897 45.2696 13.699C45.1166 13.6106 44.9636 13.5223 44.8059 13.4313C44.6526 13.3429 44.4994 13.2545 44.3415 13.1634C44.1882 13.075 44.0349 12.9865 43.877 12.8954C43.7232 12.8067 43.5695 12.7181 43.4111 12.6267C43.2562 12.5375 43.1014 12.4483 42.9418 12.3563C42.7091 12.2223 42.7091 12.2223 42.4717 12.0856C42.3168 11.9963 42.1619 11.907 42.0022 11.815C41.8479 11.7261 41.6936 11.6371 41.5346 11.5455C41.3817 11.4574 41.2288 11.3693 41.0712 11.2785C40.8431 11.147 40.8431 11.147 40.6104 11.0127C40.4591 10.9253 40.3078 10.8379 40.1519 10.7479C40.0008 10.6602 39.8497 10.5725 39.6939 10.4822C39.4653 10.3485 39.4653 10.3485 39.232 10.212C39.0806 10.1232 38.9291 10.0343 38.773 9.94272C38.6242 9.85535 38.4753 9.76797 38.3219 9.67794C38.1761 9.59245 38.0303 9.50696 37.88 9.41888C37.6666 9.29424 37.6666 9.29424 37.4488 9.16709C37.3115 9.08727 37.1743 9.00744 37.0329 8.9252C36.9015 8.84918 36.7702 8.77316 36.6349 8.69484C36.5121 8.62416 36.3893 8.55348 36.2627 8.48066C36.1526 8.41773 36.0425 8.35479 35.9291 8.28995C35.8278 8.23273 35.7265 8.1755 35.6222 8.11655C35.4384 8.01555 35.2547 7.91456 35.0654 7.81051C34.8152 7.68141 34.8152 7.68141 34.56 7.5497C34.3413 7.44438 34.3413 7.44438 34.1182 7.33693C34.0005 7.28293 33.8827 7.22893 33.7614 7.1733C33.6521 7.13294 33.5428 7.09258 33.4302 7.051C33.3196 7.0228 33.2091 6.9946 33.0951 6.96555C32.961 6.94657 32.8268 6.92759 32.6886 6.90803C32.4925 6.89347 32.2964 6.87891 32.0944 6.86391C31.9322 6.85752 31.9322 6.85752 31.7667 6.851C31.6552 6.84918 31.5436 6.84736 31.4287 6.84548C31.3162 6.84661 31.2037 6.84774 31.0878 6.8489C30.9209 6.85467 30.9209 6.85467 30.7507 6.86056C30.541 6.87622 30.3312 6.89189 30.1152 6.90803C29.9556 6.93401 29.796 6.96 29.6315 6.98677C29.4154 7.0451 29.4154 7.0451 29.1948 7.10461C29.047 7.15769 28.8992 7.21076 28.7469 7.26545C28.5851 7.33621 28.4233 7.40698 28.2566 7.4799C28.1615 7.5245 28.0665 7.56909 27.9686 7.61504C27.8664 7.6648 27.7643 7.71456 27.659 7.76583C27.552 7.81987 27.4449 7.87392 27.3346 7.9296C27.1673 8.01661 27.1673 8.01661 26.9967 8.10538C26.8822 8.1667 26.7678 8.22802 26.6499 8.29121C26.5318 8.35594 26.4136 8.42067 26.2919 8.48737C26.1698 8.55546 26.0476 8.62356 25.9218 8.69372C25.7959 8.76495 25.67 8.83618 25.5402 8.90957C25.4106 8.98374 25.281 9.05792 25.1475 9.13435C25.0143 9.21129 24.8811 9.28823 24.7438 9.36751C24.6071 9.44704 24.4703 9.52657 24.3294 9.60852C24.1894 9.69043 24.0493 9.77233 23.905 9.85672C23.7621 9.94075 23.6192 10.0248 23.472 10.1113C23.3257 10.1974 23.1795 10.2835 23.0288 10.3722C22.8791 10.4602 22.7295 10.5481 22.5753 10.6388C22.4214 10.7286 22.2675 10.8185 22.109 10.9111C21.9494 11.003 21.7899 11.0949 21.6255 11.1896C21.3808 11.3295 21.3808 11.3295 21.1311 11.4724C20.966 11.5666 20.8009 11.6608 20.6307 11.7579C20.4639 11.853 20.2972 11.948 20.1253 12.0459C19.8734 12.1895 19.8734 12.1895 19.6163 12.3361C19.3646 12.4797 19.3646 12.4797 19.1078 12.6261C18.9409 12.7214 18.774 12.8167 18.602 12.9148C18.4383 13.0084 18.2746 13.1021 18.1059 13.1986C17.9492 13.2887 17.7926 13.3789 17.6311 13.4717C17.4012 13.6044 17.4012 13.6044 17.1666 13.7397C17.0144 13.8276 16.8622 13.9155 16.7054 14.0061C16.4787 14.1371 16.4787 14.1371 16.2474 14.2708C16.0971 14.3577 15.9469 14.4446 15.7922 14.5342C15.6409 14.6216 15.4896 14.709 15.3337 14.7991C15.1807 14.8875 15.0276 14.9758 14.8699 15.0668C14.7112 15.158 14.5524 15.2491 14.3888 15.3431C14.1319 15.4892 14.1319 15.4892 13.8697 15.6384C13.6058 15.788 13.6058 15.788 13.3367 15.9406C13.1613 16.0401 12.986 16.1395 12.8054 16.2419C12.632 16.3404 12.4587 16.4389 12.28 16.5404C12.1108 16.6371 11.9416 16.7337 11.7673 16.8333C11.6049 16.9265 11.4426 17.0197 11.2754 17.1156C11.1215 17.2044 10.9676 17.2932 10.8091 17.3847C10.6694 17.4658 10.5297 17.547 10.3857 17.6305C10.269 17.6988 10.1524 17.767 10.0322 17.8373C9.93045 17.8977 9.82874 17.9581 9.72395 18.0204C9.55016 18.1276 9.37637 18.2349 9.19732 18.3454C9.05062 18.4431 8.90392 18.5407 8.75278 18.6414C8.63115 18.7324 8.50951 18.8234 8.38419 18.9172C8.28025 19.0083 8.17631 19.0993 8.06922 19.1931C7.9815 19.2849 7.89377 19.3767 7.80339 19.4712C7.7306 19.5628 7.6578 19.6544 7.5828 19.7488C7.51701 19.8518 7.45121 19.9548 7.38343 20.061C7.31321 20.195 7.24299 20.3289 7.17065 20.467C7.10523 20.6072 7.0398 20.7475 6.9724 20.892C6.91674 21.0226 6.86108 21.1533 6.80374 21.2879C6.75914 21.402 6.71454 21.5161 6.66859 21.6336C6.62141 21.7752 6.57423 21.9167 6.52563 22.0625C6.51727 22.175 6.50892 22.2876 6.50032 22.4035C6.49743 22.5359 6.49454 22.6683 6.49156 22.8047C6.48944 22.9517 6.48732 23.0987 6.48514 23.2501C6.48306 23.4805 6.48306 23.4805 6.48095 23.7156C6.4768 23.8653 6.47265 24.015 6.46838 24.1693C6.46659 24.3917 6.46659 24.3917 6.46475 24.6186C6.4698 24.7657 6.47484 24.9128 6.48004 25.0643C6.49508 25.206 6.51013 25.3477 6.52563 25.4937C6.55707 25.6257 6.58852 25.7576 6.62091 25.8935C6.66411 26.0165 6.7073 26.1394 6.7518 26.2661C6.80473 26.3811 6.85766 26.496 6.91219 26.6145C6.97334 26.7164 7.03449 26.8184 7.09749 26.9234C7.23792 27.074 7.37836 27.2245 7.52304 27.3797C7.60989 27.4455 7.69674 27.5113 7.78622 27.5791C7.88919 27.6458 7.99217 27.7125 8.09826 27.7812C8.22519 27.8577 8.35212 27.9341 8.4829 28.0129C8.62541 28.094 8.76791 28.1751 8.91474 28.2587C9.14351 28.3831 9.14351 28.3831 9.3769 28.51C9.53879 28.5968 9.70068 28.6836 9.86748 28.773C10.0378 28.8659 10.208 28.9588 10.3835 29.0545C10.5576 29.1501 10.7318 29.2458 10.9112 29.3443C11.0866 29.4409 11.262 29.5374 11.4427 29.6369C11.6129 29.7322 11.783 29.8275 11.9584 29.9257C12.1132 30.016 12.2681 30.1063 12.4277 30.1994C12.5756 30.2877 12.7235 30.3759 12.8759 30.4668C13.0215 30.5546 13.1672 30.6423 13.3172 30.7327C13.4615 30.8203 13.6057 30.9078 13.7544 30.9979C13.9 31.0862 14.0457 31.1745 14.1957 31.2654C14.342 31.3539 14.4883 31.4423 14.639 31.5335C14.7855 31.622 14.932 31.7104 15.083 31.8015C15.2313 31.8902 15.3797 31.9788 15.5325 32.0702C15.6849 32.1594 15.8374 32.2486 15.9944 32.3406C16.2258 32.4746 16.2258 32.4746 16.4618 32.6113C16.6165 32.7006 16.7713 32.7898 16.9307 32.8817C17.0856 32.9707 17.2405 33.0597 17.4 33.1514C17.5546 33.2401 17.7091 33.3288 17.8683 33.4203C18.0219 33.5084 18.1755 33.5966 18.3338 33.6875C18.4862 33.775 18.6386 33.8626 18.7956 33.9528C18.9455 34.0392 19.0953 34.1256 19.2497 34.2147C19.4672 34.3416 19.4672 34.3416 19.6892 34.471C19.9029 34.5963 19.9029 34.5963 20.1209 34.724C20.3328 34.8483 20.3328 34.8483 20.5489 34.975C20.6893 35.0573 20.8296 35.1396 20.9742 35.2244C21.1143 35.3064 21.2544 35.3884 21.3987 35.473C21.5389 35.5548 21.6792 35.6366 21.8236 35.7209C21.9643 35.8025 22.1049 35.8842 22.2498 35.9683C22.3921 36.0502 22.5343 36.132 22.6809 36.2162C22.8266 36.2986 22.9724 36.3809 23.1226 36.4658C23.27 36.5484 23.4175 36.631 23.5694 36.7161C23.7918 36.8401 23.7918 36.8401 24.0186 36.9667C24.1669 37.0493 24.3152 37.1319 24.468 37.217C24.6148 37.2989 24.7616 37.3807 24.9129 37.465C25.0596 37.547 25.2064 37.629 25.3576 37.7135C25.5047 37.7959 25.6518 37.8783 25.8033 37.9632C26.0269 38.0892 26.0269 38.0892 26.2551 38.2178C26.4095 38.3057 26.5639 38.3935 26.723 38.4841C26.878 38.5729 27.033 38.6618 27.1927 38.7533C27.3457 38.8417 27.4986 38.9301 27.6562 39.0211C27.8042 39.1069 27.9522 39.1927 28.1047 39.2811C28.2425 39.3604 28.3804 39.4398 28.5224 39.5215C28.6542 39.5983 28.786 39.675 28.9217 39.7541C29.0486 39.83 29.1754 39.9059 29.3061 39.984C29.4943 40.1005 29.4943 40.1005 29.6863 40.2193C29.8837 40.3464 29.8837 40.3464 30.0851 40.4761C30.2119 40.5616 30.3386 40.6472 30.4692 40.7353C30.5819 40.8118 30.6947 40.8882 30.8108 40.967C30.9115 41.0505 31.0122 41.134 31.1159 41.2201C31.2065 41.3369 31.2971 41.4537 31.3904 41.5741C31.4978 41.7394 31.4978 41.7394 31.6074 41.9081C31.6691 42.0152 31.7309 42.1223 31.7945 42.2326C31.8536 42.3702 31.9128 42.5079 31.9737 42.6497C32.0473 42.8359 32.1209 43.022 32.1968 43.2138C32.2343 43.3417 32.2719 43.4695 32.3106 43.6012C32.341 43.759 32.3713 43.9168 32.4026 44.0794C32.415 44.2785 32.4275 44.4777 32.4403 44.6829C32.4442 44.8486 32.4442 44.8486 32.4482 45.0177C32.4492 45.1341 32.4502 45.2505 32.4513 45.3704C32.4518 45.5517 32.4518 45.5517 32.4524 45.7366C32.452 45.8618 32.4516 45.987 32.4512 46.116C32.4496 46.3098 32.4496 46.3098 32.448 46.5076C32.4463 46.7061 32.4463 46.7061 32.4445 46.9086C32.4441 47.0429 32.4437 47.1773 32.4433 47.3157C32.443 47.5205 32.443 47.5205 32.4427 47.7294C32.4424 47.8682 32.442 48.0069 32.4417 48.1498C32.4413 48.2903 32.4408 48.4308 32.4403 48.5756C32.4395 48.7177 32.4387 48.8597 32.4379 49.0061C32.4369 49.1494 32.436 49.2927 32.435 49.4403C32.434 49.5845 32.4331 49.7286 32.4321 49.8771C32.4312 50.0221 32.4303 50.167 32.4294 50.3163C32.4285 50.5351 32.4285 50.5351 32.4276 50.7583C32.4272 50.9041 32.4267 51.0499 32.4262 51.2C32.4257 51.345 32.4253 51.49 32.4249 51.6394C32.4244 51.7827 32.424 51.9261 32.4236 52.0738C32.4231 52.2144 32.4227 52.3549 32.4222 52.4998C32.4217 52.638 32.4213 52.7762 32.4208 52.9186C32.4203 53.0542 32.4198 53.1899 32.4193 53.3296C32.4185 53.5304 32.4185 53.5304 32.4177 53.7353C32.4171 53.8692 32.4164 54.0032 32.4157 54.1413C32.415 54.2717 32.4143 54.4022 32.4136 54.5366C32.4129 54.6606 32.4122 54.7845 32.4115 54.9122C32.4108 55.0298 32.4101 55.1474 32.4094 55.2686C32.4088 55.3813 32.4081 55.494 32.4074 55.6102C32.4068 55.7116 32.4062 55.813 32.4055 55.9174C32.4046 56.0683 32.4036 56.2191 32.4026 56.3746C32.5053 56.3173 32.608 56.2599 32.7139 56.2009C32.9283 56.0812 32.9283 56.0812 33.1471 55.959C33.3036 55.8716 33.46 55.7841 33.6212 55.6941C33.7869 55.6015 33.9526 55.5089 34.1233 55.4134C34.2848 55.3233 34.4464 55.2332 34.6128 55.1403C34.7707 55.052 34.9285 54.9638 35.0911 54.8728C35.3212 54.7436 35.3212 54.7436 35.5559 54.6119C35.6948 54.533 35.8337 54.4542 35.9768 54.373C36.0876 54.3083 36.1985 54.2436 36.3127 54.1769C36.4518 54.094 36.4518 54.094 36.5937 54.0095C36.741 53.9201 36.8883 53.8307 37.0401 53.7386C37.2828 53.5907 37.2828 53.5907 37.5304 53.4398C37.6198 53.3859 37.7091 53.3319 37.8012 53.2763C37.9068 53.2136 38.0125 53.1509 38.1213 53.0863C38.2594 53.0065 38.3975 52.9267 38.5397 52.8444C38.771 52.7118 38.771 52.7118 39.007 52.5764C39.2475 52.4388 39.2475 52.4388 39.4928 52.2983C39.6564 52.2045 39.8201 52.1107 39.9888 52.0141C40.1507 51.9208 40.3125 51.8276 40.4793 51.7315C40.637 51.6403 40.7947 51.549 40.9572 51.4551C41.1092 51.3668 41.2612 51.2785 41.4178 51.1875C41.5566 51.1064 41.6954 51.0253 41.8384 50.9418C41.9529 50.8746 42.0674 50.8073 42.1854 50.7381C42.285 50.6787 42.3847 50.6193 42.4874 50.5582C42.6595 50.4518 42.8316 50.3455 43.009 50.2359C43.1583 50.1371 43.3075 50.0384 43.4613 49.9366C43.5863 49.8437 43.7112 49.7508 43.84 49.6551C43.9443 49.5622 44.0486 49.4694 44.1561 49.3737C44.2434 49.2808 44.3308 49.1879 44.4208 49.0922C44.4938 48.9999 44.5667 48.9075 44.6419 48.8124C44.7075 48.7131 44.7731 48.6137 44.8407 48.5114C44.9093 48.3929 44.9779 48.2744 45.0485 48.1523C45.1126 48.029 45.1768 47.9057 45.2428 47.7787C45.3238 47.6101 45.3238 47.6101 45.4065 47.438C45.4557 47.3204 45.5049 47.2029 45.5556 47.0817C45.6297 46.9016 45.6297 46.9016 45.7054 46.7179C45.7503 46.5549 45.7952 46.3919 45.8415 46.2239C45.86 45.9067 45.86 45.9067 45.8788 45.5832C45.8798 45.4628 45.8808 45.3424 45.8819 45.2183C45.8813 45.0241 45.8813 45.0241 45.8808 44.826C45.8815 44.6875 45.8822 44.5491 45.883 44.4065C45.8836 44.261 45.8843 44.1154 45.8849 43.9655C45.8849 43.8142 45.8849 43.663 45.8849 43.5071C45.8847 43.2743 45.8847 43.2743 45.8845 43.0368C45.8848 42.8802 45.8851 42.7236 45.8853 42.5623C45.8859 42.3238 45.8858 42.3238 45.8864 42.0805C45.8868 41.8378 45.8868 41.8378 45.8872 41.5902C45.8873 41.426 45.8874 41.2617 45.8876 41.0925C45.8875 40.9256 45.8873 40.7588 45.8872 40.5869C45.887 40.4184 45.8868 40.2499 45.8866 40.0763C45.8865 39.9069 45.8863 39.7375 45.8861 39.563C45.8862 39.3933 45.8862 39.2236 45.8862 39.0488C45.8869 38.7949 45.8869 38.7949 45.8876 38.5359C45.8883 38.3673 45.8889 38.1988 45.8896 38.0251C45.8902 37.8574 45.8909 37.6898 45.8916 37.5171C45.8921 37.3509 45.8926 37.1847 45.8932 37.0134C45.8933 36.8492 45.8935 36.685 45.8937 36.5157C45.8937 36.3537 45.8937 36.1916 45.8937 36.0247C45.8936 35.8652 45.8935 35.7058 45.8933 35.5415C45.8934 35.3063 45.8934 35.3063 45.8935 35.0664C45.8942 34.912 45.8949 34.7576 45.8956 34.5985C45.8962 34.4478 45.8968 34.2972 45.8974 34.142C45.8971 33.9955 45.8967 33.849 45.8963 33.698C45.8958 33.5583 45.8953 33.4186 45.8947 33.2747C45.8958 33.1467 45.8969 33.0187 45.8981 32.8868C45.8971 32.7643 45.8961 32.6419 45.895 32.5158C45.8904 32.397 45.8859 32.2783 45.8811 32.1559C45.8681 32.0332 45.855 31.9106 45.8415 31.7843C45.8111 31.6434 45.7807 31.5025 45.7493 31.3573C45.6932 31.1466 45.6932 31.1466 45.6359 30.9317C45.5988 30.8042 45.5617 30.6767 45.5235 30.5453C45.4869 30.4352 45.4503 30.3251 45.4126 30.2116C45.3485 30.0694 45.2843 29.9271 45.2183 29.7805C45.1527 29.6751 45.0871 29.5697 45.0195 29.4611C44.9233 29.3007 44.9233 29.3007 44.8251 29.1371C44.7359 29.0199 44.6467 28.9027 44.5548 28.782C44.3455 28.5445 44.3455 28.5445 44.1321 28.3022C44.0443 28.2166 43.9565 28.131 43.866 28.0428C43.7631 27.9564 43.6601 27.8701 43.554 27.7812C43.4306 27.6991 43.3072 27.617 43.1801 27.5325C43.0427 27.4507 42.9053 27.369 42.7638 27.2847C42.617 27.2015 42.4703 27.1183 42.3191 27.0326C42.1634 26.9464 42.0078 26.8603 41.8474 26.7715C41.6832 26.6788 41.5191 26.5861 41.35 26.4905C41.1822 26.3956 41.0144 26.3007 40.8416 26.203C40.6729 26.1082 40.5043 26.0134 40.3305 25.9158C40.1676 25.8237 40.0047 25.7316 39.8369 25.6367C39.6172 25.5096 39.6172 25.5096 39.393 25.3799C39.2536 25.2984 39.1143 25.2169 38.9707 25.133C38.6963 24.9719 38.4219 24.8108 38.1392 24.6449C37.5671 24.3117 36.9951 23.9785 36.4057 23.6352C35.0847 22.8803 33.7637 22.1254 32.4026 21.3477C32.4026 25.9712 32.4026 30.5948 32.4026 35.3584C32.1196 35.3113 31.8365 35.2641 31.5448 35.2155C31.4098 35.1511 31.2748 35.0868 31.1357 35.0205C30.9963 34.9387 30.8569 34.8569 30.7133 34.7726C30.5567 34.6815 30.4002 34.5903 30.2389 34.4964C30.0771 34.4005 29.9154 34.3046 29.7488 34.2058C29.591 34.1137 29.4331 34.0217 29.2705 33.9268C29.1126 33.8344 28.9548 33.742 28.7922 33.6467C28.6516 33.5638 28.5111 33.4809 28.3663 33.3954C28.1886 33.2883 28.0108 33.1813 27.8277 33.071C27.6736 33.014 27.5196 32.9569 27.3608 32.8982C27.1926 32.8238 27.0244 32.7495 26.851 32.6728C26.69 32.5723 26.5289 32.4718 26.3629 32.3682C26.233 32.2227 26.103 32.0772 25.9691 31.9272C25.9345 31.8236 25.8999 31.7199 25.8643 31.6132C25.8437 31.4941 25.8231 31.375 25.8018 31.2524C25.7894 31.1226 25.777 30.9927 25.7643 30.859C25.7556 30.6504 25.7556 30.6504 25.7468 30.4375C25.7441 30.2923 25.7414 30.147 25.7387 29.9973C25.7394 29.7701 25.7394 29.7701 25.7402 29.5382C25.7437 29.3808 25.7472 29.2234 25.7508 29.0612C25.7546 28.8997 25.7585 28.7383 25.7625 28.572C25.7633 28.4088 25.7641 28.2457 25.7649 28.0776C25.7651 27.829 25.7651 27.829 25.7653 27.5754C25.7659 27.4069 25.7665 27.2383 25.7671 27.0647C25.769 26.8081 25.769 26.8081 25.7709 26.5464C25.7737 26.373 25.7765 26.1995 25.7794 26.0208C25.7845 25.7581 25.7845 25.7581 25.7896 25.4902C25.7947 25.226 25.7947 25.226 25.7998 24.9566C25.8026 24.78 25.8054 24.6034 25.8083 24.4215C25.8094 24.2449 25.8105 24.0683 25.8117 23.8863C25.8122 23.7103 25.8126 23.5342 25.8131 23.3528C25.8134 23.1777 25.8138 23.0026 25.8141 22.8222C25.8148 22.562 25.8148 22.562 25.8155 22.2965C25.8167 22.1255 25.8179 21.9545 25.8191 21.7783C25.8206 21.6097 25.8221 21.4412 25.8237 21.2675C25.8254 21.1018 25.8271 20.9361 25.8289 20.7653C25.8306 20.6022 25.8323 20.439 25.834 20.271C25.8349 20.1095 25.8358 19.9481 25.8367 19.7818C25.8386 19.5456 25.8386 19.5456 25.8405 19.3047C25.8433 19.1527 25.8462 19.0007 25.8491 18.844C25.8522 18.6993 25.8553 18.5545 25.8585 18.4054C25.8588 18.271 25.8592 18.1365 25.8595 17.998C25.8632 17.8717 25.8669 17.7455 25.8707 17.6154C25.8802 17.497 25.8897 17.3785 25.8995 17.2565C25.9225 17.144 25.9454 17.0316 25.9691 16.9157C26.0192 16.8052 26.0693 16.6947 26.1209 16.5809C26.1825 16.4787 26.244 16.3765 26.3074 16.2712C26.4317 16.1064 26.5559 15.9417 26.684 15.772C26.8213 15.6642 26.9586 15.5564 27.1 15.4453C27.2487 15.3614 27.3975 15.2776 27.5507 15.1912C27.7937 15.0513 27.7937 15.0513 28.0416 14.9086C28.2069 14.8161 28.3722 14.7236 28.5425 14.6282C28.7034 14.5328 28.8643 14.4373 29.0301 14.339C29.1817 14.2487 29.3334 14.1583 29.4897 14.0653C29.6272 13.9844 29.7646 13.9035 29.9063 13.8201C30.0224 13.7566 30.1385 13.693 30.2581 13.6275C30.3997 13.5803 30.5412 13.5331 30.687 13.4845C30.8761 13.4637 31.0652 13.4429 31.26 13.4214C31.3743 13.423 31.4886 13.4247 31.6064 13.4264C31.7276 13.4455 31.8488 13.4647 31.9737 13.4845C32.0938 13.5352 32.214 13.5859 32.3377 13.6382C32.462 13.7071 32.5862 13.776 32.7143 13.8469C32.845 13.9262 32.9758 14.0055 33.1105 14.0871C33.2484 14.1743 33.3864 14.2614 33.5285 14.3512C33.6763 14.4411 33.8241 14.5309 33.9763 14.6235C34.1302 14.7164 34.2841 14.8094 34.4427 14.9052C34.6004 15.0013 34.7581 15.0973 34.9205 15.1962C35.1603 15.3397 35.1603 15.3397 35.4049 15.486C35.5642 15.5769 35.7235 15.6678 35.8877 15.7614C36.0474 15.8504 36.2071 15.9394 36.3716 16.0311C36.5318 16.1197 36.6921 16.2082 36.8571 16.2994C37.0981 16.432 37.0981 16.432 37.3439 16.5672C37.5058 16.6567 37.6676 16.7462 37.8344 16.8384C37.995 16.9273 38.1557 17.0162 38.3212 17.1078C38.5586 17.2391 38.5586 17.2391 38.8008 17.3731C38.954 17.4581 39.1072 17.543 39.265 17.6305C39.4805 17.7508 39.4805 17.7508 39.7002 17.8735C39.9078 17.9899 39.9078 17.9899 40.1195 18.1086C40.3232 18.2232 40.3232 18.2232 40.5311 18.3402C40.6647 18.4156 40.7983 18.491 40.936 18.5688C41.068 18.6436 41.2 18.7183 41.3361 18.7954C41.4681 18.8704 41.6002 18.9455 41.7362 19.0228C41.869 19.0985 42.0017 19.1741 42.1384 19.2521C42.2753 19.3303 42.4122 19.4085 42.5533 19.4891C42.7003 19.573 42.8474 19.657 42.9989 19.7434C43.1495 19.8296 43.3 19.9158 43.4552 20.0046C43.6051 20.0908 43.755 20.1771 43.9094 20.2659C44.0575 20.3516 44.2056 20.4373 44.3582 20.5256C44.5749 20.6518 44.5749 20.6518 44.7959 20.7806C44.9347 20.8623 45.0735 20.944 45.2166 21.0282C45.4148 21.1464 45.4148 21.1464 45.6171 21.267C45.7383 21.3408 45.8596 21.4146 45.9845 21.4906C46.0882 21.5564 46.1919 21.6221 46.2988 21.6897C46.391 21.7501 46.4832 21.8105 46.5781 21.8726C46.8195 22.0374 46.8195 22.0374 47.0657 22.2055C47.2749 22.3564 47.2749 22.3564 47.4884 22.5104C47.6055 22.5985 47.7225 22.6866 47.843 22.7774C47.938 22.8478 48.0329 22.9182 48.1307 22.9907C48.2127 23.0559 48.2947 23.1212 48.3792 23.1884C48.4538 23.2558 48.5285 23.3233 48.6054 23.3928C48.684 23.4728 48.7627 23.5527 48.8438 23.6352C48.9446 23.7446 49.0454 23.8541 49.1493 23.9669C49.2578 24.0933 49.3664 24.2197 49.4782 24.35C49.5864 24.486 49.6946 24.622 49.8061 24.7621C49.9131 24.9092 50.0202 25.0563 50.1305 25.2078C50.2845 25.4461 50.2845 25.4461 50.4416 25.6892C50.5394 25.8547 50.6373 26.0202 50.7381 26.1907C50.8306 26.3589 50.9232 26.5272 51.0185 26.7006C51.1029 26.8685 51.1873 27.0363 51.2743 27.2093C51.3469 27.3728 51.4195 27.5363 51.4943 27.7047C51.5573 27.8626 51.6203 28.0206 51.6853 28.1833C51.738 28.3228 51.7907 28.4623 51.845 28.606C51.8926 28.7585 51.9401 28.9109 51.9891 29.0679C52.0384 29.2566 52.0878 29.4452 52.1386 29.6396C52.1634 29.7537 52.1883 29.8678 52.2138 29.9854C52.234 30.1072 52.2542 30.2291 52.275 30.3546C52.2839 30.4771 52.2929 30.5995 52.3021 30.7257C52.3054 30.8537 52.3088 30.9818 52.3123 31.1136C52.3133 31.2494 52.3143 31.3853 52.3154 31.5252C52.315 31.6696 52.3147 31.814 52.3143 31.9628C52.3154 32.1963 52.3154 32.1963 52.3165 32.4346C52.3171 32.5982 52.3178 32.7618 52.3184 32.9303C52.3184 33.0996 52.3184 33.269 52.3184 33.4435C52.3183 33.6172 52.3181 33.791 52.318 33.9701C52.3183 34.146 52.3186 34.322 52.3188 34.5033C52.3192 34.6822 52.3195 34.8611 52.3199 35.0454C52.3201 35.2274 52.3204 35.4094 52.3207 35.5968C52.3208 35.7815 52.3209 35.9662 52.3211 36.1565C52.321 36.3438 52.3209 36.5312 52.3207 36.7242C52.3204 37.0079 52.3204 37.0079 52.3202 37.2972C52.32 37.4873 52.3198 37.6774 52.3197 37.8732C52.3197 38.0636 52.3197 38.2539 52.3197 38.4501C52.3202 38.6399 52.3206 38.8297 52.3211 39.0253C52.3221 39.309 52.3221 39.309 52.3231 39.5984C52.3237 39.7864 52.3244 39.9745 52.3251 40.1683C52.3256 40.3549 52.3261 40.5414 52.3267 40.7337C52.3268 40.9183 52.327 41.103 52.3272 41.2932C52.3272 41.4755 52.3272 41.6578 52.3272 41.8456C52.3271 42.025 52.327 42.2045 52.3269 42.3893C52.3269 42.5656 52.3269 42.7418 52.327 42.9234C52.3277 43.0962 52.3284 43.269 52.3291 43.447C52.3297 43.6156 52.3303 43.7842 52.331 43.9579C52.3309 44.1216 52.3308 44.2852 52.3307 44.4538C52.3299 44.6122 52.3291 44.7705 52.3283 44.9337C52.3267 45.0865 52.3252 45.2394 52.3237 45.3969C52.3207 45.543 52.3177 45.6892 52.3145 45.8397C52.3096 45.9784 52.3047 46.1171 52.2997 46.26C52.2875 46.4545 52.2875 46.4545 52.275 46.6528C52.2614 46.7708 52.2477 46.8887 52.2336 47.0102C52.217 47.1186 52.2003 47.2269 52.1831 47.3386C52.1457 47.5302 52.1083 47.7218 52.0698 47.9192C52.0328 48.0774 51.9957 48.2355 51.9576 48.3985C51.9208 48.5301 51.884 48.6617 51.8461 48.7973C51.8128 48.9083 51.7795 49.0192 51.7451 49.1335C51.7127 49.2283 51.6802 49.323 51.6467 49.4206C51.5799 49.5805 51.513 49.7405 51.444 49.9053C51.369 50.0821 51.294 50.2588 51.2167 50.4409C51.1414 50.6062 51.066 50.7715 50.9883 50.9418C50.9203 51.085 50.8523 51.2282 50.7822 51.3758C50.7146 51.5068 50.647 51.6378 50.5773 51.7728C50.4714 51.9589 50.4714 51.9589 50.3634 52.1487C50.2865 52.2694 50.2097 52.3901 50.1305 52.5145C50.0404 52.6396 49.9503 52.7647 49.8574 52.8937C49.7618 53.0162 49.6661 53.1388 49.5676 53.265C49.4695 53.3821 49.3715 53.4991 49.2705 53.6197C49.1769 53.7267 49.0832 53.8338 48.9868 53.9441C48.9109 54.032 48.8349 54.1199 48.7567 54.2105C48.6822 54.2907 48.6078 54.3709 48.5311 54.4534C48.4474 54.5332 48.3637 54.613 48.2775 54.6953C48.1813 54.7776 48.0851 54.86 47.986 54.9449C47.8721 55.0346 47.7582 55.1244 47.6409 55.2169C47.5041 55.3158 47.3674 55.4148 47.2265 55.5168C46.9849 55.6799 46.9849 55.6799 46.7384 55.8463C46.6444 55.9067 46.5503 55.9671 46.4535 56.0293C46.3459 56.0961 46.2383 56.1628 46.1274 56.2316C45.9992 56.3083 45.871 56.385 45.7389 56.4641C45.5977 56.5469 45.4565 56.6298 45.311 56.7152C45.1615 56.8019 45.0121 56.8887 44.8582 56.978C44.702 57.0679 44.5459 57.1577 44.385 57.2502C44.2249 57.3418 44.0649 57.4334 43.8999 57.5278C43.6554 57.6671 43.6554 57.6671 43.4061 57.8093C43.2411 57.9031 43.0761 57.9969 42.9062 58.0936C42.7425 58.1868 42.5789 58.28 42.4103 58.3761C42.2528 58.4666 42.0952 58.557 41.9329 58.6502C41.7781 58.7395 41.6232 58.8287 41.4637 58.9206C41.3099 59.0093 41.1561 59.0981 40.9976 59.1895C40.8446 59.2779 40.6916 59.3662 40.5339 59.4573C40.3804 59.5458 40.2269 59.6344 40.0687 59.7256C39.9159 59.8138 39.7631 59.902 39.6057 59.9929C39.4543 60.0804 39.3028 60.1679 39.1468 60.2581C38.9971 60.3447 38.8474 60.4313 38.6932 60.5206C38.5461 60.606 38.3989 60.6913 38.2474 60.7792C38.1022 60.8636 37.957 60.948 37.8074 61.0349C37.6637 61.1187 37.52 61.2024 37.3719 61.2887C37.23 61.3714 37.0881 61.454 36.9418 61.5392C36.8022 61.6202 36.6626 61.7011 36.5187 61.7845C36.3802 61.865 36.2418 61.9455 36.0991 62.0285C35.9615 62.1089 35.8239 62.1893 35.6821 62.2722C35.4742 62.3959 35.4742 62.3959 35.262 62.5221C35.1187 62.6105 34.9754 62.6989 34.8278 62.7899C34.6845 62.8792 34.5412 62.9685 34.3936 63.0605C34.1823 63.1904 34.1823 63.1904 33.9667 63.3229C33.7631 63.4484 33.7631 63.4484 33.5553 63.5765C33.4293 63.6574 33.3033 63.7384 33.1734 63.8218C33.0534 63.8953 32.9334 63.9688 32.8097 64.0445C32.693 64.1075 32.5763 64.1705 32.456 64.2353C32.344 64.2833 32.2321 64.3313 32.1167 64.3807C31.9088 64.4152 31.7009 64.4496 31.4867 64.4851C31.3296 64.474 31.3296 64.474 31.1693 64.4627C31.0573 64.4356 30.9454 64.4086 30.83 64.3807C30.7012 64.3275 30.5723 64.2743 30.4396 64.2195C30.3029 64.1501 30.1661 64.0808 30.0252 64.0093C29.8167 63.8903 29.8167 63.8903 29.6039 63.7689C29.463 63.6848 29.3221 63.6007 29.1769 63.514C29.0355 63.4337 28.894 63.3535 28.7483 63.2708C28.54 63.1498 28.54 63.1498 28.3275 63.0264C28.1937 62.9435 28.0599 62.8605 27.922 62.7751C27.7965 62.6916 27.671 62.6081 27.5418 62.5221C27.429 62.4396 27.3162 62.3571 27.2 62.272C27.0992 62.1896 26.9984 62.1072 26.8945 62.0223C26.8081 61.95 26.7217 61.8777 26.6326 61.8032C26.5552 61.7102 26.4778 61.6172 26.398 61.5214C26.3235 61.3778 26.249 61.2342 26.1722 61.0863C26.0717 60.8063 26.0717 60.8063 25.9691 60.5206C25.9516 60.3154 25.934 60.1102 25.916 59.8987C25.915 59.7861 25.914 59.6735 25.913 59.5575C25.9141 59.4375 25.9152 59.3174 25.9164 59.1938C25.9156 59 25.9156 59 25.9147 58.8024C25.9141 58.5989 25.9141 58.5989 25.9134 58.3913C25.9141 58.1804 25.9141 58.1804 25.9148 57.9653C25.9152 57.8211 25.9156 57.6769 25.9161 57.5284C25.9156 57.3826 25.9151 57.2369 25.9146 57.0867C25.9139 56.9386 25.9132 56.7905 25.9124 56.638C25.9117 56.4874 25.911 56.3367 25.9103 56.1815C25.9097 56.0287 25.9091 55.8758 25.9085 55.7184C25.9082 55.5633 25.9079 55.4082 25.9076 55.2484C25.9074 55.0919 25.9073 54.9354 25.9071 54.7741C25.907 54.6167 25.9069 54.4593 25.9067 54.2971C25.9067 54.0605 25.9067 54.0605 25.9066 53.819C25.9066 53.5827 25.9066 53.5827 25.9067 53.3415C25.9068 53.1059 25.9068 53.1059 25.9068 52.8655C25.9068 52.7093 25.9068 52.5531 25.9068 52.3922C25.9066 52.2374 25.9065 52.0826 25.9063 51.923C25.9057 51.7702 25.9051 51.6174 25.9045 51.4599C25.9034 51.2338 25.9034 51.2338 25.9023 51.0031C25.901 50.7808 25.901 50.7808 25.8998 50.5539C25.899 50.3351 25.899 50.3351 25.8982 50.1119C25.8988 49.9681 25.8994 49.8242 25.9 49.676C25.9006 49.5357 25.9011 49.3954 25.9017 49.2508C25.9011 49.1147 25.9004 48.9787 25.8998 48.8385C25.8986 48.644 25.8986 48.644 25.8974 48.4456C25.8988 48.3261 25.9002 48.2066 25.9016 48.0835C25.8996 47.9134 25.8996 47.9134 25.8975 47.7399C25.8913 47.6313 25.885 47.5226 25.8787 47.4107C25.8613 47.3021 25.844 47.1936 25.8262 47.0817C25.7865 46.9641 25.7468 46.8465 25.7059 46.7253C25.6567 46.6108 25.6074 46.4962 25.5567 46.3782C25.4839 46.2245 25.4839 46.2245 25.4096 46.0677C25.3583 45.9777 25.3071 45.8877 25.2543 45.795C25.1437 45.6625 25.0331 45.53 24.9192 45.3935C24.7939 45.2901 24.6686 45.1867 24.5395 45.0802C24.3964 44.9842 24.2534 44.8881 24.1061 44.7892C23.9424 44.6936 23.7788 44.5979 23.6102 44.4994C23.5177 44.445 23.4253 44.3907 23.33 44.3347C23.1826 44.2484 23.1826 44.2484 23.0322 44.1604C22.8775 44.0711 22.8775 44.0711 22.7198 43.9801C22.6126 43.9185 22.5054 43.8569 22.3949 43.7935C22.285 43.7302 22.175 43.667 22.0618 43.6019C21.8914 43.504 21.8914 43.504 21.7175 43.4042C21.5998 43.3368 21.4821 43.2694 21.3608 43.2C21.2392 43.1304 21.1175 43.0609 20.9921 42.9893C20.8664 42.9177 20.7408 42.8462 20.6113 42.7725C20.4815 42.6986 20.3518 42.6248 20.2181 42.5487C20.0842 42.4724 19.9504 42.3962 19.8125 42.3177C19.6739 42.2385 19.5354 42.1594 19.3926 42.0779C19.2482 41.9949 19.1038 41.9119 18.9549 41.8264C18.8064 41.7407 18.6578 41.6551 18.5047 41.5669C18.2774 41.4357 18.2774 41.4357 18.0455 41.3019C17.8914 41.213 17.7374 41.1241 17.5788 41.0324C17.423 40.9425 17.2672 40.8525 17.1067 40.7599C16.9498 40.6692 16.7928 40.5785 16.631 40.4851C16.4733 40.394 16.3155 40.3029 16.1529 40.209C15.9954 40.118 15.8378 40.0271 15.6755 39.9334C15.5196 39.8435 15.3637 39.7537 15.2031 39.6611C15.0481 39.5718 14.8931 39.4825 14.7334 39.3905C14.579 39.3016 14.4245 39.2126 14.2655 39.1209C14.1115 39.0323 13.9576 38.9436 13.7991 38.8522C13.6452 38.7635 13.4912 38.6748 13.3327 38.5834C13.1033 38.4511 13.1033 38.4511 12.8692 38.3161C12.7177 38.2285 12.5662 38.141 12.4101 38.0508C12.261 37.9644 12.112 37.8779 11.9584 37.7889C11.8135 37.7043 11.6687 37.6197 11.5195 37.5325C11.377 37.4491 11.2345 37.3656 11.0877 37.2796C10.8757 37.1553 10.8757 37.1553 10.6593 37.0285C10.5189 36.9462 10.3785 36.8639 10.2338 36.7792C10.0942 36.6974 9.95449 36.6155 9.81058 36.5312C9.67068 36.4496 9.53078 36.3679 9.38664 36.2838C9.24609 36.2022 9.10554 36.1206 8.96074 36.0365C8.81766 35.9543 8.67458 35.872 8.52716 35.7873C8.37837 35.7035 8.22957 35.6196 8.07627 35.5332C7.92522 35.4488 7.77417 35.3644 7.61854 35.2775C7.46732 35.1933 7.31609 35.1091 7.16028 35.0223C7.00982 34.9386 6.85936 34.8549 6.70433 34.7687C6.55636 34.686 6.40838 34.6033 6.25592 34.5181C6.11013 34.4364 5.96435 34.3547 5.81414 34.2705C5.67072 34.1899 5.52729 34.1093 5.37952 34.0262C5.23876 33.9469 5.09801 33.8675 4.95299 33.7858C4.81482 33.7079 4.67664 33.6301 4.53428 33.5498C4.33296 33.4355 4.33296 33.4355 4.12758 33.3189C3.99816 33.2439 3.86874 33.169 3.7354 33.0917C3.61234 33.02 3.48927 32.9483 3.36248 32.8744C3.24827 32.8099 3.13405 32.7453 3.01637 32.6789C2.90907 32.6155 2.80177 32.5521 2.69121 32.4868C2.5397 32.3894 2.5397 32.3894 2.38514 32.2901C2.28895 32.2175 2.19276 32.145 2.09365 32.0702C1.99903 31.9788 1.90441 31.8875 1.80692 31.7933C1.67435 31.6468 1.67435 31.6468 1.5391 31.4972C1.45907 31.3998 1.37904 31.3024 1.29658 31.202C1.19575 31.0656 1.19575 31.0656 1.09288 30.9265C1.01235 30.7893 0.931812 30.6522 0.848835 30.511C0.79668 30.3886 0.744525 30.2662 0.69079 30.1401C0.636792 30.0178 0.582794 29.8954 0.52716 29.7693C0.477953 29.6322 0.428747 29.4951 0.37805 29.3538C0.328579 29.1851 0.279107 29.0164 0.228137 28.8426C0.203365 28.7414 0.178592 28.6401 0.153069 28.5358C0.132955 28.4283 0.11284 28.3208 0.0921161 28.2101C0.0832261 28.1027 0.0743361 27.9953 0.0651767 27.8846C0.0618573 27.7734 0.0585378 27.6622 0.0551178 27.5477C0.0542165 27.4312 0.0533152 27.3146 0.0523866 27.1946C0.0529654 27.0723 0.0535442 26.95 0.0541405 26.824C0.0537302 26.6289 0.0537302 26.6289 0.0533115 26.4298C0.0532165 26.2952 0.0531215 26.1607 0.0530236 26.022C0.0536225 25.8851 0.0542215 25.7483 0.0548386 25.6072C0.0553454 25.4695 0.0558522 25.3318 0.0563744 25.1899C0.0558675 25.0537 0.0553607 24.9175 0.0548386 24.7772C0.0542396 24.6421 0.0536407 24.507 0.0530236 24.3679C0.052912 24.2341 0.0528004 24.1004 0.0526854 23.9626C0.0531656 23.8306 0.0536458 23.6986 0.0541405 23.5626C0.0554212 23.4319 0.0567019 23.3013 0.0580214 23.1667C0.060369 23.0396 0.0627165 22.9126 0.0651353 22.7816C0.0686757 22.6594 0.0722162 22.5371 0.0758639 22.4112C0.0812271 22.2961 0.0865903 22.1811 0.0921161 22.0625C0.110327 21.8625 0.128537 21.6625 0.147299 21.4565C0.170555 21.2825 0.19381 21.1086 0.217771 20.9294C0.243733 20.7744 0.269695 20.6195 0.296444 20.4599C0.323374 20.3282 0.350304 20.1966 0.37805 20.061C0.427256 19.8736 0.476462 19.6861 0.52716 19.493C0.581158 19.3472 0.635156 19.2015 0.69079 19.0513C0.753818 18.8867 0.816846 18.7221 0.881785 18.5526C0.986279 18.3085 0.986279 18.3085 1.09288 18.0594C1.16844 17.8982 1.244 17.7369 1.32185 17.5708C1.40257 17.4136 1.4833 17.2564 1.56646 17.0944C1.65161 16.9427 1.73675 16.7911 1.82447 16.6348C1.9133 16.4916 2.00213 16.3484 2.09365 16.2009C2.18543 16.0709 2.27721 15.941 2.37177 15.8072C2.46576 15.6864 2.55975 15.5657 2.65658 15.4414C2.75352 15.3269 2.85046 15.2125 2.95034 15.0946C3.09243 14.9345 3.09243 14.9345 3.23739 14.7712C3.32032 14.6748 3.40325 14.5784 3.4887 14.4791C3.57384 14.3868 3.65898 14.2945 3.74671 14.1993C3.84309 14.1066 3.93948 14.0139 4.03878 13.9184C4.15176 13.8224 4.26473 13.7264 4.38112 13.6275C4.51916 13.5241 4.65719 13.4207 4.79941 13.3142C4.96214 13.2023 5.12487 13.0904 5.29254 12.9752C5.38208 12.9163 5.47162 12.8575 5.56388 12.7968C5.66066 12.735 5.75743 12.6731 5.85714 12.6094C5.96208 12.544 6.06701 12.4786 6.17512 12.4112C6.29079 12.3408 6.40645 12.2704 6.52563 12.1978C6.65659 12.1198 6.78755 12.0418 6.92248 11.9615C7.06372 11.8786 7.20496 11.7957 7.35048 11.7103C7.49886 11.624 7.64724 11.5378 7.80011 11.4489C8.03173 11.3154 8.03173 11.3154 8.26803 11.1792C8.4265 11.0884 8.58497 10.9976 8.74824 10.9041C8.91026 10.8117 9.07228 10.7193 9.2392 10.6241C9.40421 10.5302 9.56923 10.4363 9.73924 10.3397C9.98848 10.1979 9.98848 10.1979 10.2428 10.0533C10.4076 9.95917 10.5725 9.86504 10.7424 9.76806C10.9072 9.67384 11.072 9.57962 11.2419 9.48255C11.4071 9.38811 11.5723 9.29367 11.7425 9.19637C11.9081 9.10173 12.0737 9.00708 12.2443 8.90957C12.4942 8.76691 12.4942 8.76691 12.7492 8.62136C12.9154 8.52646 13.0816 8.43156 13.2529 8.33379C13.418 8.23945 13.583 8.14512 13.7531 8.04792C13.9157 7.95483 14.0783 7.86174 14.2458 7.76583C14.4036 7.67514 14.5614 7.58444 14.724 7.491C14.8791 7.40164 15.0343 7.31228 15.1941 7.22021C15.3478 7.13155 15.5015 7.0429 15.6599 6.95155C15.8125 6.86347 15.9651 6.77539 16.1223 6.68464C16.2744 6.59684 16.4265 6.50904 16.5833 6.41857C16.735 6.33093 16.8868 6.24328 17.0432 6.15299C17.2705 6.02168 17.2705 6.02168 17.5023 5.88771C17.6543 5.79981 17.8063 5.7119 17.963 5.62133C18.1935 5.48781 18.1935 5.48781 18.4287 5.35159C18.5829 5.26221 18.7372 5.17282 18.8962 5.08073C19.0505 4.99135 19.2049 4.90197 19.364 4.80988C19.5179 4.72087 19.6719 4.63185 19.8305 4.54014C19.983 4.45223 20.1354 4.36432 20.2925 4.27375C20.4447 4.18621 20.5969 4.09867 20.7536 4.00848C20.9058 3.92113 21.0579 3.83377 21.2147 3.74377C21.3683 3.65568 21.5219 3.56759 21.6801 3.47682C21.8379 3.38615 21.9958 3.29548 22.1584 3.20206C22.3166 3.11139 22.4748 3.02072 22.6379 2.9273C22.7938 2.83844 22.9498 2.74959 23.1105 2.65805C23.3401 2.52815 23.3401 2.52815 23.5744 2.39564C23.7239 2.31181 23.8734 2.22798 24.0274 2.14161C24.171 2.06215 24.3145 1.9827 24.4624 1.90084C24.5987 1.82661 24.735 1.75239 24.8755 1.67592C25.0005 1.60971 25.1255 1.5435 25.2543 1.47529C25.3612 1.42161 25.4682 1.36794 25.5783 1.31264C25.7215 1.24442 25.7215 1.24442 25.8675 1.17483C26.0367 1.10001 26.2058 1.02519 26.3801 0.948098C26.5302 0.888018 26.6802 0.827939 26.8347 0.766039C26.9737 0.717017 27.1127 0.667995 27.2558 0.617487C27.4007 0.571414 27.5455 0.52534 27.6948 0.477871C27.9021 0.418713 27.9021 0.418713 28.1136 0.35836C28.2316 0.327951 28.3495 0.297543 28.471 0.266213C28.589 0.240596 28.7069 0.214979 28.8285 0.188586C28.9543 0.162417 29.0802 0.136247 29.2099 0.109284C29.3671 0.0882751 29.5243 0.0672656 29.6863 0.0456196Z" fill="var(--fill-0, #1E3460)"/>
</svg>
