<svg xmlns="http://www.w3.org/2000/svg" id="Camada_1" viewBox="0 0 192 50"><defs><style>      .st0 {        fill: #5f5a65;      }    </style></defs><path d="M191.9,33.9c0-2.2-.1-5.9-3.2-5.3-.7.2-1.5.3-2.2.4l.2-11.6c1.5-.7,2.5-1.7,2.2-3.5-.4-2.5-3.2-3.5-5-1.5-1.6-1.1-3.6-1.4-5.5-1.3-2.3.2-4.6.2-7,.3-2.5,0-4.8.5-6.6,2.2-.2-.9-.8-1.7-1.7-1.9-6.7-.5-13.3-1.1-20-1.7-1.8-.3-3.5-.3-5.2,0-.8-2.2-2.8-3.8-5.2-3.7-3.4,0-6.7,0-10,.3-.7.1-1.2.4-1.8.7-.5-1.1-1.4-1.4-2.5-1.5-1.3-.1-2.7,0-4,0-2.8,0-4.9.3-4.5,3.8.1,1,.2,2,.3,3-1.5-1-3.1-1.1-4.9-.9h-4.7c-2.8-.2-5.8,0-7.9,2-.9-2.8-3.7-4-6.5-4.3-7.7-.5-15.6-.9-23.4-1.4-2-.1-2.7,2.7-2.3,4.3,0,1.2,0,2.3,0,3.4l-7.2.8c-.7.1-1.3.4-2,.6-.2.1-.7.3-.9.6,0-1.7,0-3.4,0-5h-.2c.3-.2.1-.9,0-1.1-.4-1.4-1.5-1.6-2.8-1.8-1.7-.2-3.7-.2-5.4-.2h0c0-1.1,0-3.1,0-4.2,0,0-.1,0-.2,0,.5-.4-.4-1.3-.8-1.6-.9-.6-1.5-.7-2.5-.5-1.5.2-3.4.6-4.8,1.1-1.2.4-2,.8-2.3,2.1l.2,4.6c-1.8-.9-3.8-1.3-5.8-1.2l-4.8-.5c-3-.2-6.4-.4-9,1.3l.8-8.3c-.1-1.1-.9-2.2-2.1-2,0,0-.1,0-.2,0C10.5,0,10.4,0,10.4,0h-.7l-1.1.2L1,2.6c-.5.2-1.1.8-.8,1.3-.1.4-.1.9,0,1.3,0,0,0,.1,0,.2,0,.7,0,1.3,0,2,0,7,.1,14,.3,21.1,0,2.3.1,4.7.2,7,0,.4.4,1.1.6,1.5,1.3,2.4,4.4,2.8,6.9,2.9,7.3,0,14.6.3,21.9.6,2.3.2,5,.1,5.3-2.6h4.8c.4,1.8,1.4,2.4,3.2,2.5,1.1,0,2.3,0,3.3,0,1.9,0,3.9-.2,4.1-2.6,1.5,1.3,3.1,1.7,5,1.7,2.5,0,5-.2,7.5-.3,1.9-.1,3.7-.4,5.2-1.5v2.1c-.2,1.7.2,3.1,2,3.5,1,.2,5.3.2,6.1-.3,1.2-.6,1.5-1.5,1.4-2.8-.2-2-.5-4-.8-6,2.8.4,5.6.7,8.5.8,2.2.1,4.4,0,6.2-1.4.8,2.9,3.5,4.3,6.4,4.1,1.9.1,3.8.3,5.6.6,3,.4,6.3.4,8.7-1.6.6.8,1.2,1.2,2.2,1.4,1.5.3,4.3.1,5.7-.4,1.1,1.3,2.6,1.9,4.2,2.2,4.2.2,8.7.3,12.9.1.6,0,2.9-.3,3.4-.7v6.3h.2c-.4.3,0,1.2.3,1.5.6.9,1.6,1.8,2.7,1.9l9.2.2c8.8.5,17.6.7,26.4.7.5,0,1.2,0,1.7,0,1,.2,1.9-.5,2.3-1.4.4-.8.6-1.7.9-2.5.8-2.7,1.6-5.5,2.3-8.3.9,0,1.8,0,2.8-.1,1.1,0,2.3-.7,2.2-2,0,0,0-.2,0-.2v-1c-.1,0,0-.2,0-.4h0ZM12.2,13.7c.5-1.7,3.1-2.4,4.7-2.5,2.3-.2,5.4.3,7.7.5,2.6.2,6.8-.2,7.5,3.1-.2,3.2.2,6.8,0,10-.2,2.2-2.4,3.1-4.3,3.4-4.3.7-8.9.7-13.2,1.3-2.1-.2-3.9-1-4-3.4l1.6-12.5h0ZM30.7,38.3c-6-.1-11.9-.3-17.9-.5-2.5,0-6.7.4-8.8-.9-1.2-.7-1.2-1.5-1.3-2.7-.2-3.6,0-7.5-.2-11.1-.1-5.4-.3-10.9-.5-16.3,0-.4,0-1.9,0-2.1.1-.1,1.1-.4,1.3-.5,2.1-.8,4.4-1.4,6.5-2.1.2,0,.7,0,.7.3l-2.7,26.8c-.4,2.8,2.5,2.9,4.5,2.9,6.1-.2,12.2-.8,18.3-1.1.6,0,2-.4,2.1.4v6.9c-.1.3-1.9.2-2.3.2h0ZM40,35.8c-.9.2-3.4.2-4.3.1-1.1-.1-.7-.9-.7-1.7-.5-9.1-.9-18.3-1.3-27.5,0-.2.1-.3.3-.3l5.3-1.2c.3,0,.8,0,.8.5l.4,29.8c0,.2-.2.3-.3.3ZM46.6,38.1c-1.1,0-2.4.2-3.6,0-.2,0-.7,0-.8-.3,0-5.4,0-10.8,0-16.2,0-.3,0-.5.1-.7,0-3,0-6.1,0-9.1,0,0,.2-.1.3-.2.3,0,.7,0,1,0,1.2,0,2.9.1,4,.3.2,0,.5.1.6.3l.3,25.5c0,.6-1.6.4-2,.4h0ZM69,28.5c0,1.5,0,3.2,0,4.8-.2,2.1-2.5,3.5-4.5,3.7-3.2.3-6.4.2-9.5.5-4-.6-4.8-3.8-4.4-7.3.5-4.7,7.4-2.7,10.1-3.6,1.9-.6,2.1-2.1,1.8-3.8-.3-2-3.3-2-4.8-1.9-1.2,0-2.5.5-2.7,1.8-.2,1.2.5,1.6-1.1,1.7-.7,0-2.4,0-3,0-.5,0-.5-.2-.5-.7-.3-3.8,1.6-4.8,5-5.2,2.7-.3,5.7-.7,8.4-.8,2.4-.1,5.7.6,5.6,3.6,0,2.4-.2,4.9-.3,7.3h0ZM86.7,32.8c-3.1,0-6.6-.7-9.8-.8-.9,0-2,.4-2,1.4l.9,7.2c0,.5-.6.5-1,.5-.9,0-2.8.1-3.8,0-.1,0-.6-.1-.6-.2-.1-.2,0-3.9,0-4.4,0-6.5.2-13,.4-19.5,0-.9,0-1.5-1.1-1.7l-6.8.8c-.2-.1-.3-.3-.3-.6,0-1.5-.2-3.2,0-4.7,0-.9.5-.5,1.1-.5,6.7.2,13.6.7,20.3,1.1,2.9.2,6.5.5,7,4.1l.3,14.5c-.1,2.4-2.6,2.8-4.5,2.9h0ZM106.3,36.2c-2.6-.1-5.4-.5-8-.7-2-.2-3.8,0-4.5-2.5-.3-1.1-.3-4.9,0-6,1.4-5.2,12.7,1.3,11.3-6.6-.4-2.2-3.7-2.1-5.4-2.1-1.2,0-2.8,0-3.6,1.2-.6.9-.2,1.4-.4,2.2-.1.6-2.3.5-2.9.4-.2,0-.6,0-.7-.2-.3-.3,0-3,0-3.6,1.6-5.8,8.4-4.4,13.1-4.4.4,0,.8-.1,1.3-.1,2.8.1,4.4,2.6,4.7,5.1.6,4.4.5,9,1.1,13.4-.3,3.2-3.4,4-6.1,3.9h0ZM119,35.7c-.8,0-3.5.1-4.2,0-.1,0-.3-.1-.4-.2l-2.4-27c0-.3.4-.4.6-.4,1.4-.2,4.4-.1,5.8,0,.2,0,.3,0,.5.1l.8,27.1c0,.3-.4.4-.7.4h0ZM185.3,13.7c.5-.5,1-.4,1.4,0,.4.5.4.8,0,1.3-.1.2-.2.4-.5.5-1.2.2-1.7-1.1-1-1.9h0ZM120.8,11.6c.7-3.9,4.1-2.8,7.1-2.9.1,0,.3,0,.4,0,1.5,0,3.8-.2,5.2,0,1.9.3,2.7,2.6,2.7,4.3,0,2.1-.2,5-.5,7.2-.2,1.6-1.2,3.3-2.9,3.6-2.9.4-6.4-.2-9.3,0-1.7-.2-2.5-2.1-2.7-3.6-.2-2.7-.1-5.8,0-8.6ZM138.1,37.6c-4.1-.5-10.6,1-14.4-.4-1.3-.5-2-1.2-1.9-2.6,0-1.9.5-4.7.8-6.6.2-1.2.7-1.7,1.8-2.1,2.5-1,8.5-.8,11.4-.7,2.3,0,5.5.1,6,2.9.4,2.2.4,4.5.8,6.7,0,2.1-2.7,2.7-4.4,2.8h0ZM144.2,34.9c-.2-1.9-.4-4.5-.5-6.4,0-1.1.2-1.6,1.2-2,3.7-1.8,8.2-3,12-4.8,1.3-.8.9-2-.6-2.1-.9,0-1.8,0-2.6.1-5.3,0-10.5,0-15.8,0-.3-.1-.4-.3-.4-.7l.9-6.7c.3-.3.7-.2,1.1-.2,7.5.8,15.2.9,22.7,1.8.1,0,.3,0,.4.1,0,0,.1.3.1.4.2,1.7.1,3.9,0,5.7,0,.2,0,.4,0,.5,0,1.4-.6,1.8-1.7,2.4-3.3,1.7-7.2,3.1-10.4,4.9-.6.4-1.2,1-.7,1.7.5.8,2.1.7,3,.7,2.9,0,6.5-.4,9.3-.1.3,0,.7.1.8.4-.1.8.4,4.4,0,4.9,0,.1-.3.2-.4.2-5.9.1-11.8.2-17.6.2-.7,0-.7-.4-.8-1h0ZM149.4,45.4c-.8.3-2.9.4-3.8.3-.4,0-.4-.3-.4-.6-.1-1.4-.1-4.1,0-5.5,0-.2,0-.5.2-.6.3-.2,3.3,0,3.8,0,1.4.4,1.6,2,.4,2.7.5.4,1.1.7,1.2,1.4.2,1.1-.3,1.9-1.3,2.3ZM157.7,45.7c-.4.1-1.6,0-1.9-.2-.3-.4-.8-1.6-1.1-1.9-.1-.1-.3-.1-.4,0v2.1c0,.2-2,.4-2.1-.1v-6c0-.2,0-.5.3-.5.5,0,2.2,0,2.8,0,1.6.2,2.7.8,2.4,2.6-.1.6-.5.9-1,1.2,0,.1,1,.8,1.2,1,.2.3.3,1.7-.1,1.8h0ZM165.3,45.6s-.1.1-.1.1c-.4,0-1.3,0-1.6,0-.4-.1-.5-1.4-.7-1.7,0,0-1.2,0-1.3,0-.2,0-.4,1.8-.7,1.8h-1.6c-.1-.3-.1-.7,0-1.1,0-.9,1.4-4.3,1.8-5.2,0-.1.1-.4.3-.5.2,0,1-.1,1.2-.1.2,0,.9.1.9.2l1.9,4.9v1.6h0ZM171.3,45.2c-1,.8-3.3.8-4.5.1-.8-.5-.6-1-.1-1.7.5-.7.9,0,1.6.1.5.1,1.1.4,1.5,0-1.1-.4-2.7-.5-3.2-1.8-.5-1.5.2-2.8,1.8-3,.7,0,3,0,3.3.9,0,.3-.3,1.4-.6,1.5-.2,0-2.5-1-2.5-.4,0,.3,2.1.7,2.6,1,1.1.7,1.1,2.6.1,3.4h0ZM175.6,45.5c-.1.4-1.7.4-2.1.2-.2-.1-.2-.4-.2-.6-.1-1.4-.1-4.1,0-5.5,0-.1,0-.3,0-.4.2-.4,2.2-.3,2.2,0v6.3ZM182.2,45.7h-4.7s-.1-.1-.1-.1v-6.5c.3-.2,2.2-.3,2.2.1v4.9h2.7c.1.5.1,1.1,0,1.6h0ZM189.9,35.3c-2.4.2-4.8.2-7.3.2-1.3,0-2.6,0-3.8,0-3.1,0-6.9.4-9.9,0-1.7-.2-3.7-1.4-4.2-3.1-.2-.8-.3-3.8-.2-4.7.5-5.3,7.5-4,11.1-4.2,1.9,0,2-.9,1.9-2.6-.1-1.7-1.1-2.8-2.9-2.9-.9,0-4.1-.1-4.8.2-1.3.6-.7,2.4-.8,3.5,0,.4-.5.5-.8.5-.5,0-3.2,0-3.5,0-.2,0-.4-.3-.4-.5-.3-1.7,0-3.8,1-5.3,2.1-3.3,4.9-2.7,8.2-2.9,1.4,0,2.8-.2,4.2-.3,2.2,0,4.4-.1,5.9,1.7,1,1.2.9,1.9.8,3.4,0,3.4-.2,6.8-.2,10.2.4,1.3-.5,2.6,1.3,2.7,1.3,0,2.4-.5,3.5-.6.5,0,.5.2.6.6.2.8.5,2.6.5,3.4,0,.2,0,.4-.2.6h0Z"></path><path class="st0" d="M10.7,0s0,0,.1,0h0c0,0-.2,0-.2,0,0,0,0,0,0,0Z"></path><path d="M106,27.1c-.8-.1-2.9,0-3.7,0-3.2.4-3.7,4.3-.8,5.4,1.1.4,3.4.3,4.6.2,1.7-.2,1.8-1.8,1.7-3.2,0-1.2-.4-2.2-1.7-2.4Z"></path><path d="M137,29.3c0-.2-.2-.5-.3-.6-.1-.1-.4-.3-.6-.4-1.1-.5-4.8-.4-5.9,0-.5.2-1.1.4-1.2,1-.2.5-.9,3.8-.9,4.1.1.9.8,1.1,1.6,1.2,1.4.1,3.8.1,5.2,0,3.5-.3,1.8-2.9,2.1-5.3h0Z"></path><path d="M126.3,18.3c1.6.1,4.1,0,4.8-1.6.4-.9.3-3.2-.2-4-.6-.9-1.4-.9-2.4-.8-.7,0-2.2,0-2.8,0-1.5.3-1.4,2.9-1.3,4,.1,1.2.6,2.2,1.9,2.3h0Z"></path><path d="M191.9,33.9c0,.1,0,.2,0,.4v-.4h0Z"></path><path d="M192,35.5v-.2.2c0,0,0,0,0,0Z"></path><path d="M179.8,49.9h0c0,0,1.7,0,1.7,0h0c-.5,0-1.2,0-1.7,0Z"></path><path d="M154.3,40.6c0,.3,0,1,0,1.4.3,0,1-.1,1.2-.5.5-1-1.1-1.2-1.2-.9h0Z"></path><path d="M147.4,42.9v1.4c1.7.2,1.8-1.7,0-1.4Z"></path><path d="M148.1,40.4c-.1-.1-.5-.1-.7-.1v1c.6.2,1.2-.5.7-.9Z"></path><path d="M162.1,41.4c0,.1-.3,1-.3,1.1h.7c0-.2-.2-1.1-.3-1.2-.2-.2-.2,0-.2.1h0Z"></path><path d="M185.3,13.7h0c0,0,0-.1,0,0Z"></path><path d="M186.7,15h0c0,0,0-.1,0,0Z"></path><path d="M186.7,13.7h0c.1.2.2.1,0,0Z"></path><path d="M185.5,13.9h0c-.4.2-.3.8,0,1.2-.1-.4-.1-.8,0-1.2Z"></path><path d="M186.6,15.1s0,0,0,0c-.2,0-.2,0,0,0Z"></path><path d="M186.6,13.8c-.3-.4-.9-.4-1.2,0,.2,0,.4,0,.6,0,.2.1.5.2.6.1Z"></path><path d="M186.6,13.8c0,.1,0,.3,0,.6,0,.3,0,.4,0,.6.2-.4.2-.8,0-1.1Z"></path><path d="M186.5,15.1c-.3,0-.6,0-.9,0,0,0,0,0-.1,0,.4.4.8.4,1.2,0,0,0-.1,0-.2,0Z"></path><path d="M186.5,15.1c0,0,.1,0,.2,0,0,0-.1,0-.2,0,0,0,0,.1,0,.1Z"></path><path d="M185.5,14.8c0,.1,0,.2,0,.3,0,0,0,0,.1,0,0,0,0-.1,0-.3Z"></path><path d="M186.2,14.7s0,0,0,0c0,.1.2.2.3.2l-.3-.5c0,.1,0,.2,0,.2h0Z"></path><path d="M186.2,14.7s0,0,0,0c0,0,0,0-.2-.1.1.1.2.3.3.4.1,0,.2,0,.2,0,0,0-.2,0-.3-.2h0Z"></path><path d="M179.4,26.9c-1.1-.5-3.5-.5-4.6-.4-3.9.4-4,5.3-.5,6.1,1.2.3,3.9.2,5-.2,2.3-1,2.3-4.5.2-5.5h0Z"></path><path d="M185.7,14.5c0-.2,0-.3,0-.4h0c0,0,0,0,.1,0,0,0,.1,0,.2,0,0,0,.1,0,.1.2,0,0,0,.2,0,.2,0,0,.2,0,.2,0,.2-.2,0-.6-.3-.6-.7-.1-.5.4-.5.9h0c0-.2,0-.3,0-.3h0Z"></path><path d="M185.7,15.1c0-.6,0-.4.3-.5-.1-.2-.2-.2-.3-.1,0,0,0,0,0,0h0v.2s0,0,0,0c.1.1,0,.3.2.3Z"></path><path d="M186.1,14.6s0,0,0,.1h0c0,0,0-.2,0-.2,0,0-.1,0-.2,0h.1Z"></path><path d="M186.2,14.4c0,0,0-.1,0-.2,0,0,0-.2-.1-.2,0,0-.1,0-.2,0,0,0,0,0-.1,0v.3h.5Z"></path><path d="M59.6,28.9c-1,0-2.1.5-2.4,1.6-.6,2.1.6,3.5,2.7,3.7,2.3.2,6.1.1,5.6-3.2-.4-2.5-4-2.3-6-2.1h0Z"></path><path d="M87.1,21.9c-.4-1.7.6-4.2-1.3-5.2-1-.5-3.7-.5-4.9-.3-1.1.1-2.4.8-2.6,2,.2,2.7,0,5.7.2,8.4.2,2.6,3.8,2.5,5.8,2.4,1.4,0,2.8-.7,2.9-2.2.2-1.5-.3-3.5,0-5h0Z"></path><path d="M0,5.6c0,0,0,.2,0,.3.2.4,0,.9,0,1.4,0,.1,0,.2,0,.2,0-.7,0-1.4,0-2.1,0,0,0,.2,0,.2Z"></path><path d="M.2,3.9l-.2.2v1.5-.4c0-.4,0-.9.2-1.3Z"></path><path d="M.1,5.2s0,0,0,.1c0,0,0,0,0-.1Z"></path><path class="st0" d="M10.6,0h-.2.2c0,0,0,0,0,0Z"></path><path class="st0" d="M10.7,0s0,0,0,0c0,0,0,0,0,0Z"></path><path d="M22.3,25.3c1.7.1,5.1.2,5.7-1.8,0-1.7.7-3.9.6-5.6,0-2.3-3-2.2-4.6-2.2-1.9,0-4.5,0-4.5,2.5,0,1.6,0,4.1.2,5.6.2,1,1.7,1.4,2.6,1.5h0Z"></path></svg>